<?xml version="1.0" encoding="UTF-8" standalone="no"?>
<!-- Created with Inkscape (http://www.inkscape.org/) -->

<svg
   width="150mm"
   height="79.730278mm"
   viewBox="0 0 150 79.730278"
   version="1.1"
   id="svg5"
   inkscape:version="1.1.1 (3bf5ae0d25, 2021-09-20)"
   sodipodi:docname="one-and-two-handles-5d.svg"
   xmlns:inkscape="http://www.inkscape.org/namespaces/inkscape"
   xmlns:sodipodi="http://sodipodi.sourceforge.net/DTD/sodipodi-0.dtd"
   xmlns:xlink="http://www.w3.org/1999/xlink"
   xmlns="http://www.w3.org/2000/svg"
   xmlns:svg="http://www.w3.org/2000/svg">
  <sodipodi:namedview
     id="namedview7"
     pagecolor="#ffffff"
     bordercolor="#666666"
     borderopacity="1.0"
     inkscape:pageshadow="2"
     inkscape:pageopacity="0.0"
     inkscape:pagecheckerboard="0"
     inkscape:document-units="mm"
     showgrid="false"
     inkscape:zoom="1.1579931"
     inkscape:cx="283.68046"
     inkscape:cy="99.741531"
     inkscape:window-width="1920"
     inkscape:window-height="1009"
     inkscape:window-x="-8"
     inkscape:window-y="-8"
     inkscape:window-maximized="1"
     inkscape:current-layer="layer1"
     showguides="true"
     inkscape:guide-bbox="true"
     inkscape:object-paths="true"
     inkscape:snap-intersection-paths="true"
     inkscape:snap-smooth-nodes="true"
     inkscape:snap-tangential="false" />
  <defs
     id="defs2">
    <marker
       style="overflow:visible"
       id="Arrow1Mstart"
       refX="0"
       refY="0"
       orient="auto"
       inkscape:stockid="Arrow1Mstart"
       inkscape:isstock="true">
      <path
         transform="matrix(0.4,0,0,0.4,4,0)"
         style="fill:context-stroke;fill-rule:evenodd;stroke:context-stroke;stroke-width:1pt"
         d="M 0,0 5,-5 -12.5,0 5,5 Z"
         id="path2831" />
    </marker>
    <marker
       style="overflow:visible"
       id="Arrow1Mend"
       refX="0"
       refY="0"
       orient="auto"
       inkscape:stockid="Arrow1Mend"
       inkscape:isstock="true">
      <path
         transform="matrix(-0.4,0,0,-0.4,-4,0)"
         style="fill:context-stroke;fill-rule:evenodd;stroke:context-stroke;stroke-width:1pt"
         d="M 0,0 5,-5 -12.5,0 5,5 Z"
         id="path2834" />
    </marker>
    <marker
       style="overflow:visible"
       id="DotL"
       refX="0"
       refY="0"
       orient="auto"
       inkscape:stockid="DotL"
       inkscape:isstock="true">
      <path
         transform="matrix(0.8,0,0,0.8,5.92,0.8)"
         style="fill:context-stroke;fill-rule:evenodd;stroke:context-stroke;stroke-width:1pt"
         d="m -2.5,-1 c 0,2.76 -2.24,5 -5,5 -2.76,0 -5,-2.24 -5,-5 0,-2.76 2.24,-5 5,-5 2.76,0 5,2.24 5,5 z"
         id="path2466" />
    </marker>
    <marker
       style="overflow:visible"
       id="DotM"
       refX="0"
       refY="0"
       orient="auto"
       inkscape:stockid="DotM"
       inkscape:isstock="true">
      <path
         transform="matrix(0.4,0,0,0.4,2.96,0.4)"
         style="fill:context-stroke;fill-rule:evenodd;stroke:context-stroke;stroke-width:1pt"
         d="m -2.5,-1 c 0,2.76 -2.24,5 -5,5 -2.76,0 -5,-2.24 -5,-5 0,-2.76 2.24,-5 5,-5 2.76,0 5,2.24 5,5 z"
         id="path2469" />
    </marker>
    <g
       id="g6260">
      <symbol
         overflow="visible"
         id="symbol4788">
        <path
           style="stroke:none"
           d=""
           id="path1221" />
      </symbol>
      <symbol
         overflow="visible"
         id="symbol8416">
        <path
           style="stroke:none"
           d="M 7.609375,-6.046875 C 7.703125,-6.40625 7.71875,-6.5 8.4375,-6.5 c 0.265625,0 0.34375,0 0.34375,-0.203125 0,-0.109375 -0.109375,-0.109375 -0.140625,-0.109375 -0.28125,0 -1,0.03125 -1.28125,0.03125 -0.28125,0 -0.984375,-0.03125 -1.28125,-0.03125 -0.078125,0 -0.1875,0 -0.1875,0.203125 0,0.109375 0.09375,0.109375 0.28125,0.109375 0.015625,0 0.203125,0 0.375,0.015625 0.1875,0.03125 0.265625,0.03125 0.265625,0.171875 0,0.03125 0,0.046875 -0.03125,0.1875 L 6.1875,-3.703125 H 3.140625 l 0.59375,-2.34375 C 3.8125,-6.40625 3.84375,-6.5 4.5625,-6.5 c 0.265625,0 0.34375,0 0.34375,-0.203125 0,-0.109375 -0.109375,-0.109375 -0.140625,-0.109375 -0.28125,0 -1,0.03125 -1.28125,0.03125 -0.28125,0 -0.984375,-0.03125 -1.28125,-0.03125 -0.078125,0 -0.1875,0 -0.1875,0.203125 0,0.109375 0.09375,0.109375 0.28125,0.109375 0.015625,0 0.203125,0 0.375,0.015625 0.171875,0.03125 0.265625,0.03125 0.265625,0.171875 0,0.03125 0,0.0625 -0.03125,0.1875 L 1.5625,-0.78125 c -0.09375,0.390625 -0.109375,0.46875 -0.90625,0.46875 -0.171875,0 -0.265625,0 -0.265625,0.203125 C 0.390625,0 0.515625,0 0.53125,0 0.8125,0 1.515625,-0.03125 1.796875,-0.03125 2,-0.03125 2.21875,-0.015625 2.4375,-0.015625 2.65625,-0.015625 2.875,0 3.078125,0 3.15625,0 3.28125,0 3.28125,-0.203125 3.28125,-0.3125 3.1875,-0.3125 3,-0.3125 c -0.375,0 -0.640625,0 -0.640625,-0.171875 0,-0.0625 0.015625,-0.109375 0.015625,-0.171875 l 0.6875,-2.734375 h 3.03125 c -0.40625,1.65625 -0.640625,2.609375 -0.6875,2.75 C 5.3125,-0.3125 5.125,-0.3125 4.5,-0.3125 c -0.140625,0 -0.234375,0 -0.234375,0.203125 C 4.265625,0 4.390625,0 4.40625,0 4.6875,0 5.390625,-0.03125 5.671875,-0.03125 5.875,-0.03125 6.09375,-0.015625 6.3125,-0.015625 6.53125,-0.015625 6.75,0 6.953125,0 7.03125,0 7.15625,0 7.15625,-0.203125 7.15625,-0.3125 7.0625,-0.3125 6.875,-0.3125 c -0.359375,0 -0.640625,0 -0.640625,-0.171875 0,-0.0625 0.015625,-0.109375 0.03125,-0.171875 z m 0,0"
           id="path4203" />
      </symbol>
      <symbol
         overflow="visible"
         id="symbol3037">
        <path
           style="stroke:none"
           d=""
           id="path8339" />
      </symbol>
      <symbol
         overflow="visible"
         id="symbol121">
        <path
           style="stroke:none"
           d="m 3.21875,-1.578125 h 2.140625 c 0.09375,0 0.25,0 0.25,-0.15625 0,-0.1875 -0.15625,-0.1875 -0.25,-0.1875 H 3.21875 V -4.0625 c 0,-0.078125 0,-0.25 -0.15625,-0.25 -0.171875,0 -0.171875,0.15625 -0.171875,0.25 v 2.140625 H 0.75 c -0.09375,0 -0.265625,0 -0.265625,0.171875 0,0.171875 0.15625,0.171875 0.265625,0.171875 H 2.890625 V 0.5625 c 0,0.09375 0,0.265625 0.15625,0.265625 0.171875,0 0.171875,-0.171875 0.171875,-0.265625 z m 0,0"
           id="path8511" />
      </symbol>
      <symbol
         overflow="visible"
         id="symbol7102">
        <path
           style="stroke:none"
           d="m 2.328125,-4.4375 c 0,-0.1875 0,-0.1875 -0.203125,-0.1875 -0.453125,0.4375 -1.078125,0.4375 -1.359375,0.4375 v 0.25 c 0.15625,0 0.625,0 1,-0.1875 v 3.546875 c 0,0.234375 0,0.328125 -0.6875,0.328125 H 0.8125 V 0 c 0.125,0 0.984375,-0.03125 1.234375,-0.03125 0.21875,0 1.09375,0.03125 1.25,0.03125 V -0.25 H 3.03125 c -0.703125,0 -0.703125,-0.09375 -0.703125,-0.328125 z m 0,0"
           id="path1836" />
      </symbol>
    </g>
    <g
       id="g4079">
      <symbol
         overflow="visible"
         id="symbol4778">
        <path
           style="stroke:none"
           d=""
           id="path376" />
      </symbol>
      <symbol
         overflow="visible"
         id="symbol5686">
        <path
           style="stroke:none"
           d="M 7.609375,-6.046875 C 7.703125,-6.40625 7.71875,-6.5 8.4375,-6.5 c 0.265625,0 0.34375,0 0.34375,-0.203125 0,-0.109375 -0.109375,-0.109375 -0.140625,-0.109375 -0.28125,0 -1,0.03125 -1.28125,0.03125 -0.28125,0 -0.984375,-0.03125 -1.28125,-0.03125 -0.078125,0 -0.1875,0 -0.1875,0.203125 0,0.109375 0.09375,0.109375 0.28125,0.109375 0.015625,0 0.203125,0 0.375,0.015625 0.1875,0.03125 0.265625,0.03125 0.265625,0.171875 0,0.03125 0,0.046875 -0.03125,0.1875 L 6.1875,-3.703125 H 3.140625 l 0.59375,-2.34375 C 3.8125,-6.40625 3.84375,-6.5 4.5625,-6.5 c 0.265625,0 0.34375,0 0.34375,-0.203125 0,-0.109375 -0.109375,-0.109375 -0.140625,-0.109375 -0.28125,0 -1,0.03125 -1.28125,0.03125 -0.28125,0 -0.984375,-0.03125 -1.28125,-0.03125 -0.078125,0 -0.1875,0 -0.1875,0.203125 0,0.109375 0.09375,0.109375 0.28125,0.109375 0.015625,0 0.203125,0 0.375,0.015625 0.171875,0.03125 0.265625,0.03125 0.265625,0.171875 0,0.03125 0,0.0625 -0.03125,0.1875 L 1.5625,-0.78125 c -0.09375,0.390625 -0.109375,0.46875 -0.90625,0.46875 -0.171875,0 -0.265625,0 -0.265625,0.203125 C 0.390625,0 0.515625,0 0.53125,0 0.8125,0 1.515625,-0.03125 1.796875,-0.03125 2,-0.03125 2.21875,-0.015625 2.4375,-0.015625 2.65625,-0.015625 2.875,0 3.078125,0 3.15625,0 3.28125,0 3.28125,-0.203125 3.28125,-0.3125 3.1875,-0.3125 3,-0.3125 c -0.375,0 -0.640625,0 -0.640625,-0.171875 0,-0.0625 0.015625,-0.109375 0.015625,-0.171875 l 0.6875,-2.734375 h 3.03125 c -0.40625,1.65625 -0.640625,2.609375 -0.6875,2.75 C 5.3125,-0.3125 5.125,-0.3125 4.5,-0.3125 c -0.140625,0 -0.234375,0 -0.234375,0.203125 C 4.265625,0 4.390625,0 4.40625,0 4.6875,0 5.390625,-0.03125 5.671875,-0.03125 5.875,-0.03125 6.09375,-0.015625 6.3125,-0.015625 6.53125,-0.015625 6.75,0 6.953125,0 7.03125,0 7.15625,0 7.15625,-0.203125 7.15625,-0.3125 7.0625,-0.3125 6.875,-0.3125 c -0.359375,0 -0.640625,0 -0.640625,-0.171875 0,-0.0625 0.015625,-0.109375 0.03125,-0.171875 z m 0,0"
           id="path6357" />
      </symbol>
      <symbol
         overflow="visible"
         id="symbol278">
        <path
           style="stroke:none"
           d=""
           id="path4182" />
      </symbol>
      <symbol
         overflow="visible"
         id="symbol306">
        <path
           style="stroke:none"
           d="m 3.21875,-1.578125 h 2.140625 c 0.09375,0 0.25,0 0.25,-0.15625 0,-0.1875 -0.15625,-0.1875 -0.25,-0.1875 H 3.21875 V -4.0625 c 0,-0.078125 0,-0.25 -0.15625,-0.25 -0.171875,0 -0.171875,0.15625 -0.171875,0.25 v 2.140625 H 0.75 c -0.09375,0 -0.265625,0 -0.265625,0.171875 0,0.171875 0.15625,0.171875 0.265625,0.171875 H 2.890625 V 0.5625 c 0,0.09375 0,0.265625 0.15625,0.265625 0.171875,0 0.171875,-0.171875 0.171875,-0.265625 z m 0,0"
           id="path1529" />
      </symbol>
      <symbol
         overflow="visible"
         id="symbol1201">
        <path
           style="stroke:none"
           d="M 3.515625,-1.265625 H 3.28125 c -0.015625,0.15625 -0.09375,0.5625 -0.1875,0.625 C 3.046875,-0.59375 2.515625,-0.59375 2.40625,-0.59375 H 1.125 c 0.734375,-0.640625 0.984375,-0.84375 1.390625,-1.171875 0.515625,-0.40625 1,-0.84375 1,-1.5 0,-0.84375 -0.734375,-1.359375 -1.625,-1.359375 -0.859375,0 -1.453125,0.609375 -1.453125,1.25 0,0.34375 0.296875,0.390625 0.375,0.390625 0.15625,0 0.359375,-0.125 0.359375,-0.375 0,-0.125 -0.046875,-0.375 -0.40625,-0.375 C 0.984375,-4.21875 1.453125,-4.375 1.78125,-4.375 c 0.703125,0 1.0625,0.546875 1.0625,1.109375 0,0.609375 -0.4375,1.078125 -0.65625,1.328125 L 0.515625,-0.265625 C 0.4375,-0.203125 0.4375,-0.1875 0.4375,0 h 2.875 z m 0,0"
           id="path5543" />
      </symbol>
    </g>
  </defs>
  <g
     inkscape:label="Layer 1"
     inkscape:groupmode="layer"
     id="layer1"
     transform="translate(-288.67367,12.334858)">
    <path
       style="opacity:0.3;fill:none;stroke:#000000;stroke-width:0.268111;stroke-linecap:butt;stroke-linejoin:miter;stroke-miterlimit:4;stroke-dasharray:none;stroke-opacity:1;marker-end:url(#Arrow1Mend)"
       d="M 401.41061,28.454868 V 39.069377"
       id="path4868"
       sodipodi:nodetypes="cc" />
    <path
       style="opacity:0.3;fill:none;stroke:#000000;stroke-width:0.268111;stroke-linecap:butt;stroke-linejoin:miter;stroke-miterlimit:4;stroke-dasharray:none;stroke-opacity:1;marker-end:url(#Arrow1Mend)"
       d="M 401.41061,28.454867 V 15.723691"
       id="path4535"
       sodipodi:nodetypes="cc" />
    <path
       style="opacity:0.3;fill:none;stroke:#000000;stroke-width:0.268111;stroke-linecap:butt;stroke-linejoin:miter;stroke-miterlimit:4;stroke-dasharray:none;stroke-opacity:1;marker-mid:url(#Arrow1Mstart)"
       d="m 401.41061,28.454868 2.56215,-3.948446 2.25195,-3.476658"
       id="path1911"
       sodipodi:nodetypes="cc" />
    <path
       style="opacity:0.3;fill:none;stroke:#000000;stroke-width:0.268111;stroke-linecap:butt;stroke-linejoin:miter;stroke-miterlimit:4;stroke-dasharray:none;stroke-opacity:1;marker-mid:url(#Arrow1Mstart)"
       d="m 401.41061,28.454868 -10.53744,1.858035 -9.29764,1.642781"
       id="path1913"
       sodipodi:nodetypes="cc" />
    <path
       style="opacity:0.3;fill:none;stroke:#000000;stroke-width:0.268111;stroke-linecap:butt;stroke-linejoin:miter;stroke-miterlimit:4;stroke-dasharray:none;stroke-opacity:1;marker-mid:url(#Arrow1Mstart)"
       d="m 401.41061,28.454868 8.17138,2.903992 7.19747,2.564975"
       id="path1915"
       sodipodi:nodetypes="cc" />
    <path
       style="opacity:0.3;fill:none;stroke:#000000;stroke-width:0.268111;stroke-linecap:butt;stroke-linejoin:miter;stroke-miterlimit:4;stroke-dasharray:none;stroke-opacity:1;marker-mid:url(#Arrow1Mstart)"
       d="m 401.41061,28.454868 -2.55772,3.941608 -2.26211,3.479818"
       id="path1917"
       sodipodi:nodetypes="cc" />
    <path
       style="opacity:0.3;fill:none;stroke:#000000;stroke-width:0.268111;stroke-linecap:butt;stroke-linejoin:miter;stroke-miterlimit:4;stroke-dasharray:none;stroke-opacity:1;marker-start:url(#DotM);marker-mid:url(#Arrow1Mstart)"
       d="m 401.41061,28.454868 10.5479,-1.859879 9.29279,-1.635217"
       id="path1919"
       sodipodi:nodetypes="cc" />
    <path
       style="opacity:0.3;fill:none;stroke:#000000;stroke-width:0.268111;stroke-linecap:butt;stroke-linejoin:miter;stroke-miterlimit:4;stroke-dasharray:none;stroke-opacity:1;marker-mid:url(#Arrow1Mstart)"
       d="M 401.41061,28.454867 393.1825,25.530713 385.92094,22.95715"
       id="path1921" />
    <path
       id="path9856"
       style="fill:#006400;fill-opacity:0.2;stroke:none;stroke-width:0.267703;stroke-miterlimit:4;stroke-dasharray:none;stroke-opacity:1"
       d="m 438.53982,6.6556713 c 0,6.9877137 -16.62454,12.6523727 -37.13196,12.6523767 -20.50742,-2e-6 -37.13197,-5.664661 -37.13197,-12.6523767 V 34.382641 c 0,6.987711 16.62455,12.652377 37.13197,12.652377 20.50742,-1.1e-5 37.13196,-5.664666 37.13196,-12.652376 0,0 0,-34.71468197 0,-27.7269707 z"
       sodipodi:nodetypes="csccscc" />
    <path
       id="path953"
       style="fill:#006400;fill-opacity:0.2;stroke:#000000;stroke-width:0.268125;stroke-opacity:1"
       d="m 323.45241,-6.2983689 a 17.322341,5.9024272 0 0 1 -17.32234,5.90242679 17.322341,5.9024272 0 0 1 -17.32234,-5.90242679 17.322341,5.9024272 0 0 1 17.32234,-5.9024271 17.322341,5.9024272 0 0 1 17.32234,5.9024271 z" />
    <path
       style="fill:none;stroke:#000000;stroke-width:0.176389;stroke-linecap:butt;stroke-linejoin:miter;stroke-miterlimit:4;stroke-dasharray:none;stroke-opacity:1"
       d="m 309.86984,-12.061599 -3.73977,5.7632301"
       id="path2665"
       sodipodi:nodetypes="cc" />
    <path
       style="fill:none;stroke:#000000;stroke-width:0.267703px;stroke-linecap:butt;stroke-linejoin:miter;stroke-opacity:1"
       d="m 288.80773,-6.2983689 c 0,17.8783629 0,35.7567259 0,53.6350889"
       id="path1234"
       sodipodi:nodetypes="cc" />
    <path
       style="fill:none;stroke:#000000;stroke-width:0.267703px;stroke-linecap:butt;stroke-linejoin:miter;stroke-opacity:1"
       d="M 323.45241,-6.2983689 V 47.33672"
       id="path1316" />
    <path
       style="fill:none;stroke:#000000;stroke-width:0.176389;stroke-linecap:butt;stroke-linejoin:miter;stroke-miterlimit:4;stroke-dasharray:none;stroke-opacity:1"
       d="m 290.74557,-3.5856653 15.3845,-2.7127036"
       id="path1542"
       sodipodi:nodetypes="cc" />
    <path
       style="fill:none;stroke:#000000;stroke-width:0.176389;stroke-linecap:butt;stroke-linejoin:miter;stroke-miterlimit:4;stroke-dasharray:none;stroke-opacity:1"
       d="m 306.13007,-6.2983689 -11.9884,-4.2605091"
       id="path2470"
       sodipodi:nodetypes="cc" />
    <path
       style="fill:none;stroke:#000000;stroke-width:0.176389;stroke-linecap:butt;stroke-linejoin:miter;stroke-miterlimit:4;stroke-dasharray:none;stroke-opacity:1"
       d="m 318.11848,-2.0378599 -11.98841,-4.260509"
       id="path3611"
       sodipodi:nodetypes="cc" />
    <path
       style="fill:none;stroke:#000000;stroke-width:0.176389;stroke-linecap:butt;stroke-linejoin:miter;stroke-miterlimit:4;stroke-dasharray:none;stroke-opacity:1"
       d="m 306.13007,-6.2983689 -3.73977,5.76323016"
       id="path3613"
       sodipodi:nodetypes="cc" />
    <path
       style="fill:none;stroke:#000000;stroke-width:0.176389;stroke-linecap:butt;stroke-linejoin:miter;stroke-miterlimit:4;stroke-dasharray:none;stroke-opacity:1"
       d="m 306.13007,-6.2983689 15.38451,-2.7127033"
       id="path3714"
       sodipodi:nodetypes="cc" />
    <path
       id="path3735"
       style="fill:none;fill-opacity:0.2;stroke:#000000;stroke-width:0.26806;stroke-miterlimit:4;stroke-dasharray:none;stroke-opacity:0.995951"
       d="m 323.45241,47.33672 c 0,3.259819 -7.75548,5.902424 -17.32234,5.902426 -9.56686,0 -17.32234,-2.642606 -17.32234,-5.902426"
       sodipodi:nodetypes="csc" />
    <path
       style="opacity:0.3;fill:none;stroke:#000000;stroke-width:0.268125;stroke-linecap:butt;stroke-linejoin:miter;stroke-miterlimit:4;stroke-dasharray:none;stroke-opacity:1;marker-mid:url(#Arrow1Mend)"
       d="m 306.13007,7.0868097 v 6.7161823 6.716183"
       id="path3780"
       sodipodi:nodetypes="ccc" />
    <path
       style="fill:none;stroke:#000000;stroke-width:0.176389;stroke-linecap:butt;stroke-linejoin:miter;stroke-miterlimit:4;stroke-dasharray:none;stroke-opacity:1"
       d="M 318.11848,-2.0378625 V 51.597227"
       id="path3862" />
    <path
       style="fill:none;stroke:#000000;stroke-width:0.176389;stroke-linecap:butt;stroke-linejoin:miter;stroke-miterlimit:4;stroke-dasharray:none;stroke-opacity:1"
       d="M 290.74557,-3.5856653 V 50.049423"
       id="path3864" />
    <path
       style="opacity:0.3;fill:none;stroke:#000000;stroke-width:0.268125;stroke-linecap:butt;stroke-linejoin:miter;stroke-miterlimit:4;stroke-dasharray:none;stroke-opacity:1;marker-start:url(#Arrow1Mstart)"
       d="m 308.85148,16.325304 -2.72141,4.193871"
       id="path4045"
       sodipodi:nodetypes="cc" />
    <path
       style="opacity:0.3;fill:none;stroke:#000000;stroke-width:0.268125;stroke-linecap:butt;stroke-linejoin:miter;stroke-miterlimit:4;stroke-dasharray:none;stroke-opacity:1;marker-start:url(#Arrow1Mstart)"
       d="m 294.93766,22.492701 11.19241,-1.973526"
       id="path4049"
       sodipodi:nodetypes="cc" />
    <path
       style="opacity:0.3;fill:none;stroke:#000000;stroke-width:0.268125;stroke-linecap:butt;stroke-linejoin:miter;stroke-miterlimit:4;stroke-dasharray:none;stroke-opacity:1;marker-start:url(#Arrow1Mstart)"
       d="m 314.80936,23.603671 -8.67929,-3.084496"
       id="path4053"
       sodipodi:nodetypes="cc" />
    <path
       style="opacity:0.3;fill:none;stroke:#000000;stroke-width:0.268125;stroke-linecap:butt;stroke-linejoin:miter;stroke-miterlimit:4;stroke-dasharray:none;stroke-opacity:1;marker-end:url(#Arrow1Mend)"
       d="m 306.13007,20.519175 -2.71669,4.186608"
       id="path4055"
       sodipodi:nodetypes="cc" />
    <path
       style="opacity:0.3;fill:none;stroke:#000000;stroke-width:0.268111;stroke-linecap:butt;stroke-linejoin:miter;stroke-miterlimit:4;stroke-dasharray:none;stroke-opacity:1;marker-start:url(#DotM);marker-end:url(#Arrow1Mend)"
       d="M 306.13007,20.519175 317.3336,18.543691"
       id="path4057"
       sodipodi:nodetypes="cc" />
    <path
       style="fill:none;stroke:#000000;stroke-width:0.176389;stroke-linecap:butt;stroke-linejoin:miter;stroke-miterlimit:4;stroke-dasharray:none;stroke-opacity:1"
       d="M 302.3903,-0.53513874 V 53.09995"
       id="path4314" />
    <path
       style="opacity:0.3;fill:none;stroke:#000000;stroke-width:0.268125;stroke-linecap:butt;stroke-linejoin:miter;stroke-miterlimit:4;stroke-dasharray:none;stroke-opacity:1;marker-end:url(#Arrow1Mend)"
       d="m 306.13007,20.519174 -8.73954,-3.105911"
       id="path4880" />
    <path
       style="opacity:0.3;fill:none;stroke:#000000;stroke-width:0.268125;stroke-linecap:butt;stroke-linejoin:miter;stroke-miterlimit:4;stroke-dasharray:none;stroke-opacity:1;marker-mid:url(#Arrow1Mend)"
       d="M 306.13007,33.95154 V 27.235357 20.519175"
       id="path3535"
       sodipodi:nodetypes="ccc" />
    <path
       id="path3570"
       style="fill:none;fill-opacity:0.2;stroke:#000000;stroke-width:0.267703;stroke-miterlimit:4;stroke-dasharray:none;stroke-opacity:1"
       d="M 438.53982,6.6556745 A 37.131976,12.652378 0 0 1 401.40786,19.308049 37.131976,12.652378 0 0 1 364.27589,6.6556745 37.131976,12.652378 0 0 1 401.40786,-5.9967004 37.131976,12.652378 0 0 1 438.53982,6.6556745 Z" />
    <path
       style="fill:none;stroke:#000000;stroke-width:0.267703px;stroke-linecap:butt;stroke-linejoin:miter;stroke-opacity:1"
       d="M 364.27589,6.6556697 V 20.519155 34.38264"
       id="path3650"
       sodipodi:nodetypes="ccc" />
    <path
       id="path3732"
       style="fill:none;fill-opacity:0.2;stroke:#000000;stroke-width:0.267703;stroke-miterlimit:4;stroke-dasharray:none;stroke-opacity:1"
       d="m 438.53982,34.382643 c 0,6.987711 -16.62454,12.652371 -37.13196,12.652375 -20.50742,-2e-6 -37.13197,-5.664662 -37.13197,-12.652375"
       sodipodi:nodetypes="csc" />
    <path
       style="fill:none;stroke:#000000;stroke-width:0.267703px;stroke-linecap:butt;stroke-linejoin:miter;stroke-opacity:1"
       d="M 438.53982,6.6556713 V 34.382642"
       id="path3734" />
    <path
       id="path12253"
       style="fill:none;fill-opacity:0.2;stroke:#000000;stroke-width:0.176389;stroke-miterlimit:4;stroke-dasharray:none;stroke-opacity:1"
       d="m 438.53982,20.519155 c 0,6.987711 -16.62454,12.652371 -37.13196,12.652375 -20.50742,-2e-6 -37.13197,-5.664662 -37.13197,-12.652375"
       sodipodi:nodetypes="csc" />
    <path
       style="fill:none;stroke:#000000;stroke-width:0.176389;stroke-linecap:butt;stroke-linejoin:miter;stroke-miterlimit:4;stroke-dasharray:none;stroke-opacity:1"
       d="M 367.32127,39.408877 V 25.545392 11.681906 l 68.66931,-0.409766 v 13.863486 13.863485"
       id="path12392"
       sodipodi:nodetypes="cccccc" />
    <path
       style="fill:none;stroke:#000000;stroke-width:0.176389;stroke-linecap:butt;stroke-linejoin:miter;stroke-miterlimit:4;stroke-dasharray:none;stroke-opacity:1"
       d="m 430.15169,14.665436 c -3.7e-4,20.556478 -57.48948,20.556478 -57.48948,-1.56e-4 z"
       id="path12542"
       sodipodi:nodetypes="cc" />
    <path
       style="fill:none;stroke:#000000;stroke-width:0.176389;stroke-linecap:butt;stroke-linejoin:miter;stroke-miterlimit:4;stroke-dasharray:none;stroke-opacity:1"
       d="m 416.44045,18.228295 c 0,9.802081 -30.0402,9.81018 -30.0412,1.53e-4 z"
       id="path12906"
       sodipodi:nodetypes="cc" />
    <path
       style="fill:none;stroke:#000000;stroke-width:0.176389;stroke-linecap:butt;stroke-linejoin:miter;stroke-miterlimit:4;stroke-dasharray:none;stroke-opacity:1"
       d="m 372.86275,42.475002 c 0,-9.028541 57.29083,-9.028541 57.29083,-0.08278"
       id="path13450"
       sodipodi:nodetypes="cc" />
    <path
       style="fill:none;stroke:#000000;stroke-width:0.176389;stroke-linecap:butt;stroke-linejoin:miter;stroke-miterlimit:4;stroke-dasharray:none;stroke-opacity:1"
       d="m 386.39925,45.958885 c 0,-6.044702 30.0412,-6.044702 30.0412,-0.0036"
       id="path13544"
       sodipodi:nodetypes="cc" />
    <path
       style="fill:none;stroke:#000000;stroke-width:0.176389;stroke-linecap:butt;stroke-linejoin:miter;stroke-miterlimit:4;stroke-dasharray:none;stroke-opacity:1"
       d="m 364.58344,8.291647 73.64463,1.026e-4"
       id="path1368" />
    <path
       style="fill:none;stroke:#000000;stroke-width:0.176389;stroke-linecap:butt;stroke-linejoin:miter;stroke-miterlimit:4;stroke-dasharray:none;stroke-opacity:1"
       d="m 364.5559,5.1047876 73.64391,3.7e-6"
       id="path1370"
       sodipodi:nodetypes="cc" />
    <path
       style="fill:none;stroke:#000000;stroke-width:0.176389;stroke-linecap:butt;stroke-linejoin:miter;stroke-miterlimit:4;stroke-dasharray:none;stroke-opacity:1"
       d="m 366.97781,1.9176078 68.81569,3.275e-4"
       id="path1424"
       sodipodi:nodetypes="cc" />
    <path
       style="fill:none;stroke:#000000;stroke-width:0.176389;stroke-linecap:butt;stroke-linejoin:miter;stroke-miterlimit:4;stroke-dasharray:none;stroke-opacity:1"
       d="m 372.46278,-1.2695016 57.97927,0.037944"
       id="path1426" />
    <path
       style="fill:none;stroke:#000000;stroke-width:0.176389;stroke-linecap:butt;stroke-linejoin:miter;stroke-miterlimit:4;stroke-dasharray:none;stroke-opacity:1"
       d="m 383.65249,-4.4564959 h 35.51073"
       id="path1428" />
    <g
       inkscape:label=""
       transform="translate(206.65957,-17.223582)"
       id="g5320">
      <g
         id="g2483">
        <g
           style="fill:#000000;fill-opacity:1"
           id="g9534">
          <use
             xlink:href="#symbol8416"
             x="91.925003"
             y="81.962997"
             id="use7954"
             width="100%"
             height="100%" />
        </g>
        <g
           style="fill:#000000;fill-opacity:1"
           id="g3172">
          <use
             xlink:href="#symbol121"
             x="101.016"
             y="77.700996"
             id="use7"
             width="100%"
             height="100%" />
        </g>
        <g
           style="fill:#000000;fill-opacity:1"
           id="g8253">
          <use
             xlink:href="#symbol7102"
             x="100.207"
             y="84.619003"
             id="use7709"
             width="100%"
             height="100%" />
        </g>
      </g>
    </g>
    <g
       inkscape:label=""
       transform="translate(301.93735,-17.223582)"
       id="g5575">
      <g
         id="g5562">
        <g
           style="fill:#000000;fill-opacity:1"
           id="g95">
          <use
             xlink:href="#symbol5686"
             x="91.925003"
             y="81.962997"
             id="use3135"
             width="100%"
             height="100%" />
        </g>
        <g
           style="fill:#000000;fill-opacity:1"
           id="g7563">
          <use
             xlink:href="#symbol306"
             x="101.016"
             y="77.700996"
             id="use5568"
             width="100%"
             height="100%" />
        </g>
        <g
           style="fill:#000000;fill-opacity:1"
           id="g8171">
          <use
             xlink:href="#symbol1201"
             x="100.207"
             y="84.619003"
             id="use3680"
             width="100%"
             height="100%" />
        </g>
      </g>
    </g>
  </g>
</svg>
