<?xml version="1.0" encoding="UTF-8" standalone="no"?>
<!-- Created with Inkscape (http://www.inkscape.org/) -->

<svg
   width="269.29648mm"
   height="165.35413mm"
   viewBox="0 0 269.29647 165.35412"
   version="1.1"
   id="svg5"
   inkscape:version="1.1.1 (3bf5ae0d25, 2021-09-20)"
   sodipodi:docname="3d-fit-vertices.svg"
   xmlns:inkscape="http://www.inkscape.org/namespaces/inkscape"
   xmlns:sodipodi="http://sodipodi.sourceforge.net/DTD/sodipodi-0.dtd"
   xmlns:xlink="http://www.w3.org/1999/xlink"
   xmlns="http://www.w3.org/2000/svg"
   xmlns:svg="http://www.w3.org/2000/svg">
  <sodipodi:namedview
     id="namedview7"
     pagecolor="#ffffff"
     bordercolor="#666666"
     borderopacity="1.0"
     inkscape:pageshadow="2"
     inkscape:pageopacity="0.0"
     inkscape:pagecheckerboard="0"
     inkscape:document-units="mm"
     showgrid="false"
     showguides="true"
     inkscape:guide-bbox="true"
     inkscape:snap-intersection-paths="true"
     inkscape:snap-smooth-nodes="true"
     inkscape:zoom="1.2063276"
     inkscape:cx="294.69607"
     inkscape:cy="317.07805"
     inkscape:window-width="1920"
     inkscape:window-height="1009"
     inkscape:window-x="-8"
     inkscape:window-y="-8"
     inkscape:window-maximized="1"
     inkscape:current-layer="layer1"
     inkscape:object-paths="true"
     inkscape:snap-nodes="true" />
  <defs
     id="defs2">
    <marker
       style="overflow:visible"
       id="DotS"
       refX="0"
       refY="0"
       orient="auto"
       inkscape:stockid="DotS"
       inkscape:isstock="true">
      <path
         transform="matrix(0.2,0,0,0.2,1.48,0.2)"
         style="fill:context-stroke;fill-rule:evenodd;stroke:context-stroke;stroke-width:1pt"
         d="m -2.5,-1 c 0,2.76 -2.24,5 -5,5 -2.76,0 -5,-2.24 -5,-5 0,-2.76 2.24,-5 5,-5 2.76,0 5,2.24 5,5 z"
         id="path4466" />
    </marker>
    <marker
       style="overflow:visible"
       id="DotM"
       refX="0"
       refY="0"
       orient="auto"
       inkscape:stockid="DotM"
       inkscape:isstock="true">
      <path
         transform="matrix(0.4,0,0,0.4,2.96,0.4)"
         style="fill:context-stroke;fill-rule:evenodd;stroke:context-stroke;stroke-width:1pt"
         d="m -2.5,-1 c 0,2.76 -2.24,5 -5,5 -2.76,0 -5,-2.24 -5,-5 0,-2.76 2.24,-5 5,-5 2.76,0 5,2.24 5,5 z"
         id="path4463" />
    </marker>
    <marker
       style="overflow:visible"
       id="Arrow1Mstart"
       refX="0"
       refY="0"
       orient="auto"
       inkscape:stockid="Arrow1Mstart"
       inkscape:isstock="true">
      <path
         transform="matrix(0.4,0,0,0.4,4,0)"
         style="fill:context-stroke;fill-rule:evenodd;stroke:context-stroke;stroke-width:1pt"
         d="M 0,0 5,-5 -12.5,0 5,5 Z"
         id="path4405" />
    </marker>
    <marker
       style="overflow:visible"
       id="Arrow1Mend"
       refX="0"
       refY="0"
       orient="auto"
       inkscape:stockid="Arrow1Mend"
       inkscape:isstock="true">
      <path
         transform="matrix(-0.4,0,0,-0.4,-4,0)"
         style="fill:context-stroke;fill-rule:evenodd;stroke:context-stroke;stroke-width:1pt"
         d="M 0,0 5,-5 -12.5,0 5,5 Z"
         id="path4408" />
    </marker>
    <linearGradient
       id="linearGradient4370"
       inkscape:swatch="solid">
      <stop
         style="stop-color:#800000;stop-opacity:1;"
         offset="0"
         id="stop4368" />
    </linearGradient>
    <g
       id="g5542">
      <symbol
         overflow="visible"
         id="symbol7733">
        <path
           style="stroke:none"
           d=""
           id="path5210" />
      </symbol>
      <symbol
         overflow="visible"
         id="symbol7893">
        <path
           style="stroke:none"
           d="m 6.4375,-6.921875 c 0,-0.03125 -0.03125,-0.109375 -0.125,-0.109375 -0.046875,0 -0.046875,0.015625 -0.171875,0.15625 L 5.65625,-6.3125 c -0.25,-0.46875 -0.765625,-0.71875 -1.421875,-0.71875 -1.265625,0 -2.453125,1.15625 -2.453125,2.359375 0,0.796875 0.515625,1.265625 1.03125,1.40625 l 1.0625,0.28125 c 0.375,0.09375 0.921875,0.25 0.921875,1.0625 0,0.890625 -0.8125,1.828125 -1.796875,1.828125 -0.640625,0 -1.75,-0.21875 -1.75,-1.453125 0,-0.234375 0.0625,-0.484375 0.0625,-0.53125 0.015625,-0.046875 0.015625,-0.0625 0.015625,-0.078125 0,-0.09375 -0.0625,-0.109375 -0.109375,-0.109375 -0.046875,0 -0.078125,0.015625 -0.109375,0.046875 -0.03125,0.03125 -0.59375,2.3125 -0.59375,2.34375 0,0.046875 0.046875,0.09375 0.109375,0.09375 0.046875,0 0.0625,-0.015625 0.1875,-0.15625 L 1.296875,-0.5 c 0.421875,0.578125 1.109375,0.71875 1.6875,0.71875 1.359375,0 2.53125,-1.328125 2.53125,-2.5625 0,-0.6875 -0.34375,-1.03125 -0.484375,-1.171875 C 4.796875,-3.734375 4.640625,-3.78125 3.765625,-4 3.53125,-4.0625 3.1875,-4.171875 3.09375,-4.1875 2.828125,-4.28125 2.484375,-4.5625 2.484375,-5.09375 c 0,-0.8125 0.796875,-1.65625 1.75,-1.65625 0.8125,0 1.421875,0.4375 1.421875,1.546875 0,0.3125 -0.03125,0.5 -0.03125,0.5625 0,0 0,0.09375 0.109375,0.09375 0.109375,0 0.125,-0.03125 0.15625,-0.203125 z m 0,0"
           id="path77" />
      </symbol>
      <symbol
         overflow="visible"
         id="symbol4215">
        <path
           style="stroke:none"
           d=""
           id="path5529" />
      </symbol>
      <symbol
         overflow="visible"
         id="symbol3490">
        <path
           style="stroke:none"
           d="m 1.84375,-4.625 c 0,-0.015625 0.03125,-0.109375 0.03125,-0.109375 0,-0.046875 -0.03125,-0.109375 -0.125,-0.109375 -0.140625,0 -0.71875,0.0625 -0.890625,0.078125 -0.046875,0 -0.15625,0.015625 -0.15625,0.15625 0,0.09375 0.109375,0.09375 0.1875,0.09375 0.328125,0 0.328125,0.0625 0.328125,0.109375 0,0.046875 -0.0625,0.328125 -0.109375,0.484375 l -0.15625,0.640625 c -0.0625,0.25 -0.4375,1.765625 -0.453125,1.859375 -0.046875,0.171875 -0.046875,0.265625 -0.046875,0.34375 0,0.703125 0.453125,1.140625 1.03125,1.140625 0.875,0 1.796875,-0.9375 1.796875,-1.96875 0,-0.8125 -0.5625,-1.171875 -1.046875,-1.171875 -0.359375,0 -0.671875,0.203125 -0.875,0.390625 z m -0.359375,4.5 c -0.328125,0 -0.53125,-0.296875 -0.53125,-0.71875 0,-0.25 0.0625,-0.484375 0.265625,-1.28125 C 1.25,-2.25 1.25,-2.265625 1.390625,-2.421875 1.65625,-2.71875 1.96875,-2.875 2.21875,-2.875 c 0.265625,0 0.5,0.203125 0.5,0.671875 0,0.28125 -0.140625,1 -0.359375,1.40625 C 2.1875,-0.453125 1.84375,-0.125 1.484375,-0.125 Z m 0,0"
           id="path95" />
      </symbol>
    </g>
    <g
       id="g8019">
      <symbol
         overflow="visible"
         id="symbol1900">
        <path
           style="stroke:none"
           d=""
           id="path487" />
      </symbol>
      <symbol
         overflow="visible"
         id="symbol9080">
        <path
           style="stroke:none"
           d="m 6.4375,-6.921875 c 0,-0.03125 -0.03125,-0.109375 -0.125,-0.109375 -0.046875,0 -0.046875,0.015625 -0.171875,0.15625 L 5.65625,-6.3125 c -0.25,-0.46875 -0.765625,-0.71875 -1.421875,-0.71875 -1.265625,0 -2.453125,1.15625 -2.453125,2.359375 0,0.796875 0.515625,1.265625 1.03125,1.40625 l 1.0625,0.28125 c 0.375,0.09375 0.921875,0.25 0.921875,1.0625 0,0.890625 -0.8125,1.828125 -1.796875,1.828125 -0.640625,0 -1.75,-0.21875 -1.75,-1.453125 0,-0.234375 0.0625,-0.484375 0.0625,-0.53125 0.015625,-0.046875 0.015625,-0.0625 0.015625,-0.078125 0,-0.09375 -0.0625,-0.109375 -0.109375,-0.109375 -0.046875,0 -0.078125,0.015625 -0.109375,0.046875 -0.03125,0.03125 -0.59375,2.3125 -0.59375,2.34375 0,0.046875 0.046875,0.09375 0.109375,0.09375 0.046875,0 0.0625,-0.015625 0.1875,-0.15625 L 1.296875,-0.5 c 0.421875,0.578125 1.109375,0.71875 1.6875,0.71875 1.359375,0 2.53125,-1.328125 2.53125,-2.5625 0,-0.6875 -0.34375,-1.03125 -0.484375,-1.171875 C 4.796875,-3.734375 4.640625,-3.78125 3.765625,-4 3.53125,-4.0625 3.1875,-4.171875 3.09375,-4.1875 2.828125,-4.28125 2.484375,-4.5625 2.484375,-5.09375 c 0,-0.8125 0.796875,-1.65625 1.75,-1.65625 0.8125,0 1.421875,0.4375 1.421875,1.546875 0,0.3125 -0.03125,0.5 -0.03125,0.5625 0,0 0,0.09375 0.109375,0.09375 0.109375,0 0.125,-0.03125 0.15625,-0.203125 z m 0,0"
           id="path5959" />
      </symbol>
      <symbol
         overflow="visible"
         id="symbol7685">
        <path
           style="stroke:none"
           d=""
           id="path6943" />
      </symbol>
      <symbol
         overflow="visible"
         id="symbol3144">
        <path
           style="stroke:none"
           d="m 3.703125,-2.578125 c 0.03125,-0.09375 0.03125,-0.125 0.03125,-0.140625 0,-0.15625 -0.125,-0.21875 -0.234375,-0.21875 -0.15625,0 -0.296875,0.125 -0.328125,0.265625 -0.109375,-0.1875 -0.34375,-0.40625 -0.71875,-0.40625 -0.859375,0 -1.78125,0.9375 -1.78125,1.9375 0,0.71875 0.484375,1.140625 1.0625,1.140625 0.328125,0 0.625,-0.15625 0.875,-0.375 L 2.453125,0.25 C 2.375,0.546875 2.328125,0.734375 2.0625,0.96875 c -0.3125,0.25 -0.609375,0.25 -0.78125,0.25 -0.3125,0 -0.40625,-0.015625 -0.53125,-0.046875 0.171875,-0.078125 0.21875,-0.25 0.21875,-0.34375 0,-0.171875 -0.125,-0.25 -0.265625,-0.25 C 0.5,0.578125 0.296875,0.734375 0.296875,1 c 0,0.421875 0.609375,0.421875 1,0.421875 1.09375,0 1.546875,-0.5625 1.65625,-0.953125 z M 2.75,-0.921875 c -0.03125,0.09375 -0.03125,0.109375 -0.15625,0.25 C 2.359375,-0.375 2.015625,-0.1875 1.75,-0.1875 c -0.34375,0 -0.515625,-0.3125 -0.515625,-0.671875 0,-0.296875 0.1875,-1.078125 0.375,-1.390625 0.28125,-0.484375 0.609375,-0.625 0.84375,-0.625 0.5,0 0.625,0.515625 0.625,0.59375 0,0.015625 0,0.015625 -0.015625,0.09375 z m 0,0"
           id="path5906" />
      </symbol>
    </g>
    <g
       id="g9133">
      <symbol
         overflow="visible"
         id="symbol3756">
        <path
           style="stroke:none"
           d=""
           id="path1725" />
      </symbol>
      <symbol
         overflow="visible"
         id="symbol4940">
        <path
           style="stroke:none"
           d="m 6.4375,-6.921875 c 0,-0.03125 -0.03125,-0.109375 -0.125,-0.109375 -0.046875,0 -0.046875,0.015625 -0.171875,0.15625 L 5.65625,-6.3125 c -0.25,-0.46875 -0.765625,-0.71875 -1.421875,-0.71875 -1.265625,0 -2.453125,1.15625 -2.453125,2.359375 0,0.796875 0.515625,1.265625 1.03125,1.40625 l 1.0625,0.28125 c 0.375,0.09375 0.921875,0.25 0.921875,1.0625 0,0.890625 -0.8125,1.828125 -1.796875,1.828125 -0.640625,0 -1.75,-0.21875 -1.75,-1.453125 0,-0.234375 0.0625,-0.484375 0.0625,-0.53125 0.015625,-0.046875 0.015625,-0.0625 0.015625,-0.078125 0,-0.09375 -0.0625,-0.109375 -0.109375,-0.109375 -0.046875,0 -0.078125,0.015625 -0.109375,0.046875 -0.03125,0.03125 -0.59375,2.3125 -0.59375,2.34375 0,0.046875 0.046875,0.09375 0.109375,0.09375 0.046875,0 0.0625,-0.015625 0.1875,-0.15625 L 1.296875,-0.5 c 0.421875,0.578125 1.109375,0.71875 1.6875,0.71875 1.359375,0 2.53125,-1.328125 2.53125,-2.5625 0,-0.6875 -0.34375,-1.03125 -0.484375,-1.171875 C 4.796875,-3.734375 4.640625,-3.78125 3.765625,-4 3.53125,-4.0625 3.1875,-4.171875 3.09375,-4.1875 2.828125,-4.28125 2.484375,-4.5625 2.484375,-5.09375 c 0,-0.8125 0.796875,-1.65625 1.75,-1.65625 0.8125,0 1.421875,0.4375 1.421875,1.546875 0,0.3125 -0.03125,0.5 -0.03125,0.5625 0,0 0,0.09375 0.109375,0.09375 0.109375,0 0.125,-0.03125 0.15625,-0.203125 z m 0,0"
           id="path5933" />
      </symbol>
      <symbol
         overflow="visible"
         id="symbol4681">
        <path
           style="stroke:none"
           d=""
           id="path905" />
      </symbol>
      <symbol
         overflow="visible"
         id="symbol9621">
        <path
           style="stroke:none"
           d="m 0.515625,0.84375 c -0.046875,0.203125 -0.0625,0.25 -0.328125,0.25 -0.09375,0 -0.1875,0 -0.1875,0.15625 0,0.078125 0.0625,0.109375 0.09375,0.109375 0.171875,0 0.40625,-0.03125 0.59375,-0.03125 0.234375,0 0.5,0.03125 0.734375,0.03125 0.0625,0 0.140625,-0.03125 0.140625,-0.15625 0,-0.109375 -0.09375,-0.109375 -0.1875,-0.109375 -0.15625,0 -0.34375,0 -0.34375,-0.078125 0,-0.03125 0.0625,-0.21875 0.078125,-0.3125 0.09375,-0.375 0.1875,-0.75 0.265625,-1.046875 0.078125,0.140625 0.296875,0.40625 0.71875,0.40625 0.84375,0 1.78125,-0.9375 1.78125,-1.96875 0,-0.8125 -0.5625,-1.171875 -1.03125,-1.171875 -0.4375,0 -0.8125,0.296875 -1,0.5 -0.109375,-0.40625 -0.5,-0.5 -0.71875,-0.5 -0.265625,0 -0.4375,0.1875 -0.546875,0.375 -0.140625,0.234375 -0.25,0.65625 -0.25,0.703125 0,0.078125 0.09375,0.078125 0.125,0.078125 0.09375,0 0.09375,-0.015625 0.140625,-0.203125 0.109375,-0.40625 0.25,-0.75 0.515625,-0.75 0.1875,0 0.234375,0.15625 0.234375,0.34375 0,0.078125 -0.015625,0.15625 -0.03125,0.203125 z M 1.84375,-2.234375 C 2.25,-2.78125 2.59375,-2.875 2.8125,-2.875 c 0.28125,0 0.515625,0.203125 0.515625,0.671875 0,0.28125 -0.15625,1 -0.359375,1.40625 -0.1875,0.34375 -0.515625,0.671875 -0.875,0.671875 -0.5,0 -0.625,-0.53125 -0.625,-0.609375 0,-0.03125 0.015625,-0.078125 0.015625,-0.109375 z m 0,0"
           id="path4396" />
      </symbol>
    </g>
    <g
       id="g1974">
      <symbol
         overflow="visible"
         id="symbol7323">
        <path
           style="stroke:none"
           d=""
           id="path4808" />
      </symbol>
      <symbol
         overflow="visible"
         id="symbol9272">
        <path
           style="stroke:none"
           d="m 6.4375,-6.921875 c 0,-0.03125 -0.03125,-0.109375 -0.125,-0.109375 -0.046875,0 -0.046875,0.015625 -0.171875,0.15625 L 5.65625,-6.3125 c -0.25,-0.46875 -0.765625,-0.71875 -1.421875,-0.71875 -1.265625,0 -2.453125,1.15625 -2.453125,2.359375 0,0.796875 0.515625,1.265625 1.03125,1.40625 l 1.0625,0.28125 c 0.375,0.09375 0.921875,0.25 0.921875,1.0625 0,0.890625 -0.8125,1.828125 -1.796875,1.828125 -0.640625,0 -1.75,-0.21875 -1.75,-1.453125 0,-0.234375 0.0625,-0.484375 0.0625,-0.53125 0.015625,-0.046875 0.015625,-0.0625 0.015625,-0.078125 0,-0.09375 -0.0625,-0.109375 -0.109375,-0.109375 -0.046875,0 -0.078125,0.015625 -0.109375,0.046875 -0.03125,0.03125 -0.59375,2.3125 -0.59375,2.34375 0,0.046875 0.046875,0.09375 0.109375,0.09375 0.046875,0 0.0625,-0.015625 0.1875,-0.15625 L 1.296875,-0.5 c 0.421875,0.578125 1.109375,0.71875 1.6875,0.71875 1.359375,0 2.53125,-1.328125 2.53125,-2.5625 0,-0.6875 -0.34375,-1.03125 -0.484375,-1.171875 C 4.796875,-3.734375 4.640625,-3.78125 3.765625,-4 3.53125,-4.0625 3.1875,-4.171875 3.09375,-4.1875 2.828125,-4.28125 2.484375,-4.5625 2.484375,-5.09375 c 0,-0.8125 0.796875,-1.65625 1.75,-1.65625 0.8125,0 1.421875,0.4375 1.421875,1.546875 0,0.3125 -0.03125,0.5 -0.03125,0.5625 0,0 0,0.09375 0.109375,0.09375 0.109375,0 0.125,-0.03125 0.15625,-0.203125 z m 0,0"
           id="path2841" />
      </symbol>
      <symbol
         overflow="visible"
         id="symbol8100">
        <path
           style="stroke:none"
           d=""
           id="path8108" />
      </symbol>
      <symbol
         overflow="visible"
         id="symbol2783">
        <path
           style="stroke:none"
           d="M 3.875,-2.625 C 3.90625,-2.71875 3.90625,-2.734375 3.90625,-2.78125 3.90625,-2.921875 3.796875,-3 3.671875,-3 3.59375,-3 3.46875,-2.96875 3.390625,-2.84375 3.359375,-2.796875 3.3125,-2.578125 3.28125,-2.4375 L 3.125,-1.859375 c -0.03125,0.171875 -0.25,1.046875 -0.28125,1.125 0,0 -0.3125,0.609375 -0.84375,0.609375 -0.484375,0 -0.484375,-0.453125 -0.484375,-0.578125 0,-0.375 0.15625,-0.8125 0.375,-1.359375 C 1.96875,-2.28125 2,-2.359375 2,-2.484375 2,-2.8125 1.71875,-3.078125 1.34375,-3.078125 0.640625,-3.078125 0.328125,-2.125 0.328125,-2 c 0,0.078125 0.09375,0.078125 0.125,0.078125 0.09375,0 0.09375,-0.03125 0.125,-0.109375 C 0.75,-2.609375 1.046875,-2.875 1.328125,-2.875 1.4375,-2.875 1.5,-2.796875 1.5,-2.640625 c 0,0.171875 -0.0625,0.3125 -0.09375,0.40625 C 1.0625,-1.375 1,-1.125 1,-0.8125 1,-0.703125 1,-0.375 1.265625,-0.140625 1.484375,0.03125 1.78125,0.0625 1.96875,0.0625 2.25,0.0625 2.5,-0.03125 2.71875,-0.25 2.640625,0.140625 2.5625,0.4375 2.265625,0.78125 2.078125,1 1.796875,1.21875 1.421875,1.21875 c -0.046875,0 -0.375,0 -0.515625,-0.21875 0.375,-0.046875 0.375,-0.375 0.375,-0.390625 0,-0.21875 -0.203125,-0.265625 -0.265625,-0.265625 -0.171875,0 -0.40625,0.140625 -0.40625,0.46875 0,0.34375 0.328125,0.609375 0.828125,0.609375 C 2.140625,1.421875 3,0.875 3.21875,0 Z m 0,0"
           id="path4359" />
      </symbol>
    </g>
    <g
       id="g4224">
      <symbol
         overflow="visible"
         id="symbol9693">
        <path
           style="stroke:none"
           d=""
           id="path5498" />
      </symbol>
      <symbol
         overflow="visible"
         id="symbol8077">
        <path
           style="stroke:none"
           d="M 3.71875,-3.765625 C 3.53125,-4.140625 3.25,-4.40625 2.796875,-4.40625 c -1.15625,0 -2.390625,1.46875 -2.390625,2.921875 0,0.9375 0.546875,1.59375 1.3125,1.59375 0.203125,0 0.703125,-0.046875 1.296875,-0.75 0.078125,0.421875 0.4375,0.75 0.90625,0.75 0.359375,0 0.578125,-0.234375 0.75,-0.546875 0.15625,-0.359375 0.296875,-0.96875 0.296875,-0.984375 0,-0.109375 -0.09375,-0.109375 -0.125,-0.109375 -0.09375,0 -0.109375,0.046875 -0.140625,0.1875 -0.171875,0.640625 -0.34375,1.234375 -0.75,1.234375 -0.28125,0 -0.296875,-0.265625 -0.296875,-0.453125 0,-0.21875 0.015625,-0.3125 0.125,-0.75 C 3.890625,-1.71875 3.90625,-1.828125 4,-2.203125 L 4.359375,-3.59375 c 0.0625,-0.28125 0.0625,-0.296875 0.0625,-0.34375 0,-0.171875 -0.109375,-0.265625 -0.28125,-0.265625 -0.25,0 -0.390625,0.21875 -0.421875,0.4375 z M 3.078125,-1.1875 C 3.015625,-1 3.015625,-0.984375 2.875,-0.8125 2.4375,-0.265625 2.03125,-0.109375 1.75,-0.109375 c -0.5,0 -0.640625,-0.546875 -0.640625,-0.9375 0,-0.5 0.3125,-1.71875 0.546875,-2.1875 0.3125,-0.578125 0.75,-0.953125 1.15625,-0.953125 0.640625,0 0.78125,0.8125 0.78125,0.875 0,0.0625 -0.015625,0.125 -0.03125,0.171875 z m 0,0"
           id="path5938" />
      </symbol>
    </g>
    <g
       id="g9239">
      <symbol
         overflow="visible"
         id="symbol1370">
        <path
           style="stroke:none"
           d=""
           id="path6833" />
      </symbol>
      <symbol
         overflow="visible"
         id="symbol8655">
        <path
           style="stroke:none"
           d="m 2.375,-6.8125 c 0,0 0,-0.109375 -0.125,-0.109375 -0.21875,0 -0.953125,0.078125 -1.21875,0.109375 -0.078125,0 -0.1875,0.015625 -0.1875,0.1875 0,0.125 0.09375,0.125 0.25,0.125 0.46875,0 0.484375,0.0625 0.484375,0.171875 0,0.0625 -0.078125,0.40625 -0.125,0.609375 l -0.828125,3.25 c -0.109375,0.5 -0.15625,0.671875 -0.15625,1.015625 0,0.9375 0.53125,1.5625 1.265625,1.5625 1.171875,0 2.40625,-1.484375 2.40625,-2.921875 0,-0.90625 -0.53125,-1.59375 -1.328125,-1.59375 -0.453125,0 -0.875,0.296875 -1.171875,0.59375 z M 1.453125,-3.046875 C 1.5,-3.265625 1.5,-3.28125 1.59375,-3.390625 2.078125,-4.03125 2.53125,-4.1875 2.796875,-4.1875 c 0.359375,0 0.625,0.296875 0.625,0.9375 0,0.59375 -0.328125,1.734375 -0.515625,2.109375 -0.328125,0.671875 -0.78125,1.03125 -1.171875,1.03125 -0.34375,0 -0.671875,-0.265625 -0.671875,-1 0,-0.203125 0,-0.390625 0.15625,-1.015625 z m 0,0"
           id="path7007" />
      </symbol>
      <symbol
         overflow="visible"
         id="symbol1">
        <path
           style="stroke:none"
           d="m 3.953125,-3.78125 c -0.171875,0 -0.296875,0 -0.4375,0.125 -0.171875,0.15625 -0.1875,0.328125 -0.1875,0.390625 0,0.25 0.1875,0.359375 0.375,0.359375 0.28125,0 0.546875,-0.25 0.546875,-0.640625 0,-0.484375 -0.46875,-0.859375 -1.171875,-0.859375 -1.34375,0 -2.671875,1.421875 -2.671875,2.828125 0,0.90625 0.578125,1.6875 1.625,1.6875 1.421875,0 2.25,-1.0625 2.25,-1.171875 0,-0.0625 -0.046875,-0.140625 -0.109375,-0.140625 -0.0625,0 -0.078125,0.03125 -0.140625,0.109375 -0.78125,0.984375 -1.875,0.984375 -1.984375,0.984375 -0.625,0 -0.90625,-0.484375 -0.90625,-1.09375 0,-0.40625 0.203125,-1.375 0.546875,-1.984375 0.3125,-0.578125 0.859375,-1 1.40625,-1 0.328125,0 0.71875,0.125 0.859375,0.40625 z m 0,0"
           id="path8067" />
      </symbol>
      <symbol
         overflow="visible"
         id="symbol9130">
        <path
           style="stroke:none"
           d="m 5.140625,-6.8125 c 0,0 0,-0.109375 -0.125,-0.109375 -0.15625,0 -1.09375,0.09375 -1.265625,0.109375 -0.078125,0.015625 -0.140625,0.0625 -0.140625,0.1875 0,0.125 0.09375,0.125 0.234375,0.125 0.484375,0 0.5,0.0625 0.5,0.171875 L 4.3125,-6.125 3.71875,-3.765625 C 3.53125,-4.140625 3.25,-4.40625 2.796875,-4.40625 c -1.15625,0 -2.390625,1.46875 -2.390625,2.921875 0,0.9375 0.546875,1.59375 1.3125,1.59375 0.203125,0 0.703125,-0.046875 1.296875,-0.75 0.078125,0.421875 0.4375,0.75 0.90625,0.75 0.359375,0 0.578125,-0.234375 0.75,-0.546875 0.15625,-0.359375 0.296875,-0.96875 0.296875,-0.984375 0,-0.109375 -0.09375,-0.109375 -0.125,-0.109375 -0.09375,0 -0.109375,0.046875 -0.140625,0.1875 -0.171875,0.640625 -0.34375,1.234375 -0.75,1.234375 -0.28125,0 -0.296875,-0.265625 -0.296875,-0.453125 0,-0.25 0.015625,-0.3125 0.046875,-0.484375 z m -2.0625,5.625 C 3.015625,-1 3.015625,-0.984375 2.875,-0.8125 2.4375,-0.265625 2.03125,-0.109375 1.75,-0.109375 c -0.5,0 -0.640625,-0.546875 -0.640625,-0.9375 0,-0.5 0.3125,-1.71875 0.546875,-2.1875 0.3125,-0.578125 0.75,-0.953125 1.15625,-0.953125 0.640625,0 0.78125,0.8125 0.78125,0.875 0,0.0625 -0.015625,0.125 -0.03125,0.171875 z m 0,0"
           id="path4048" />
      </symbol>
      <symbol
         overflow="visible"
         id="symbol4264">
        <path
           style="stroke:none"
           d="m 1.859375,-2.296875 c 0.296875,0 1.03125,-0.03125 1.53125,-0.234375 0.703125,-0.296875 0.75,-0.890625 0.75,-1.03125 0,-0.4375 -0.375,-0.84375 -1.0625,-0.84375 -1.109375,0 -2.625,0.96875 -2.625,2.71875 0,1.015625 0.59375,1.796875 1.578125,1.796875 1.421875,0 2.25,-1.0625 2.25,-1.171875 0,-0.0625 -0.046875,-0.140625 -0.109375,-0.140625 -0.0625,0 -0.078125,0.03125 -0.140625,0.109375 -0.78125,0.984375 -1.875,0.984375 -1.984375,0.984375 -0.78125,0 -0.875,-0.84375 -0.875,-1.15625 0,-0.125 0.015625,-0.421875 0.15625,-1.03125 z m -0.46875,-0.21875 C 1.78125,-4.03125 2.8125,-4.1875 3.078125,-4.1875 c 0.453125,0 0.734375,0.296875 0.734375,0.625 0,1.046875 -1.59375,1.046875 -2.015625,1.046875 z m 0,0"
           id="path2986" />
      </symbol>
      <symbol
         overflow="visible"
         id="symbol2105">
        <path
           style="stroke:none"
           d="m 3.65625,-3.984375 h 0.859375 c 0.203125,0 0.296875,0 0.296875,-0.203125 0,-0.109375 -0.09375,-0.109375 -0.265625,-0.109375 H 3.71875 L 3.921875,-5.4375 c 0.046875,-0.203125 0.1875,-0.90625 0.25,-1.03125 0.078125,-0.1875 0.25,-0.34375 0.46875,-0.34375 0.03125,0 0.296875,0 0.484375,0.1875 -0.4375,0.03125 -0.546875,0.390625 -0.546875,0.53125 0,0.234375 0.1875,0.359375 0.375,0.359375 C 5.21875,-5.734375 5.5,-5.96875 5.5,-6.34375 c 0,-0.453125 -0.453125,-0.6875 -0.859375,-0.6875 -0.34375,0 -0.96875,0.1875 -1.265625,1.171875 -0.0625,0.203125 -0.09375,0.3125 -0.328125,1.5625 h -0.6875 c -0.203125,0 -0.3125,0 -0.3125,0.1875 0,0.125 0.09375,0.125 0.28125,0.125 h 0.65625 L 2.25,-0.046875 c -0.1875,0.96875 -0.359375,1.875 -0.875,1.875 -0.046875,0 -0.28125,0 -0.484375,-0.1875 C 1.359375,1.609375 1.453125,1.25 1.453125,1.109375 1.453125,0.875 1.265625,0.75 1.078125,0.75 0.8125,0.75 0.53125,0.984375 0.53125,1.359375 c 0,0.4375 0.4375,0.6875 0.84375,0.6875 0.546875,0 0.953125,-0.59375 1.125,-0.96875 0.328125,-0.625 0.546875,-1.828125 0.5625,-1.90625 z m 0,0"
           id="path7569" />
      </symbol>
      <symbol
         overflow="visible"
         id="symbol2680">
        <path
           style="stroke:none"
           d="M 4.6875,-3.765625 C 4.703125,-3.8125 4.71875,-3.875 4.71875,-3.9375 c 0,-0.171875 -0.109375,-0.265625 -0.28125,-0.265625 -0.09375,0 -0.375,0.0625 -0.40625,0.421875 -0.1875,-0.359375 -0.53125,-0.625 -0.9375,-0.625 -1.125,0 -2.359375,1.390625 -2.359375,2.828125 0,0.984375 0.59375,1.578125 1.3125,1.578125 0.59375,0 1.0625,-0.46875 1.15625,-0.578125 L 3.21875,-0.5625 C 3.015625,0.3125 2.890625,0.734375 2.890625,0.75 2.84375,0.84375 2.515625,1.828125 1.453125,1.828125 1.265625,1.828125 0.9375,1.8125 0.65625,1.71875 0.953125,1.640625 1.0625,1.375 1.0625,1.203125 c 0,-0.15625 -0.109375,-0.34375 -0.375,-0.34375 -0.21875,0 -0.53125,0.171875 -0.53125,0.578125 0,0.40625 0.359375,0.609375 1.3125,0.609375 1.25,0 1.96875,-0.78125 2.125,-1.375 z M 3.40625,-1.28125 C 3.34375,-1.015625 3.109375,-0.765625 2.890625,-0.578125 2.6875,-0.40625 2.375,-0.21875 2.078125,-0.21875 c -0.5,0 -0.640625,-0.515625 -0.640625,-0.921875 0,-0.46875 0.28125,-1.65625 0.5625,-2.15625 C 2.265625,-3.78125 2.6875,-4.1875 3.109375,-4.1875 c 0.65625,0 0.796875,0.8125 0.796875,0.859375 0,0.046875 -0.015625,0.109375 -0.03125,0.140625 z m 0,0"
           id="path4624" />
      </symbol>
      <symbol
         overflow="visible"
         id="symbol9753">
        <path
           style="stroke:none"
           d="m 2.859375,-6.8125 c 0,0 0,-0.109375 -0.125,-0.109375 -0.234375,0 -0.953125,0.078125 -1.21875,0.109375 -0.078125,0 -0.1875,0.015625 -0.1875,0.1875 0,0.125 0.09375,0.125 0.234375,0.125 0.484375,0 0.5,0.0625 0.5,0.171875 L 2.03125,-6.125 0.59375,-0.390625 c -0.046875,0.140625 -0.046875,0.15625 -0.046875,0.21875 0,0.234375 0.203125,0.28125 0.296875,0.28125 0.15625,0 0.3125,-0.125 0.359375,-0.265625 l 0.1875,-0.75 0.21875,-0.890625 C 1.671875,-2.03125 1.734375,-2.25 1.78125,-2.46875 1.796875,-2.53125 1.890625,-2.859375 1.890625,-2.921875 1.921875,-3.015625 2.234375,-3.5625 2.578125,-3.84375 2.796875,-4 3.09375,-4.1875 3.53125,-4.1875 c 0.421875,0 0.53125,0.34375 0.53125,0.703125 0,0.53125 -0.375,1.625 -0.609375,2.234375 C 3.375,-1.03125 3.3125,-0.90625 3.3125,-0.703125 c 0,0.46875 0.359375,0.8125 0.828125,0.8125 0.9375,0 1.296875,-1.453125 1.296875,-1.53125 0,-0.109375 -0.078125,-0.109375 -0.109375,-0.109375 -0.109375,0 -0.109375,0.03125 -0.15625,0.1875 -0.140625,0.53125 -0.46875,1.234375 -1.015625,1.234375 -0.171875,0 -0.234375,-0.09375 -0.234375,-0.328125 0,-0.25 0.078125,-0.484375 0.171875,-0.703125 0.15625,-0.4375 0.609375,-1.625 0.609375,-2.203125 0,-0.640625 -0.390625,-1.0625 -1.140625,-1.0625 -0.625,0 -1.109375,0.3125 -1.484375,0.765625 z m 0,0"
           id="path6739" />
      </symbol>
      <symbol
         overflow="visible"
         id="symbol4481">
        <path
           style="stroke:none"
           d="m 2.828125,-6.234375 c 0,-0.203125 -0.140625,-0.359375 -0.359375,-0.359375 -0.28125,0 -0.546875,0.265625 -0.546875,0.53125 0,0.1875 0.140625,0.359375 0.375,0.359375 0.234375,0 0.53125,-0.234375 0.53125,-0.53125 z m -0.75,3.75 c 0.109375,-0.28125 0.109375,-0.3125 0.21875,-0.578125 0.078125,-0.203125 0.125,-0.34375 0.125,-0.53125 0,-0.4375 -0.3125,-0.8125 -0.8125,-0.8125 -0.9375,0 -1.3125,1.453125 -1.3125,1.53125 0,0.109375 0.09375,0.109375 0.109375,0.109375 0.109375,0 0.109375,-0.03125 0.15625,-0.1875 0.28125,-0.9375 0.671875,-1.234375 1.015625,-1.234375 0.078125,0 0.25,0 0.25,0.3125 0,0.21875 -0.078125,0.421875 -0.109375,0.53125 -0.078125,0.25 -0.53125,1.40625 -0.6875,1.84375 -0.109375,0.25 -0.234375,0.578125 -0.234375,0.796875 0,0.46875 0.34375,0.8125 0.8125,0.8125 0.9375,0 1.3125,-1.4375 1.3125,-1.53125 0,-0.109375 -0.09375,-0.109375 -0.125,-0.109375 -0.09375,0 -0.09375,0.03125 -0.140625,0.1875 -0.1875,0.625 -0.515625,1.234375 -1.015625,1.234375 -0.171875,0 -0.25,-0.09375 -0.25,-0.328125 0,-0.25 0.0625,-0.390625 0.296875,-1 z m 0,0"
           id="path812" />
      </symbol>
      <symbol
         overflow="visible"
         id="symbol8963">
        <path
           style="stroke:none"
           d="m 3.953125,-6.234375 c 0,-0.1875 -0.140625,-0.359375 -0.375,-0.359375 -0.234375,0 -0.53125,0.234375 -0.53125,0.53125 0,0.203125 0.140625,0.359375 0.375,0.359375 0.265625,0 0.53125,-0.265625 0.53125,-0.53125 z m -2,6.734375 c -0.1875,0.75 -0.671875,1.328125 -1.21875,1.328125 -0.0625,0 -0.21875,0 -0.390625,-0.09375 0.296875,-0.0625 0.4375,-0.328125 0.4375,-0.53125 0,-0.15625 -0.109375,-0.34375 -0.375,-0.34375 -0.25,0 -0.53125,0.203125 -0.53125,0.5625 0,0.40625 0.390625,0.625 0.875,0.625 0.703125,0 1.625,-0.53125 1.875,-1.515625 L 3.53125,-3.125 c 0.0625,-0.1875 0.0625,-0.328125 0.0625,-0.359375 0,-0.578125 -0.421875,-0.921875 -0.921875,-0.921875 -1.015625,0 -1.578125,1.453125 -1.578125,1.53125 0,0.109375 0.09375,0.109375 0.109375,0.109375 0.09375,0 0.109375,-0.015625 0.1875,-0.203125 0.25,-0.609375 0.703125,-1.21875 1.25,-1.21875 0.140625,0 0.3125,0.046875 0.3125,0.453125 0,0.234375 -0.015625,0.34375 -0.0625,0.515625 z m 0,0"
           id="path2750" />
      </symbol>
      <symbol
         overflow="visible"
         id="symbol5802">
        <path
           style="stroke:none"
           d="m 2.859375,-6.8125 c 0,0 0,-0.109375 -0.125,-0.109375 -0.234375,0 -0.953125,0.078125 -1.21875,0.109375 -0.078125,0 -0.1875,0.015625 -0.1875,0.1875 0,0.125 0.09375,0.125 0.234375,0.125 0.484375,0 0.5,0.0625 0.5,0.171875 L 2.03125,-6.125 0.59375,-0.390625 c -0.046875,0.140625 -0.046875,0.15625 -0.046875,0.21875 0,0.234375 0.203125,0.28125 0.296875,0.28125 0.125,0 0.265625,-0.09375 0.328125,-0.203125 0.046875,-0.09375 0.5,-1.9375 0.5625,-2.1875 0.34375,0.03125 1.15625,0.1875 1.15625,0.84375 0,0.078125 0,0.109375 -0.03125,0.21875 -0.015625,0.109375 -0.03125,0.234375 -0.03125,0.34375 0,0.578125 0.390625,0.984375 0.90625,0.984375 0.296875,0 0.578125,-0.15625 0.796875,-0.53125 0.25,-0.4375 0.359375,-0.984375 0.359375,-1 0,-0.109375 -0.09375,-0.109375 -0.125,-0.109375 -0.09375,0 -0.109375,0.046875 -0.140625,0.1875 -0.203125,0.71875 -0.421875,1.234375 -0.859375,1.234375 -0.203125,0 -0.328125,-0.109375 -0.328125,-0.46875 0,-0.171875 0.046875,-0.40625 0.078125,-0.5625 C 3.5625,-1.3125 3.5625,-1.34375 3.5625,-1.453125 3.5625,-2.09375 2.9375,-2.375 2.078125,-2.5 2.390625,-2.671875 2.71875,-2.984375 2.9375,-3.234375 3.421875,-3.765625 3.875,-4.1875 4.359375,-4.1875 c 0.0625,0 0.078125,0 0.09375,0.015625 0.125,0.015625 0.125,0.015625 0.21875,0.078125 0.015625,0 0.015625,0.015625 0.03125,0.03125 -0.46875,0.03125 -0.5625,0.421875 -0.5625,0.546875 0,0.15625 0.109375,0.34375 0.375,0.34375 0.265625,0 0.546875,-0.21875 0.546875,-0.609375 0,-0.296875 -0.234375,-0.625 -0.671875,-0.625 -0.28125,0 -0.734375,0.078125 -1.453125,0.875 -0.34375,0.375 -0.734375,0.78125 -1.109375,0.921875 z m 0,0"
           id="path9512" />
      </symbol>
      <symbol
         overflow="visible"
         id="symbol6762">
        <path
           style="stroke:none"
           d="m 2.578125,-6.8125 c 0,0 0,-0.109375 -0.140625,-0.109375 -0.21875,0 -0.953125,0.078125 -1.21875,0.109375 -0.078125,0 -0.1875,0.015625 -0.1875,0.203125 0,0.109375 0.109375,0.109375 0.25,0.109375 0.484375,0 0.5,0.09375 0.5,0.171875 L 1.75,-6.125 0.484375,-1.140625 C 0.453125,-1.03125 0.4375,-0.96875 0.4375,-0.8125 c 0,0.578125 0.4375,0.921875 0.90625,0.921875 0.328125,0 0.578125,-0.203125 0.75,-0.5625 0.171875,-0.375 0.296875,-0.953125 0.296875,-0.96875 0,-0.109375 -0.09375,-0.109375 -0.125,-0.109375 -0.09375,0 -0.109375,0.046875 -0.125,0.1875 C 1.96875,-0.703125 1.78125,-0.109375 1.375,-0.109375 c -0.296875,0 -0.296875,-0.3125 -0.296875,-0.453125 0,-0.25 0.015625,-0.296875 0.0625,-0.484375 z m 0,0"
           id="path3581" />
      </symbol>
      <symbol
         overflow="visible"
         id="symbol5614">
        <path
           style="stroke:none"
           d="m 0.875,-0.59375 c -0.03125,0.15625 -0.09375,0.390625 -0.09375,0.4375 0,0.171875 0.140625,0.265625 0.296875,0.265625 0.125,0 0.296875,-0.078125 0.375,-0.28125 0,-0.015625 0.125,-0.484375 0.1875,-0.734375 l 0.21875,-0.890625 C 1.90625,-2.03125 1.96875,-2.25 2.03125,-2.46875 c 0.03125,-0.171875 0.109375,-0.46875 0.125,-0.5 0.140625,-0.3125 0.671875,-1.21875 1.625,-1.21875 0.453125,0 0.53125,0.375 0.53125,0.703125 0,0.25 -0.0625,0.53125 -0.140625,0.828125 L 3.890625,-1.5 3.6875,-0.75 c -0.03125,0.203125 -0.125,0.546875 -0.125,0.59375 0,0.171875 0.140625,0.265625 0.28125,0.265625 0.3125,0 0.375,-0.25 0.453125,-0.5625 0.140625,-0.5625 0.515625,-2.015625 0.59375,-2.40625 0.03125,-0.125 0.5625,-1.328125 1.65625,-1.328125 0.421875,0 0.53125,0.34375 0.53125,0.703125 0,0.5625 -0.421875,1.703125 -0.625,2.234375 -0.078125,0.234375 -0.125,0.34375 -0.125,0.546875 0,0.46875 0.34375,0.8125 0.8125,0.8125 0.9375,0 1.3125,-1.453125 1.3125,-1.53125 0,-0.109375 -0.09375,-0.109375 -0.125,-0.109375 -0.09375,0 -0.09375,0.03125 -0.140625,0.1875 -0.15625,0.53125 -0.46875,1.234375 -1.015625,1.234375 -0.171875,0 -0.25,-0.09375 -0.25,-0.328125 0,-0.25 0.09375,-0.484375 0.1875,-0.703125 0.1875,-0.53125 0.609375,-1.625 0.609375,-2.203125 0,-0.640625 -0.40625,-1.0625 -1.15625,-1.0625 -0.734375,0 -1.25,0.4375 -1.625,0.96875 0,-0.125 -0.03125,-0.46875 -0.3125,-0.703125 -0.25,-0.21875 -0.5625,-0.265625 -0.8125,-0.265625 -0.90625,0 -1.390625,0.640625 -1.5625,0.875 -0.046875,-0.578125 -0.46875,-0.875 -0.921875,-0.875 -0.453125,0 -0.640625,0.390625 -0.734375,0.5625 -0.171875,0.359375 -0.296875,0.9375 -0.296875,0.96875 0,0.109375 0.09375,0.109375 0.109375,0.109375 0.109375,0 0.109375,-0.015625 0.171875,-0.234375 0.171875,-0.703125 0.375,-1.1875 0.734375,-1.1875 0.15625,0 0.296875,0.078125 0.296875,0.453125 0,0.21875 -0.03125,0.328125 -0.15625,0.84375 z m 0,0"
           id="path9953" />
      </symbol>
      <symbol
         overflow="visible"
         id="symbol4127">
        <path
           style="stroke:none"
           d="m 0.875,-0.59375 c -0.03125,0.15625 -0.09375,0.390625 -0.09375,0.4375 0,0.171875 0.140625,0.265625 0.296875,0.265625 0.125,0 0.296875,-0.078125 0.375,-0.28125 0,-0.015625 0.125,-0.484375 0.1875,-0.734375 l 0.21875,-0.890625 C 1.90625,-2.03125 1.96875,-2.25 2.03125,-2.46875 c 0.03125,-0.171875 0.109375,-0.46875 0.125,-0.5 0.140625,-0.3125 0.671875,-1.21875 1.625,-1.21875 0.453125,0 0.53125,0.375 0.53125,0.703125 0,0.609375 -0.484375,1.890625 -0.640625,2.3125 C 3.578125,-0.9375 3.5625,-0.8125 3.5625,-0.703125 c 0,0.46875 0.359375,0.8125 0.828125,0.8125 0.9375,0 1.296875,-1.453125 1.296875,-1.53125 0,-0.109375 -0.078125,-0.109375 -0.109375,-0.109375 -0.109375,0 -0.109375,0.03125 -0.15625,0.1875 -0.203125,0.671875 -0.53125,1.234375 -1.015625,1.234375 -0.171875,0 -0.234375,-0.09375 -0.234375,-0.328125 0,-0.25 0.078125,-0.484375 0.171875,-0.703125 0.1875,-0.53125 0.609375,-1.625 0.609375,-2.203125 0,-0.65625 -0.421875,-1.0625 -1.140625,-1.0625 -0.90625,0 -1.390625,0.640625 -1.5625,0.875 -0.046875,-0.5625 -0.453125,-0.875 -0.921875,-0.875 -0.453125,0 -0.640625,0.390625 -0.734375,0.5625 C 0.421875,-3.5 0.296875,-2.90625 0.296875,-2.875 c 0,0.109375 0.09375,0.109375 0.109375,0.109375 0.109375,0 0.109375,-0.015625 0.171875,-0.234375 0.171875,-0.703125 0.375,-1.1875 0.734375,-1.1875 0.1875,0 0.296875,0.125 0.296875,0.453125 0,0.21875 -0.03125,0.328125 -0.15625,0.84375 z m 0,0"
           id="path2326" />
      </symbol>
      <symbol
         overflow="visible"
         id="symbol7244">
        <path
           style="stroke:none"
           d="m 4.671875,-2.71875 c 0,-1.046875 -0.6875,-1.6875 -1.59375,-1.6875 -1.328125,0 -2.671875,1.421875 -2.671875,2.828125 0,0.984375 0.671875,1.6875 1.59375,1.6875 1.328125,0 2.671875,-1.375 2.671875,-2.828125 z m -2.65625,2.609375 c -0.4375,0 -0.875,-0.3125 -0.875,-1.09375 0,-0.484375 0.265625,-1.5625 0.578125,-2.0625 0.5,-0.765625 1.078125,-0.921875 1.359375,-0.921875 0.578125,0 0.875,0.484375 0.875,1.078125 0,0.390625 -0.203125,1.4375 -0.578125,2.078125 -0.359375,0.578125 -0.90625,0.921875 -1.359375,0.921875 z m 0,0"
           id="path5426" />
      </symbol>
      <symbol
         overflow="visible"
         id="symbol8439">
        <path
           style="stroke:none"
           d="M 0.453125,1.21875 C 0.375,1.5625 0.34375,1.625 -0.09375,1.625 c -0.109375,0 -0.21875,0 -0.21875,0.1875 0,0.078125 0.046875,0.125 0.125,0.125 0.265625,0 0.5625,-0.03125 0.828125,-0.03125 0.34375,0 0.671875,0.03125 1,0.03125 0.046875,0 0.171875,0 0.171875,-0.203125 C 1.8125,1.625 1.71875,1.625 1.578125,1.625 c -0.5,0 -0.5,-0.0625 -0.5,-0.15625 0,-0.125 0.421875,-1.75 0.484375,-2 0.125,0.296875 0.40625,0.640625 0.921875,0.640625 1.15625,0 2.40625,-1.453125 2.40625,-2.921875 0,-0.9375 -0.578125,-1.59375 -1.328125,-1.59375 -0.5,0 -0.984375,0.359375 -1.3125,0.75 -0.09375,-0.546875 -0.53125,-0.75 -0.890625,-0.75 -0.46875,0 -0.65625,0.390625 -0.734375,0.5625 C 0.4375,-3.5 0.3125,-2.90625 0.3125,-2.875 c 0,0.109375 0.09375,0.109375 0.109375,0.109375 0.109375,0 0.109375,-0.015625 0.171875,-0.234375 0.171875,-0.703125 0.375,-1.1875 0.734375,-1.1875 0.171875,0 0.3125,0.078125 0.3125,0.453125 0,0.234375 -0.03125,0.34375 -0.078125,0.515625 z m 1.75,-4.328125 C 2.265625,-3.375 2.546875,-3.65625 2.71875,-3.8125 c 0.359375,-0.296875 0.640625,-0.375 0.8125,-0.375 0.390625,0 0.640625,0.34375 0.640625,0.9375 0,0.59375 -0.328125,1.734375 -0.515625,2.109375 -0.34375,0.703125 -0.8125,1.03125 -1.1875,1.03125 C 1.8125,-0.109375 1.6875,-0.9375 1.6875,-1 c 0,-0.015625 0,-0.03125 0.03125,-0.15625 z m 0,0"
           id="path5012" />
      </symbol>
    </g>
    <g
       id="g9788">
      <symbol
         overflow="visible"
         id="symbol3143">
        <path
           style="stroke:none"
           d=""
           id="path7176" />
      </symbol>
      <symbol
         overflow="visible"
         id="symbol2034">
        <path
           style="stroke:none"
           d="m 2.375,-6.8125 c 0,0 0,-0.109375 -0.125,-0.109375 -0.21875,0 -0.953125,0.078125 -1.21875,0.109375 -0.078125,0 -0.1875,0.015625 -0.1875,0.1875 0,0.125 0.09375,0.125 0.25,0.125 0.46875,0 0.484375,0.0625 0.484375,0.171875 0,0.0625 -0.078125,0.40625 -0.125,0.609375 l -0.828125,3.25 c -0.109375,0.5 -0.15625,0.671875 -0.15625,1.015625 0,0.9375 0.53125,1.5625 1.265625,1.5625 1.171875,0 2.40625,-1.484375 2.40625,-2.921875 0,-0.90625 -0.53125,-1.59375 -1.328125,-1.59375 -0.453125,0 -0.875,0.296875 -1.171875,0.59375 z M 1.453125,-3.046875 C 1.5,-3.265625 1.5,-3.28125 1.59375,-3.390625 2.078125,-4.03125 2.53125,-4.1875 2.796875,-4.1875 c 0.359375,0 0.625,0.296875 0.625,0.9375 0,0.59375 -0.328125,1.734375 -0.515625,2.109375 -0.328125,0.671875 -0.78125,1.03125 -1.171875,1.03125 -0.34375,0 -0.671875,-0.265625 -0.671875,-1 0,-0.203125 0,-0.390625 0.15625,-1.015625 z m 0,0"
           id="path935" />
      </symbol>
    </g>
    <g
       id="g9640">
      <symbol
         overflow="visible"
         id="symbol1207">
        <path
           style="stroke:none"
           d=""
           id="path6125" />
      </symbol>
      <symbol
         overflow="visible"
         id="symbol3961">
        <path
           style="stroke:none"
           d="m 3.953125,-3.78125 c -0.171875,0 -0.296875,0 -0.4375,0.125 -0.171875,0.15625 -0.1875,0.328125 -0.1875,0.390625 0,0.25 0.1875,0.359375 0.375,0.359375 0.28125,0 0.546875,-0.25 0.546875,-0.640625 0,-0.484375 -0.46875,-0.859375 -1.171875,-0.859375 -1.34375,0 -2.671875,1.421875 -2.671875,2.828125 0,0.90625 0.578125,1.6875 1.625,1.6875 1.421875,0 2.25,-1.0625 2.25,-1.171875 0,-0.0625 -0.046875,-0.140625 -0.109375,-0.140625 -0.0625,0 -0.078125,0.03125 -0.140625,0.109375 -0.78125,0.984375 -1.875,0.984375 -1.984375,0.984375 -0.625,0 -0.90625,-0.484375 -0.90625,-1.09375 0,-0.40625 0.203125,-1.375 0.546875,-1.984375 0.3125,-0.578125 0.859375,-1 1.40625,-1 0.328125,0 0.71875,0.125 0.859375,0.40625 z m 0,0"
           id="path648" />
      </symbol>
    </g>
    <g
       id="g7013">
      <symbol
         overflow="visible"
         id="symbol5853">
        <path
           style="stroke:none"
           d=""
           id="path5970" />
      </symbol>
      <symbol
         overflow="visible"
         id="symbol5017">
        <path
           style="stroke:none"
           d="m 5.140625,-6.8125 c 0,0 0,-0.109375 -0.125,-0.109375 -0.15625,0 -1.09375,0.09375 -1.265625,0.109375 -0.078125,0.015625 -0.140625,0.0625 -0.140625,0.1875 0,0.125 0.09375,0.125 0.234375,0.125 0.484375,0 0.5,0.0625 0.5,0.171875 L 4.3125,-6.125 3.71875,-3.765625 C 3.53125,-4.140625 3.25,-4.40625 2.796875,-4.40625 c -1.15625,0 -2.390625,1.46875 -2.390625,2.921875 0,0.9375 0.546875,1.59375 1.3125,1.59375 0.203125,0 0.703125,-0.046875 1.296875,-0.75 0.078125,0.421875 0.4375,0.75 0.90625,0.75 0.359375,0 0.578125,-0.234375 0.75,-0.546875 0.15625,-0.359375 0.296875,-0.96875 0.296875,-0.984375 0,-0.109375 -0.09375,-0.109375 -0.125,-0.109375 -0.09375,0 -0.109375,0.046875 -0.140625,0.1875 -0.171875,0.640625 -0.34375,1.234375 -0.75,1.234375 -0.28125,0 -0.296875,-0.265625 -0.296875,-0.453125 0,-0.25 0.015625,-0.3125 0.046875,-0.484375 z m -2.0625,5.625 C 3.015625,-1 3.015625,-0.984375 2.875,-0.8125 2.4375,-0.265625 2.03125,-0.109375 1.75,-0.109375 c -0.5,0 -0.640625,-0.546875 -0.640625,-0.9375 0,-0.5 0.3125,-1.71875 0.546875,-2.1875 0.3125,-0.578125 0.75,-0.953125 1.15625,-0.953125 0.640625,0 0.78125,0.8125 0.78125,0.875 0,0.0625 -0.015625,0.125 -0.03125,0.171875 z m 0,0"
           id="path3411" />
      </symbol>
    </g>
    <g
       id="g8945">
      <symbol
         overflow="visible"
         id="symbol6641">
        <path
           style="stroke:none"
           d=""
           id="path7634" />
      </symbol>
      <symbol
         overflow="visible"
         id="symbol2281">
        <path
           style="stroke:none"
           d="m 1.859375,-2.296875 c 0.296875,0 1.03125,-0.03125 1.53125,-0.234375 0.703125,-0.296875 0.75,-0.890625 0.75,-1.03125 0,-0.4375 -0.375,-0.84375 -1.0625,-0.84375 -1.109375,0 -2.625,0.96875 -2.625,2.71875 0,1.015625 0.59375,1.796875 1.578125,1.796875 1.421875,0 2.25,-1.0625 2.25,-1.171875 0,-0.0625 -0.046875,-0.140625 -0.109375,-0.140625 -0.0625,0 -0.078125,0.03125 -0.140625,0.109375 -0.78125,0.984375 -1.875,0.984375 -1.984375,0.984375 -0.78125,0 -0.875,-0.84375 -0.875,-1.15625 0,-0.125 0.015625,-0.421875 0.15625,-1.03125 z m -0.46875,-0.21875 C 1.78125,-4.03125 2.8125,-4.1875 3.078125,-4.1875 c 0.453125,0 0.734375,0.296875 0.734375,0.625 0,1.046875 -1.59375,1.046875 -2.015625,1.046875 z m 0,0"
           id="path701" />
      </symbol>
    </g>
    <g
       id="g6780">
      <symbol
         overflow="visible"
         id="symbol2433">
        <path
           style="stroke:none"
           d=""
           id="path1600" />
      </symbol>
      <symbol
         overflow="visible"
         id="symbol37">
        <path
           style="stroke:none"
           d="m 3.65625,-3.984375 h 0.859375 c 0.203125,0 0.296875,0 0.296875,-0.203125 0,-0.109375 -0.09375,-0.109375 -0.265625,-0.109375 H 3.71875 L 3.921875,-5.4375 c 0.046875,-0.203125 0.1875,-0.90625 0.25,-1.03125 0.078125,-0.1875 0.25,-0.34375 0.46875,-0.34375 0.03125,0 0.296875,0 0.484375,0.1875 -0.4375,0.03125 -0.546875,0.390625 -0.546875,0.53125 0,0.234375 0.1875,0.359375 0.375,0.359375 C 5.21875,-5.734375 5.5,-5.96875 5.5,-6.34375 c 0,-0.453125 -0.453125,-0.6875 -0.859375,-0.6875 -0.34375,0 -0.96875,0.1875 -1.265625,1.171875 -0.0625,0.203125 -0.09375,0.3125 -0.328125,1.5625 h -0.6875 c -0.203125,0 -0.3125,0 -0.3125,0.1875 0,0.125 0.09375,0.125 0.28125,0.125 h 0.65625 L 2.25,-0.046875 c -0.1875,0.96875 -0.359375,1.875 -0.875,1.875 -0.046875,0 -0.28125,0 -0.484375,-0.1875 C 1.359375,1.609375 1.453125,1.25 1.453125,1.109375 1.453125,0.875 1.265625,0.75 1.078125,0.75 0.8125,0.75 0.53125,0.984375 0.53125,1.359375 c 0,0.4375 0.4375,0.6875 0.84375,0.6875 0.546875,0 0.953125,-0.59375 1.125,-0.96875 0.328125,-0.625 0.546875,-1.828125 0.5625,-1.90625 z m 0,0"
           id="path4233" />
      </symbol>
    </g>
    <g
       id="g103">
      <symbol
         overflow="visible"
         id="symbol2559">
        <path
           style="stroke:none"
           d=""
           id="path4349" />
      </symbol>
      <symbol
         overflow="visible"
         id="symbol4739">
        <path
           style="stroke:none"
           d="M 4.6875,-3.765625 C 4.703125,-3.8125 4.71875,-3.875 4.71875,-3.9375 c 0,-0.171875 -0.109375,-0.265625 -0.28125,-0.265625 -0.09375,0 -0.375,0.0625 -0.40625,0.421875 -0.1875,-0.359375 -0.53125,-0.625 -0.9375,-0.625 -1.125,0 -2.359375,1.390625 -2.359375,2.828125 0,0.984375 0.59375,1.578125 1.3125,1.578125 0.59375,0 1.0625,-0.46875 1.15625,-0.578125 L 3.21875,-0.5625 C 3.015625,0.3125 2.890625,0.734375 2.890625,0.75 2.84375,0.84375 2.515625,1.828125 1.453125,1.828125 1.265625,1.828125 0.9375,1.8125 0.65625,1.71875 0.953125,1.640625 1.0625,1.375 1.0625,1.203125 c 0,-0.15625 -0.109375,-0.34375 -0.375,-0.34375 -0.21875,0 -0.53125,0.171875 -0.53125,0.578125 0,0.40625 0.359375,0.609375 1.3125,0.609375 1.25,0 1.96875,-0.78125 2.125,-1.375 z M 3.40625,-1.28125 C 3.34375,-1.015625 3.109375,-0.765625 2.890625,-0.578125 2.6875,-0.40625 2.375,-0.21875 2.078125,-0.21875 c -0.5,0 -0.640625,-0.515625 -0.640625,-0.921875 0,-0.46875 0.28125,-1.65625 0.5625,-2.15625 C 2.265625,-3.78125 2.6875,-4.1875 3.109375,-4.1875 c 0.65625,0 0.796875,0.8125 0.796875,0.859375 0,0.046875 -0.015625,0.109375 -0.03125,0.140625 z m 0,0"
           id="path9594" />
      </symbol>
    </g>
    <g
       id="g7671">
      <symbol
         overflow="visible"
         id="symbol5024">
        <path
           style="stroke:none"
           d=""
           id="path4188" />
      </symbol>
      <symbol
         overflow="visible"
         id="symbol4119">
        <path
           style="stroke:none"
           d="m 2.859375,-6.8125 c 0,0 0,-0.109375 -0.125,-0.109375 -0.234375,0 -0.953125,0.078125 -1.21875,0.109375 -0.078125,0 -0.1875,0.015625 -0.1875,0.1875 0,0.125 0.09375,0.125 0.234375,0.125 0.484375,0 0.5,0.0625 0.5,0.171875 L 2.03125,-6.125 0.59375,-0.390625 c -0.046875,0.140625 -0.046875,0.15625 -0.046875,0.21875 0,0.234375 0.203125,0.28125 0.296875,0.28125 0.15625,0 0.3125,-0.125 0.359375,-0.265625 l 0.1875,-0.75 0.21875,-0.890625 C 1.671875,-2.03125 1.734375,-2.25 1.78125,-2.46875 1.796875,-2.53125 1.890625,-2.859375 1.890625,-2.921875 1.921875,-3.015625 2.234375,-3.5625 2.578125,-3.84375 2.796875,-4 3.09375,-4.1875 3.53125,-4.1875 c 0.421875,0 0.53125,0.34375 0.53125,0.703125 0,0.53125 -0.375,1.625 -0.609375,2.234375 C 3.375,-1.03125 3.3125,-0.90625 3.3125,-0.703125 c 0,0.46875 0.359375,0.8125 0.828125,0.8125 0.9375,0 1.296875,-1.453125 1.296875,-1.53125 0,-0.109375 -0.078125,-0.109375 -0.109375,-0.109375 -0.109375,0 -0.109375,0.03125 -0.15625,0.1875 -0.140625,0.53125 -0.46875,1.234375 -1.015625,1.234375 -0.171875,0 -0.234375,-0.09375 -0.234375,-0.328125 0,-0.25 0.078125,-0.484375 0.171875,-0.703125 0.15625,-0.4375 0.609375,-1.625 0.609375,-2.203125 0,-0.640625 -0.390625,-1.0625 -1.140625,-1.0625 -0.625,0 -1.109375,0.3125 -1.484375,0.765625 z m 0,0"
           id="path5663" />
      </symbol>
    </g>
    <g
       id="g2474">
      <symbol
         overflow="visible"
         id="symbol2162">
        <path
           style="stroke:none"
           d=""
           id="path5068" />
      </symbol>
      <symbol
         overflow="visible"
         id="symbol9672">
        <path
           style="stroke:none"
           d="m 2.828125,-6.234375 c 0,-0.203125 -0.140625,-0.359375 -0.359375,-0.359375 -0.28125,0 -0.546875,0.265625 -0.546875,0.53125 0,0.1875 0.140625,0.359375 0.375,0.359375 0.234375,0 0.53125,-0.234375 0.53125,-0.53125 z m -0.75,3.75 c 0.109375,-0.28125 0.109375,-0.3125 0.21875,-0.578125 0.078125,-0.203125 0.125,-0.34375 0.125,-0.53125 0,-0.4375 -0.3125,-0.8125 -0.8125,-0.8125 -0.9375,0 -1.3125,1.453125 -1.3125,1.53125 0,0.109375 0.09375,0.109375 0.109375,0.109375 0.109375,0 0.109375,-0.03125 0.15625,-0.1875 0.28125,-0.9375 0.671875,-1.234375 1.015625,-1.234375 0.078125,0 0.25,0 0.25,0.3125 0,0.21875 -0.078125,0.421875 -0.109375,0.53125 -0.078125,0.25 -0.53125,1.40625 -0.6875,1.84375 -0.109375,0.25 -0.234375,0.578125 -0.234375,0.796875 0,0.46875 0.34375,0.8125 0.8125,0.8125 0.9375,0 1.3125,-1.4375 1.3125,-1.53125 0,-0.109375 -0.09375,-0.109375 -0.125,-0.109375 -0.09375,0 -0.09375,0.03125 -0.140625,0.1875 -0.1875,0.625 -0.515625,1.234375 -1.015625,1.234375 -0.171875,0 -0.25,-0.09375 -0.25,-0.328125 0,-0.25 0.0625,-0.390625 0.296875,-1 z m 0,0"
           id="path4147" />
      </symbol>
    </g>
    <g
       id="g8648">
      <symbol
         overflow="visible"
         id="symbol3197">
        <path
           style="stroke:none"
           d=""
           id="path446" />
      </symbol>
      <symbol
         overflow="visible"
         id="symbol2614">
        <path
           style="stroke:none"
           d="m 3.953125,-6.234375 c 0,-0.1875 -0.140625,-0.359375 -0.375,-0.359375 -0.234375,0 -0.53125,0.234375 -0.53125,0.53125 0,0.203125 0.140625,0.359375 0.375,0.359375 0.265625,0 0.53125,-0.265625 0.53125,-0.53125 z m -2,6.734375 c -0.1875,0.75 -0.671875,1.328125 -1.21875,1.328125 -0.0625,0 -0.21875,0 -0.390625,-0.09375 0.296875,-0.0625 0.4375,-0.328125 0.4375,-0.53125 0,-0.15625 -0.109375,-0.34375 -0.375,-0.34375 -0.25,0 -0.53125,0.203125 -0.53125,0.5625 0,0.40625 0.390625,0.625 0.875,0.625 0.703125,0 1.625,-0.53125 1.875,-1.515625 L 3.53125,-3.125 c 0.0625,-0.1875 0.0625,-0.328125 0.0625,-0.359375 0,-0.578125 -0.421875,-0.921875 -0.921875,-0.921875 -1.015625,0 -1.578125,1.453125 -1.578125,1.53125 0,0.109375 0.09375,0.109375 0.109375,0.109375 0.09375,0 0.109375,-0.015625 0.1875,-0.203125 0.25,-0.609375 0.703125,-1.21875 1.25,-1.21875 0.140625,0 0.3125,0.046875 0.3125,0.453125 0,0.234375 -0.015625,0.34375 -0.0625,0.515625 z m 0,0"
           id="path2042" />
      </symbol>
    </g>
    <g
       id="g7313">
      <symbol
         overflow="visible"
         id="symbol5600">
        <path
           style="stroke:none"
           d=""
           id="path5968" />
      </symbol>
      <symbol
         overflow="visible"
         id="symbol7064">
        <path
           style="stroke:none"
           d="m 2.859375,-6.8125 c 0,0 0,-0.109375 -0.125,-0.109375 -0.234375,0 -0.953125,0.078125 -1.21875,0.109375 -0.078125,0 -0.1875,0.015625 -0.1875,0.1875 0,0.125 0.09375,0.125 0.234375,0.125 0.484375,0 0.5,0.0625 0.5,0.171875 L 2.03125,-6.125 0.59375,-0.390625 c -0.046875,0.140625 -0.046875,0.15625 -0.046875,0.21875 0,0.234375 0.203125,0.28125 0.296875,0.28125 0.125,0 0.265625,-0.09375 0.328125,-0.203125 0.046875,-0.09375 0.5,-1.9375 0.5625,-2.1875 0.34375,0.03125 1.15625,0.1875 1.15625,0.84375 0,0.078125 0,0.109375 -0.03125,0.21875 -0.015625,0.109375 -0.03125,0.234375 -0.03125,0.34375 0,0.578125 0.390625,0.984375 0.90625,0.984375 0.296875,0 0.578125,-0.15625 0.796875,-0.53125 0.25,-0.4375 0.359375,-0.984375 0.359375,-1 0,-0.109375 -0.09375,-0.109375 -0.125,-0.109375 -0.09375,0 -0.109375,0.046875 -0.140625,0.1875 -0.203125,0.71875 -0.421875,1.234375 -0.859375,1.234375 -0.203125,0 -0.328125,-0.109375 -0.328125,-0.46875 0,-0.171875 0.046875,-0.40625 0.078125,-0.5625 C 3.5625,-1.3125 3.5625,-1.34375 3.5625,-1.453125 3.5625,-2.09375 2.9375,-2.375 2.078125,-2.5 2.390625,-2.671875 2.71875,-2.984375 2.9375,-3.234375 3.421875,-3.765625 3.875,-4.1875 4.359375,-4.1875 c 0.0625,0 0.078125,0 0.09375,0.015625 0.125,0.015625 0.125,0.015625 0.21875,0.078125 0.015625,0 0.015625,0.015625 0.03125,0.03125 -0.46875,0.03125 -0.5625,0.421875 -0.5625,0.546875 0,0.15625 0.109375,0.34375 0.375,0.34375 0.265625,0 0.546875,-0.21875 0.546875,-0.609375 0,-0.296875 -0.234375,-0.625 -0.671875,-0.625 -0.28125,0 -0.734375,0.078125 -1.453125,0.875 -0.34375,0.375 -0.734375,0.78125 -1.109375,0.921875 z m 0,0"
           id="path2010" />
      </symbol>
    </g>
    <g
       id="g2161">
      <symbol
         overflow="visible"
         id="symbol9777">
        <path
           style="stroke:none"
           d=""
           id="path6541" />
      </symbol>
      <symbol
         overflow="visible"
         id="symbol4813">
        <path
           style="stroke:none"
           d="m 2.578125,-6.8125 c 0,0 0,-0.109375 -0.140625,-0.109375 -0.21875,0 -0.953125,0.078125 -1.21875,0.109375 -0.078125,0 -0.1875,0.015625 -0.1875,0.203125 0,0.109375 0.109375,0.109375 0.25,0.109375 0.484375,0 0.5,0.09375 0.5,0.171875 L 1.75,-6.125 0.484375,-1.140625 C 0.453125,-1.03125 0.4375,-0.96875 0.4375,-0.8125 c 0,0.578125 0.4375,0.921875 0.90625,0.921875 0.328125,0 0.578125,-0.203125 0.75,-0.5625 0.171875,-0.375 0.296875,-0.953125 0.296875,-0.96875 0,-0.109375 -0.09375,-0.109375 -0.125,-0.109375 -0.09375,0 -0.109375,0.046875 -0.125,0.1875 C 1.96875,-0.703125 1.78125,-0.109375 1.375,-0.109375 c -0.296875,0 -0.296875,-0.3125 -0.296875,-0.453125 0,-0.25 0.015625,-0.296875 0.0625,-0.484375 z m 0,0"
           id="path8019" />
      </symbol>
    </g>
    <g
       id="g649">
      <symbol
         overflow="visible"
         id="symbol6510">
        <path
           style="stroke:none"
           d=""
           id="path7451" />
      </symbol>
      <symbol
         overflow="visible"
         id="symbol9705">
        <path
           style="stroke:none"
           d="m 0.875,-0.59375 c -0.03125,0.15625 -0.09375,0.390625 -0.09375,0.4375 0,0.171875 0.140625,0.265625 0.296875,0.265625 0.125,0 0.296875,-0.078125 0.375,-0.28125 0,-0.015625 0.125,-0.484375 0.1875,-0.734375 l 0.21875,-0.890625 C 1.90625,-2.03125 1.96875,-2.25 2.03125,-2.46875 c 0.03125,-0.171875 0.109375,-0.46875 0.125,-0.5 0.140625,-0.3125 0.671875,-1.21875 1.625,-1.21875 0.453125,0 0.53125,0.375 0.53125,0.703125 0,0.25 -0.0625,0.53125 -0.140625,0.828125 L 3.890625,-1.5 3.6875,-0.75 c -0.03125,0.203125 -0.125,0.546875 -0.125,0.59375 0,0.171875 0.140625,0.265625 0.28125,0.265625 0.3125,0 0.375,-0.25 0.453125,-0.5625 0.140625,-0.5625 0.515625,-2.015625 0.59375,-2.40625 0.03125,-0.125 0.5625,-1.328125 1.65625,-1.328125 0.421875,0 0.53125,0.34375 0.53125,0.703125 0,0.5625 -0.421875,1.703125 -0.625,2.234375 -0.078125,0.234375 -0.125,0.34375 -0.125,0.546875 0,0.46875 0.34375,0.8125 0.8125,0.8125 0.9375,0 1.3125,-1.453125 1.3125,-1.53125 0,-0.109375 -0.09375,-0.109375 -0.125,-0.109375 -0.09375,0 -0.09375,0.03125 -0.140625,0.1875 -0.15625,0.53125 -0.46875,1.234375 -1.015625,1.234375 -0.171875,0 -0.25,-0.09375 -0.25,-0.328125 0,-0.25 0.09375,-0.484375 0.1875,-0.703125 0.1875,-0.53125 0.609375,-1.625 0.609375,-2.203125 0,-0.640625 -0.40625,-1.0625 -1.15625,-1.0625 -0.734375,0 -1.25,0.4375 -1.625,0.96875 0,-0.125 -0.03125,-0.46875 -0.3125,-0.703125 -0.25,-0.21875 -0.5625,-0.265625 -0.8125,-0.265625 -0.90625,0 -1.390625,0.640625 -1.5625,0.875 -0.046875,-0.578125 -0.46875,-0.875 -0.921875,-0.875 -0.453125,0 -0.640625,0.390625 -0.734375,0.5625 -0.171875,0.359375 -0.296875,0.9375 -0.296875,0.96875 0,0.109375 0.09375,0.109375 0.109375,0.109375 0.109375,0 0.109375,-0.015625 0.171875,-0.234375 0.171875,-0.703125 0.375,-1.1875 0.734375,-1.1875 0.15625,0 0.296875,0.078125 0.296875,0.453125 0,0.21875 -0.03125,0.328125 -0.15625,0.84375 z m 0,0"
           id="path9622" />
      </symbol>
    </g>
    <g
       id="g6191">
      <symbol
         overflow="visible"
         id="symbol3190">
        <path
           style="stroke:none"
           d=""
           id="path676" />
      </symbol>
      <symbol
         overflow="visible"
         id="symbol1022">
        <path
           style="stroke:none"
           d="m 0.875,-0.59375 c -0.03125,0.15625 -0.09375,0.390625 -0.09375,0.4375 0,0.171875 0.140625,0.265625 0.296875,0.265625 0.125,0 0.296875,-0.078125 0.375,-0.28125 0,-0.015625 0.125,-0.484375 0.1875,-0.734375 l 0.21875,-0.890625 C 1.90625,-2.03125 1.96875,-2.25 2.03125,-2.46875 c 0.03125,-0.171875 0.109375,-0.46875 0.125,-0.5 0.140625,-0.3125 0.671875,-1.21875 1.625,-1.21875 0.453125,0 0.53125,0.375 0.53125,0.703125 0,0.609375 -0.484375,1.890625 -0.640625,2.3125 C 3.578125,-0.9375 3.5625,-0.8125 3.5625,-0.703125 c 0,0.46875 0.359375,0.8125 0.828125,0.8125 0.9375,0 1.296875,-1.453125 1.296875,-1.53125 0,-0.109375 -0.078125,-0.109375 -0.109375,-0.109375 -0.109375,0 -0.109375,0.03125 -0.15625,0.1875 -0.203125,0.671875 -0.53125,1.234375 -1.015625,1.234375 -0.171875,0 -0.234375,-0.09375 -0.234375,-0.328125 0,-0.25 0.078125,-0.484375 0.171875,-0.703125 0.1875,-0.53125 0.609375,-1.625 0.609375,-2.203125 0,-0.65625 -0.421875,-1.0625 -1.140625,-1.0625 -0.90625,0 -1.390625,0.640625 -1.5625,0.875 -0.046875,-0.5625 -0.453125,-0.875 -0.921875,-0.875 -0.453125,0 -0.640625,0.390625 -0.734375,0.5625 C 0.421875,-3.5 0.296875,-2.90625 0.296875,-2.875 c 0,0.109375 0.09375,0.109375 0.109375,0.109375 0.109375,0 0.109375,-0.015625 0.171875,-0.234375 0.171875,-0.703125 0.375,-1.1875 0.734375,-1.1875 0.1875,0 0.296875,0.125 0.296875,0.453125 0,0.21875 -0.03125,0.328125 -0.15625,0.84375 z m 0,0"
           id="path7851" />
      </symbol>
    </g>
    <g
       id="g5093">
      <symbol
         overflow="visible"
         id="symbol199">
        <path
           style="stroke:none"
           d=""
           id="path9037" />
      </symbol>
      <symbol
         overflow="visible"
         id="symbol3171">
        <path
           style="stroke:none"
           d="m 4.671875,-2.71875 c 0,-1.046875 -0.6875,-1.6875 -1.59375,-1.6875 -1.328125,0 -2.671875,1.421875 -2.671875,2.828125 0,0.984375 0.671875,1.6875 1.59375,1.6875 1.328125,0 2.671875,-1.375 2.671875,-2.828125 z m -2.65625,2.609375 c -0.4375,0 -0.875,-0.3125 -0.875,-1.09375 0,-0.484375 0.265625,-1.5625 0.578125,-2.0625 0.5,-0.765625 1.078125,-0.921875 1.359375,-0.921875 0.578125,0 0.875,0.484375 0.875,1.078125 0,0.390625 -0.203125,1.4375 -0.578125,2.078125 -0.359375,0.578125 -0.90625,0.921875 -1.359375,0.921875 z m 0,0"
           id="path6443" />
      </symbol>
    </g>
    <g
       id="g5833">
      <symbol
         overflow="visible"
         id="symbol979">
        <path
           style="stroke:none"
           d=""
           id="path26845" />
      </symbol>
      <symbol
         overflow="visible"
         id="symbol2915">
        <path
           style="stroke:none"
           d="M 0.453125,1.21875 C 0.375,1.5625 0.34375,1.625 -0.09375,1.625 c -0.109375,0 -0.21875,0 -0.21875,0.1875 0,0.078125 0.046875,0.125 0.125,0.125 0.265625,0 0.5625,-0.03125 0.828125,-0.03125 0.34375,0 0.671875,0.03125 1,0.03125 0.046875,0 0.171875,0 0.171875,-0.203125 C 1.8125,1.625 1.71875,1.625 1.578125,1.625 c -0.5,0 -0.5,-0.0625 -0.5,-0.15625 0,-0.125 0.421875,-1.75 0.484375,-2 0.125,0.296875 0.40625,0.640625 0.921875,0.640625 1.15625,0 2.40625,-1.453125 2.40625,-2.921875 0,-0.9375 -0.578125,-1.59375 -1.328125,-1.59375 -0.5,0 -0.984375,0.359375 -1.3125,0.75 -0.09375,-0.546875 -0.53125,-0.75 -0.890625,-0.75 -0.46875,0 -0.65625,0.390625 -0.734375,0.5625 C 0.4375,-3.5 0.3125,-2.90625 0.3125,-2.875 c 0,0.109375 0.09375,0.109375 0.109375,0.109375 0.109375,0 0.109375,-0.015625 0.171875,-0.234375 0.171875,-0.703125 0.375,-1.1875 0.734375,-1.1875 0.171875,0 0.3125,0.078125 0.3125,0.453125 0,0.234375 -0.03125,0.34375 -0.078125,0.515625 z m 1.75,-4.328125 C 2.265625,-3.375 2.546875,-3.65625 2.71875,-3.8125 c 0.359375,-0.296875 0.640625,-0.375 0.8125,-0.375 0.390625,0 0.640625,0.34375 0.640625,0.9375 0,0.59375 -0.328125,1.734375 -0.515625,2.109375 -0.34375,0.703125 -0.8125,1.03125 -1.1875,1.03125 C 1.8125,-0.109375 1.6875,-0.9375 1.6875,-1 c 0,-0.015625 0,-0.03125 0.03125,-0.15625 z m 0,0"
           id="path4323" />
      </symbol>
    </g>
  </defs>
  <g
     inkscape:label="Layer 1"
     inkscape:groupmode="layer"
     id="layer1"
     transform="translate(516.14058,-20.84549)">
    <g
       id="g2540"
       transform="translate(-22.619591,-3.846345)">
      <path
         style="fill:none;stroke:#000000;stroke-width:0.264583px;stroke-linecap:butt;stroke-linejoin:miter;stroke-opacity:1"
         d="m -491.06058,83.436799 h 61.97475"
         id="path1390"
         sodipodi:nodetypes="cc" />
      <path
         style="fill:none;stroke:#000000;stroke-width:0.264583px;stroke-linecap:butt;stroke-linejoin:miter;stroke-opacity:1"
         d="m -491.06058,83.436799 30.37528,-22.73247"
         id="path1392"
         sodipodi:nodetypes="cc" />
      <path
         style="fill:none;stroke:#000000;stroke-width:0.264583px;stroke-linecap:butt;stroke-linejoin:miter;stroke-opacity:0.3"
         d="m -391.35474,54.146156 -60.56748,3e-6 -8.76308,6.55817"
         id="path4989"
         sodipodi:nodetypes="ccc" />
      <text
         xml:space="preserve"
         style="font-size:5.29167px;line-height:1.25;font-family:serif;-inkscape-font-specification:serif;opacity:0.5;stroke-width:0.264583"
         id="text9285"
         transform="translate(11.641668,-6.8791668)"><textPath
           xlink:href="#path2103"
           id="textPath2223"><tspan
             style="font-size:5.29167px;stroke-width:0.264583"
             id="tspan11607">obtuse</tspan></textPath></text>
      <text
         xml:space="preserve"
         style="font-size:5.29167px;line-height:1.25;font-family:serif;-inkscape-font-specification:serif;stroke-width:0.264583"
         id="text10147"
         transform="rotate(180,-431.86896,75.995961)"><textPath
           xlink:href="#path1881"
           id="textPath15131"><tspan
             id="tspan10145"
             style="font-size:5.29167px;stroke-width:0.264583">acute</tspan></textPath></text>
      <g
         id="g1831"
         transform="translate(0,-1.0583333)">
        <path
           style="fill:none;stroke:#000000;stroke-width:0.264583;stroke-linecap:butt;stroke-linejoin:miter;stroke-miterlimit:4;stroke-dasharray:none;stroke-opacity:1"
           d="m -419.40925,76.302679 -36.60111,-4.96286 -12.40716,-28.22629"
           id="path1881"
           sodipodi:nodetypes="ccc" />
        <path
           style="fill:none;stroke:#000000;stroke-width:0.264583px;stroke-linecap:butt;stroke-linejoin:miter;stroke-opacity:0.3"
           d="m -412.33846,54.146159 -3.46605,-7.885251"
           id="path15090"
           sodipodi:nodetypes="cc" />
        <path
           style="fill:none;stroke:#000000;stroke-width:0.264583px;stroke-linecap:butt;stroke-linejoin:miter;stroke-opacity:1"
           d="m -468.41752,43.113529 66.64097,3.98655"
           id="path1901"
           sodipodi:nodetypes="cc" />
        <path
           style="fill:none;stroke:#000000;stroke-width:0.264583px;stroke-linecap:butt;stroke-linejoin:miter;stroke-opacity:1"
           d="m -415.80451,46.260908 -8.94111,-20.341039 -43.6719,17.19366"
           id="path5454"
           sodipodi:nodetypes="ccc" />
        <path
           style="fill:none;stroke:#000000;stroke-width:0.264583px;stroke-linecap:butt;stroke-linejoin:miter;stroke-opacity:1"
           d="m -419.40925,76.302679 17.6327,-29.2026"
           id="path3326"
           sodipodi:nodetypes="cc" />
        <path
           style="fill:none;stroke:#000000;stroke-width:0.264583px;stroke-linecap:butt;stroke-linejoin:miter;stroke-opacity:1"
           d="m -389.94747,54.146159 -16.08354,-5e-6"
           id="path3726"
           sodipodi:nodetypes="cc" />
        <path
           style="fill:none;stroke:#000000;stroke-width:0.264583px;stroke-linecap:butt;stroke-linejoin:miter;stroke-opacity:1"
           d="m -389.94747,54.146159 -29.46178,22.15652"
           id="path4467"
           sodipodi:nodetypes="cc" />
        <path
           style="fill:none;stroke:#000000;stroke-width:0.264583px;stroke-linecap:butt;stroke-linejoin:miter;stroke-opacity:0.3"
           d="m -456.01036,71.339817 43.6719,-17.19366"
           id="path2103" />
        <path
           style="fill:none;stroke:#000000;stroke-width:0.264583px;stroke-linecap:butt;stroke-linejoin:miter;stroke-opacity:0.3"
           d="m -406.03101,54.146154 -6.30745,2e-6"
           id="path1607"
           sodipodi:nodetypes="cc" />
      </g>
      <path
         style="fill:none;stroke:#000000;stroke-width:0.264583px;stroke-linecap:butt;stroke-linejoin:miter;stroke-opacity:1"
         d="m -429.08583,83.436799 39.13836,-29.29064"
         id="path1866" />
      <path
         style="fill:none;stroke:#000000;stroke-width:0.264583px;stroke-linecap:butt;stroke-linejoin:miter;stroke-opacity:1"
         d="m -391.35474,54.146157 1.40727,2e-6"
         id="path2000" />
    </g>
    <g
       id="g9237"
       transform="translate(5.119212,-49.885032)">
      <path
         style="fill:none;stroke:#000000;stroke-width:0.264583px;stroke-linecap:butt;stroke-linejoin:miter;stroke-opacity:1"
         d="m -441.2222,205.85343 25.88089,-18.86235 -18.39423,33.1753"
         id="path3036" />
      <path
         style="fill:none;stroke:#000000;stroke-width:0.264583px;stroke-linecap:butt;stroke-linejoin:miter;stroke-opacity:0.3"
         d="m -499.35871,210.17049 12.85195,-23.17941"
         id="path2546"
         sodipodi:nodetypes="cc" />
      <path
         style="fill:none;stroke:#000000;stroke-width:0.264583px;stroke-linecap:butt;stroke-linejoin:miter;stroke-opacity:1"
         d="m -504.90099,220.16638 5.54228,-9.99589"
         id="path2548"
         sodipodi:nodetypes="cc" />
      <path
         style="fill:none;stroke:#000000;stroke-width:0.264583px;stroke-linecap:butt;stroke-linejoin:miter;stroke-opacity:1"
         d="m -504.90099,220.16638 h 71.16545"
         id="path2556"
         sodipodi:nodetypes="cc" />
      <path
         style="fill:none;stroke:#000000;stroke-width:0.264583px;stroke-linecap:butt;stroke-linejoin:miter;stroke-opacity:1"
         d="m -434.52342,186.99107 19.18211,1e-5"
         id="path2564" />
      <path
         style="fill:none;stroke:#000000;stroke-width:0.264583px;stroke-linecap:butt;stroke-linejoin:miter;stroke-opacity:0.3"
         d="m -460.08455,186.99108 25.56113,-1e-5"
         id="path2566"
         sodipodi:nodetypes="cc" />
      <path
         style="fill:none;stroke:#000000;stroke-width:0.264583;stroke-linecap:butt;stroke-linejoin:miter;stroke-miterlimit:4;stroke-dasharray:none;stroke-opacity:1"
         d="m -460.47068,185.41941 h -26.42221"
         id="path2544"
         sodipodi:nodetypes="cc" />
      <path
         style="fill:none;stroke:#000000;stroke-width:0.264583px;stroke-linecap:butt;stroke-linejoin:miter;stroke-opacity:1"
         d="m -476.92099,167.43438 h 48.39864 l -13.08598,36.84738 -8.07989,5.88873 h -71.16545 l 33.96078,-24.75108 z"
         id="path2562"
         sodipodi:nodetypes="ccccccc" />
      <text
         xml:space="preserve"
         style="font-size:5.29167px;line-height:1.25;font-family:serif;-inkscape-font-specification:serif;stroke-width:0.264583"
         id="text2570"
         y="184.08365"
         x="-479.811"><tspan
           sodipodi:role="line"
           id="tspan2568"
           style="font-size:5.29167px;stroke-width:0.264583"
           x="-479.811"
           y="184.08365">obtuse</tspan></text>
      <text
         xml:space="preserve"
         style="font-size:5.29167px;line-height:1.25;font-family:serif;-inkscape-font-specification:serif;opacity:0.5;stroke-width:0.264583"
         id="text2576"
         transform="translate(7.9375004,5.2916669)"><textPath
           xlink:href="#path4033"
           id="textPath9216"><tspan
             id="tspan2572"
             style="font-size:5.29167px;stroke-width:0.264583">acute</tspan></textPath></text>
      <path
         style="fill:none;stroke:#000000;stroke-width:0.264583;stroke-linecap:butt;stroke-linejoin:miter;stroke-miterlimit:4;stroke-dasharray:none;stroke-opacity:0.995984"
         d="m -460.47068,185.41941 18.86235,18.86235"
         id="path2550"
         sodipodi:nodetypes="cc" />
      <path
         style="fill:none;stroke:#000000;stroke-width:0.264583px;stroke-linecap:butt;stroke-linejoin:miter;stroke-opacity:1"
         d="m -441.2222,205.85343 13.08598,-36.84738 h -0.94429"
         id="path3803" />
      <path
         style="fill:none;stroke:#000000;stroke-width:0.264583px;stroke-linecap:butt;stroke-linejoin:miter;stroke-opacity:0.3"
         d="m -429.08051,169.00605 -47.45435,0 -9.9719,17.98503"
         id="path3918"
         sodipodi:nodetypes="ccc" />
      <path
         style="fill:none;stroke:#000000;stroke-width:0.264583px;stroke-linecap:butt;stroke-linejoin:miter;stroke-opacity:0.3"
         d="m -460.08455,186.99108 17.79047,17.79047"
         id="path4033"
         sodipodi:nodetypes="cc" />
      <path
         style="fill:none;stroke:#000000;stroke-width:0.264583px;stroke-linecap:butt;stroke-linejoin:miter;stroke-opacity:1"
         d="m -442.29408,204.78155 1.07188,1.07188"
         id="path4302"
         sodipodi:nodetypes="cc" />
    </g>
    <g
       id="g9295"
       transform="translate(18.266562,-46.643112)">
      <path
         style="fill:none;stroke:#000000;stroke-width:0.264583px;stroke-linecap:butt;stroke-linejoin:miter;stroke-opacity:0.3"
         d="m -337.85111,185.17013 -16.93492,30.54334 h 70.32179"
         id="path5491"
         sodipodi:nodetypes="cc" />
      <path
         style="fill:none;stroke:#000000;stroke-width:0.264583;stroke-linecap:butt;stroke-linejoin:miter;stroke-miterlimit:4;stroke-dasharray:none;stroke-opacity:0.995984"
         d="m -309.96959,182.53817 18.86235,18.86235"
         id="path5495"
         sodipodi:nodetypes="cc" />
      <path
         style="fill:none;stroke:#000000;stroke-width:0.264583px;stroke-linecap:butt;stroke-linejoin:miter;stroke-opacity:1"
         d="m -284.46424,215.71347 h 0.84366 l 18.39423,-33.1753 -25.88089,18.86235 13.08598,-36.84739"
         id="path5501"
         sodipodi:nodetypes="ccccc" />
      <path
         style="fill:none;stroke:#000000;stroke-width:0.265;stroke-linecap:butt;stroke-linejoin:miter;stroke-miterlimit:4;stroke-dasharray:none;stroke-opacity:1"
         d="m -326.4199,164.55313 h 48.39864"
         id="path5505"
         sodipodi:nodetypes="cc" />
      <path
         style="fill:none;stroke:#000000;stroke-width:0.264583px;stroke-linecap:butt;stroke-linejoin:miter;stroke-opacity:1"
         d="m -337.85111,185.17013 11.43121,-20.617"
         id="path5507"
         sodipodi:nodetypes="cc" />
      <path
         style="fill:none;stroke:#000000;stroke-width:0.264583px;stroke-linecap:butt;stroke-linejoin:miter;stroke-opacity:1"
         d="m -284.40846,182.53816 19.18211,1e-5"
         id="path5509" />
      <path
         style="fill:none;stroke:#000000;stroke-width:0.264583px;stroke-linecap:butt;stroke-linejoin:miter;stroke-opacity:0.3"
         d="m -309.96959,182.53817 25.56113,-1e-5"
         id="path5511" />
      <text
         xml:space="preserve"
         style="font-size:5.29167px;line-height:1.25;font-family:serif;-inkscape-font-specification:serif;stroke-width:0.264583"
         id="text5515"
         y="189.1398"
         x="-329.30988"><tspan
           sodipodi:role="line"
           id="tspan5513"
           style="font-size:5.29167px;stroke-width:0.264583"
           x="-329.30988"
           y="189.1398">acute</tspan></text>
      <text
         xml:space="preserve"
         style="font-size:5.29167px;line-height:1.25;font-family:serif;-inkscape-font-specification:serif;opacity:0.5;stroke-width:0.264583"
         id="text5521"
         transform="translate(7.4083337,5.8208336)"><textPath
           xlink:href="#path5495"
           id="textPath9256"><tspan
             id="tspan5517"
             style="font-size:5.29167px;stroke-width:0.264583">acute</tspan></textPath></text>
      <g
         id="g6323"
         transform="translate(31.196358,-26.21468)">
        <path
           style="fill:none;stroke:#000000;stroke-width:0.264583px;stroke-linecap:butt;stroke-linejoin:miter;stroke-opacity:1"
           d="m -338.534,211.3848 h -31.35712 m -13.72338,24.75108 -3.88299,7.00326 h 71.16545 l 17.60637,-31.75434"
           id="path5973"
           sodipodi:nodetypes="cccccc" />
        <path
           style="fill:none;stroke:#000000;stroke-width:0.264583px;stroke-linecap:butt;stroke-linejoin:miter;stroke-opacity:1"
           d="m -369.89112,211.3848 -33.96078,24.75108 h 71.16545 l 33.96078,-24.75108"
           id="path5497"
           sodipodi:nodetypes="cccc" />
      </g>
      <path
         style="fill:none;stroke:#000000;stroke-width:0.264583px;stroke-linecap:butt;stroke-linejoin:miter;stroke-opacity:0.3"
         d="m -307.33764,185.17011 h 38.50001"
         id="path3261"
         sodipodi:nodetypes="cc" />
      <path
         style="fill:none;stroke:#000000;stroke-width:0.264583px;stroke-linecap:butt;stroke-linejoin:miter;stroke-opacity:1"
         d="m -268.83763,185.17011 h 1.30832"
         id="path3348" />
      <path
         style="fill:none;stroke:#000000;stroke-width:0.264583px;stroke-linecap:butt;stroke-linejoin:miter;stroke-opacity:0.3"
         d="m -338.69476,185.17011 -13.72338,24.75108"
         id="path5984" />
    </g>
    <path
       style="fill:none;stroke:#000000;stroke-width:0.264583;stroke-linecap:butt;stroke-linejoin:miter;stroke-miterlimit:4;stroke-dasharray:none;stroke-opacity:1"
       d="m -289.40978,79.590454 36.44156,-19.87339"
       id="path32546"
       sodipodi:nodetypes="cc" />
    <path
       style="fill:none;stroke:#000000;stroke-width:0.264583;stroke-linecap:butt;stroke-linejoin:miter;stroke-miterlimit:4;stroke-dasharray:none;stroke-opacity:0.3"
       d="m -316.43134,60.470834 h 37.36016"
       id="path32566"
       sodipodi:nodetypes="cc" />
    <path
       style="fill:none;stroke:#000000;stroke-width:0.264583;stroke-linecap:butt;stroke-linejoin:miter;stroke-miterlimit:4;stroke-dasharray:none;stroke-opacity:0.3"
       d="m -343.49497,76.752652 31.23794,-17.035588"
       id="path32568"
       sodipodi:nodetypes="cc" />
    <path
       style="fill:none;stroke:#000000;stroke-width:0.264583;stroke-linecap:butt;stroke-linejoin:miter;stroke-miterlimit:4;stroke-dasharray:none;stroke-opacity:1"
       d="m -252.96822,59.717064 -20.18674,-19.10839"
       id="path32603"
       sodipodi:nodetypes="cc" />
    <path
       style="fill:none;stroke:#000000;stroke-width:0.264583;stroke-linecap:butt;stroke-linejoin:miter;stroke-miterlimit:4;stroke-dasharray:none;stroke-opacity:1"
       d="m -332.44378,40.608674 h 59.28882"
       id="path32685" />
    <path
       style="fill:none;stroke:#000000;stroke-width:0.264583;stroke-linecap:butt;stroke-linejoin:miter;stroke-miterlimit:4;stroke-dasharray:none;stroke-opacity:0.3"
       d="M -312.25702,59.717064 -326.21658,46.503217"
       id="path32687"
       sodipodi:nodetypes="cc" />
    <path
       style="fill:none;stroke:#000000;stroke-width:0.264583;stroke-linecap:butt;stroke-linejoin:miter;stroke-miterlimit:4;stroke-dasharray:none;stroke-opacity:1"
       d="m -348.69859,79.590454 h 59.28881"
       id="path32689" />
    <path
       style="fill:none;stroke:#000000;stroke-width:0.264583px;stroke-linecap:butt;stroke-linejoin:miter;stroke-opacity:1"
       d="m -333.45169,44.359694 54.38051,16.11114"
       id="path15343"
       sodipodi:nodetypes="cc" />
    <path
       style="fill:none;stroke:#000000;stroke-width:0.264583px;stroke-linecap:butt;stroke-linejoin:miter;stroke-opacity:0.3"
       d="m -281.61541,59.717064 h -30.64161"
       id="path12778"
       sodipodi:nodetypes="cc" />
    <path
       style="fill:none;stroke:#000000;stroke-width:0.264583px;stroke-linecap:butt;stroke-linejoin:miter;stroke-opacity:1"
       d="m -281.61541,59.717064 h 28.6472"
       id="path12931"
       sodipodi:nodetypes="cc" />
    <path
       style="fill:none;stroke:#000000;stroke-width:0.264583px;stroke-linecap:butt;stroke-linejoin:miter;stroke-opacity:1"
       d="m -348.69859,79.590454 5.20362,-2.837802"
       id="path13065"
       sodipodi:nodetypes="cc" />
    <path
       style="fill:none;stroke:#000000;stroke-width:0.264583px;stroke-linecap:butt;stroke-linejoin:miter;stroke-opacity:1"
       d="m -332.44378,40.608674 6.2272,5.894543"
       id="path13157"
       sodipodi:nodetypes="cc" />
    <text
       xml:space="preserve"
       style="font-size:5.29167px;line-height:1.25;font-family:serif;-inkscape-font-specification:serif;opacity:0.5;stroke-width:0.264583"
       id="text14646"
       transform="translate(27.516678,-7.9375004)"><textPath
         xlink:href="#path5758"
         id="textPath5859"><tspan
           id="tspan14644"
           style="font-size:5.29167px;stroke-width:0.264583">acute</tspan></textPath></text>
    <text
       xml:space="preserve"
       style="font-size:5.29167px;line-height:1.25;font-family:serif;-inkscape-font-specification:serif;opacity:0.5;stroke-width:0.264583"
       id="text17576"
       transform="translate(19.050006,10.054167)"><textPath
         xlink:href="#path15343"
         id="textPath18079"><tspan
           id="tspan17574"
           style="font-size:5.29167px;stroke-width:0.264583">obtuse</tspan></textPath></text>
    <text
       xml:space="preserve"
       style="font-size:10.5833px;line-height:1.25;font-family:serif;-inkscape-font-specification:serif;stroke-width:0.264583"
       x="-478.11478"
       y="92.785591"
       id="text20785"><tspan
         sodipodi:role="line"
         id="tspan20783"
         style="stroke-width:0.264583"
         x="-478.11478"
         y="92.785591">(TF-C)</tspan></text>
    <text
       xml:space="preserve"
       style="font-size:10.5833px;line-height:1.25;font-family:serif;-inkscape-font-specification:serif;stroke-width:0.264583"
       x="-314.93497"
       y="92.785591"
       id="text33565"><tspan
         sodipodi:role="line"
         id="tspan33563"
         style="stroke-width:0.264583"
         x="-314.93497"
         y="92.785591">(FF-F)</tspan></text>
    <text
       xml:space="preserve"
       style="font-size:10.5833px;line-height:1.25;font-family:serif;-inkscape-font-specification:serif;stroke-width:0.264583"
       x="-478.11478"
       y="183.9362"
       id="text36935"><tspan
         sodipodi:role="line"
         id="tspan36933"
         style="stroke-width:0.264583"
         x="-478.11478"
         y="183.9362">(TC-F)</tspan></text>
    <text
       xml:space="preserve"
       style="font-size:10.5833px;line-height:1.25;font-family:serif;-inkscape-font-specification:serif;stroke-width:0.264583"
       x="-315.81088"
       y="183.9362"
       id="text39843"><tspan
         sodipodi:role="line"
         id="tspan39841"
         style="stroke-width:0.264583"
         x="-315.81088"
         y="183.9362">(FC-T)</tspan></text>
    <path
       style="fill:none;stroke:#000000;stroke-width:0.264583px;stroke-linecap:butt;stroke-linejoin:miter;stroke-opacity:1"
       d="m -334.17409,45.956779 -14.5245,32.110985 69.62741,-17.59693"
       id="path1226"
       sodipodi:nodetypes="ccc" />
    <path
       style="fill:none;fill-opacity:1;stroke:#000000;stroke-width:0.264583px;stroke-linecap:butt;stroke-linejoin:miter;stroke-opacity:0.3"
       d="m -348.69859,78.067763 32.26725,-17.596929"
       id="path1887"
       sodipodi:nodetypes="cc" />
    <path
       style="fill:none;stroke:#000000;stroke-width:0.264583;stroke-linecap:butt;stroke-linejoin:miter;stroke-miterlimit:4;stroke-dasharray:none;stroke-opacity:0.3"
       d="m -316.43134,60.470834 -17.02035,-16.11114"
       id="path2981"
       sodipodi:nodetypes="cc" />
    <path
       style="fill:none;stroke:#000000;stroke-width:0.264583px;stroke-linecap:butt;stroke-linejoin:miter;stroke-opacity:1"
       d="m -348.69859,78.067764 69.62741,-17.59693"
       id="path5758" />
    <path
       style="fill:none;stroke:#000000;stroke-width:0.264583px;stroke-linecap:butt;stroke-linejoin:miter;stroke-opacity:1"
       d="m -333.45169,44.359694 -15.2469,33.70807"
       id="path4287" />
  </g>
  <script
     id="mesh_polyfill"
     type="text/javascript">
!function(){const t=&quot;http://www.w3.org/2000/svg&quot;,e=&quot;http://www.w3.org/1999/xlink&quot;,s=&quot;http://www.w3.org/1999/xhtml&quot;,r=2;if(document.createElementNS(t,&quot;meshgradient&quot;).x)return;const n=(t,e,s,r)=&gt;{let n=new x(.5*(e.x+s.x),.5*(e.y+s.y)),o=new x(.5*(t.x+e.x),.5*(t.y+e.y)),i=new x(.5*(s.x+r.x),.5*(s.y+r.y)),a=new x(.5*(n.x+o.x),.5*(n.y+o.y)),h=new x(.5*(n.x+i.x),.5*(n.y+i.y)),l=new x(.5*(a.x+h.x),.5*(a.y+h.y));return[[t,o,a,l],[l,h,i,r]]},o=t=&gt;{let e=t[0].distSquared(t[1]),s=t[2].distSquared(t[3]),r=.25*t[0].distSquared(t[2]),n=.25*t[1].distSquared(t[3]),o=e&gt;s?e:s,i=r&gt;n?r:n;return 18*(o&gt;i?o:i)},i=(t,e)=&gt;Math.sqrt(t.distSquared(e)),a=(t,e)=&gt;t.scale(2/3).add(e.scale(1/3)),h=t=&gt;{let e,s,r,n,o,i,a,h=new g;return t.match(/(\w+\(\s*[^)]+\))+/g).forEach(t=&gt;{let l=t.match(/[\w.-]+/g),d=l.shift();switch(d){case&quot;translate&quot;:2===l.length?e=new g(1,0,0,1,l[0],l[1]):(console.error(&quot;mesh.js: translate does not have 2 arguments!&quot;),e=new g(1,0,0,1,0,0)),h=h.append(e);break;case&quot;scale&quot;:1===l.length?s=new g(l[0],0,0,l[0],0,0):2===l.length?s=new g(l[0],0,0,l[1],0,0):(console.error(&quot;mesh.js: scale does not have 1 or 2 arguments!&quot;),s=new g(1,0,0,1,0,0)),h=h.append(s);break;case&quot;rotate&quot;:if(3===l.length&amp;&amp;(e=new g(1,0,0,1,l[1],l[2]),h=h.append(e)),l[0]){r=l[0]*Math.PI/180;let t=Math.cos(r),e=Math.sin(r);Math.abs(t)&lt;1e-16&amp;&amp;(t=0),Math.abs(e)&lt;1e-16&amp;&amp;(e=0),a=new g(t,e,-e,t,0,0),h=h.append(a)}else console.error(&quot;math.js: No argument to rotate transform!&quot;);3===l.length&amp;&amp;(e=new g(1,0,0,1,-l[1],-l[2]),h=h.append(e));break;case&quot;skewX&quot;:l[0]?(r=l[0]*Math.PI/180,n=Math.tan(r),o=new g(1,0,n,1,0,0),h=h.append(o)):console.error(&quot;math.js: No argument to skewX transform!&quot;);break;case&quot;skewY&quot;:l[0]?(r=l[0]*Math.PI/180,n=Math.tan(r),i=new g(1,n,0,1,0,0),h=h.append(i)):console.error(&quot;math.js: No argument to skewY transform!&quot;);break;case&quot;matrix&quot;:6===l.length?h=h.append(new g(...l)):console.error(&quot;math.js: Incorrect number of arguments for matrix!&quot;);break;default:console.error(&quot;mesh.js: Unhandled transform type: &quot;+d)}}),h},l=t=&gt;{let e=[],s=t.split(/[ ,]+/);for(let t=0,r=s.length-1;t&lt;r;t+=2)e.push(new x(parseFloat(s[t]),parseFloat(s[t+1])));return e},d=(t,e)=&gt;{for(let s in e)t.setAttribute(s,e[s])},c=(t,e,s,r,n)=&gt;{let o,i,a=[0,0,0,0];for(let h=0;h&lt;3;++h)e[h]&lt;t[h]&amp;&amp;e[h]&lt;s[h]||t[h]&lt;e[h]&amp;&amp;s[h]&lt;e[h]?a[h]=0:(a[h]=.5*((e[h]-t[h])/r+(s[h]-e[h])/n),o=Math.abs(3*(e[h]-t[h])/r),i=Math.abs(3*(s[h]-e[h])/n),a[h]&gt;o?a[h]=o:a[h]&gt;i&amp;&amp;(a[h]=i));return a},u=[[1,0,0,0,0,0,0,0,0,0,0,0,0,0,0,0],[0,0,0,0,1,0,0,0,0,0,0,0,0,0,0,0],[-3,3,0,0,-2,-1,0,0,0,0,0,0,0,0,0,0],[2,-2,0,0,1,1,0,0,0,0,0,0,0,0,0,0],[0,0,0,0,0,0,0,0,1,0,0,0,0,0,0,0],[0,0,0,0,0,0,0,0,0,0,0,0,1,0,0,0],[0,0,0,0,0,0,0,0,-3,3,0,0,-2,-1,0,0],[0,0,0,0,0,0,0,0,2,-2,0,0,1,1,0,0],[-3,0,3,0,0,0,0,0,-2,0,-1,0,0,0,0,0],[0,0,0,0,-3,0,3,0,0,0,0,0,-2,0,-1,0],[9,-9,-9,9,6,3,-6,-3,6,-6,3,-3,4,2,2,1],[-6,6,6,-6,-3,-3,3,3,-4,4,-2,2,-2,-2,-1,-1],[2,0,-2,0,0,0,0,0,1,0,1,0,0,0,0,0],[0,0,0,0,2,0,-2,0,0,0,0,0,1,0,1,0],[-6,6,6,-6,-4,-2,4,2,-3,3,-3,3,-2,-1,-2,-1],[4,-4,-4,4,2,2,-2,-2,2,-2,2,-2,1,1,1,1]],f=t=&gt;{let e=[];for(let s=0;s&lt;16;++s){e[s]=0;for(let r=0;r&lt;16;++r)e[s]+=u[s][r]*t[r]}return e},p=(t,e,s)=&gt;{const r=e*e,n=s*s,o=e*e*e,i=s*s*s;return t[0]+t[1]*e+t[2]*r+t[3]*o+t[4]*s+t[5]*s*e+t[6]*s*r+t[7]*s*o+t[8]*n+t[9]*n*e+t[10]*n*r+t[11]*n*o+t[12]*i+t[13]*i*e+t[14]*i*r+t[15]*i*o},y=t=&gt;{let e=[],s=[],r=[];for(let s=0;s&lt;4;++s)e[s]=[],e[s][0]=n(t[0][s],t[1][s],t[2][s],t[3][s]),e[s][1]=[],e[s][1].push(...n(...e[s][0][0])),e[s][1].push(...n(...e[s][0][1])),e[s][2]=[],e[s][2].push(...n(...e[s][1][0])),e[s][2].push(...n(...e[s][1][1])),e[s][2].push(...n(...e[s][1][2])),e[s][2].push(...n(...e[s][1][3]));for(let t=0;t&lt;8;++t){s[t]=[];for(let r=0;r&lt;4;++r)s[t][r]=[],s[t][r][0]=n(e[0][2][t][r],e[1][2][t][r],e[2][2][t][r],e[3][2][t][r]),s[t][r][1]=[],s[t][r][1].push(...n(...s[t][r][0][0])),s[t][r][1].push(...n(...s[t][r][0][1])),s[t][r][2]=[],s[t][r][2].push(...n(...s[t][r][1][0])),s[t][r][2].push(...n(...s[t][r][1][1])),s[t][r][2].push(...n(...s[t][r][1][2])),s[t][r][2].push(...n(...s[t][r][1][3]))}for(let t=0;t&lt;8;++t){r[t]=[];for(let e=0;e&lt;8;++e)r[t][e]=[],r[t][e][0]=s[t][0][2][e],r[t][e][1]=s[t][1][2][e],r[t][e][2]=s[t][2][2][e],r[t][e][3]=s[t][3][2][e]}return r};class x{constructor(t,e){this.x=t||0,this.y=e||0}toString(){return`(x=${this.x}, y=${this.y})`}clone(){return new x(this.x,this.y)}add(t){return new x(this.x+t.x,this.y+t.y)}scale(t){return void 0===t.x?new x(this.x*t,this.y*t):new x(this.x*t.x,this.y*t.y)}distSquared(t){let e=this.x-t.x,s=this.y-t.y;return e*e+s*s}transform(t){let e=this.x*t.a+this.y*t.c+t.e,s=this.x*t.b+this.y*t.d+t.f;return new x(e,s)}}class g{constructor(t,e,s,r,n,o){void 0===t?(this.a=1,this.b=0,this.c=0,this.d=1,this.e=0,this.f=0):(this.a=t,this.b=e,this.c=s,this.d=r,this.e=n,this.f=o)}toString(){return`affine: ${this.a} ${this.c} ${this.e} \n       ${this.b} ${this.d} ${this.f}`}append(t){t instanceof g||console.error(&quot;mesh.js: argument to Affine.append is not affine!&quot;);let e=this.a*t.a+this.c*t.b,s=this.b*t.a+this.d*t.b,r=this.a*t.c+this.c*t.d,n=this.b*t.c+this.d*t.d,o=this.a*t.e+this.c*t.f+this.e,i=this.b*t.e+this.d*t.f+this.f;return new g(e,s,r,n,o,i)}}class w{constructor(t,e){this.nodes=t,this.colors=e}paintCurve(t,e){if(o(this.nodes)&gt;r){const s=n(...this.nodes);let r=[[],[]],o=[[],[]];for(let t=0;t&lt;4;++t)r[0][t]=this.colors[0][t],r[1][t]=(this.colors[0][t]+this.colors[1][t])/2,o[0][t]=r[1][t],o[1][t]=this.colors[1][t];let i=new w(s[0],r),a=new w(s[1],o);i.paintCurve(t,e),a.paintCurve(t,e)}else{let s=Math.round(this.nodes[0].x);if(s&gt;=0&amp;&amp;s&lt;e){let r=4*(~~this.nodes[0].y*e+s);t[r]=Math.round(this.colors[0][0]),t[r+1]=Math.round(this.colors[0][1]),t[r+2]=Math.round(this.colors[0][2]),t[r+3]=Math.round(this.colors[0][3])}}}}class m{constructor(t,e){this.nodes=t,this.colors=e}split(){let t=[[],[],[],[]],e=[[],[],[],[]],s=[[[],[]],[[],[]]],r=[[[],[]],[[],[]]];for(let s=0;s&lt;4;++s){const r=n(this.nodes[0][s],this.nodes[1][s],this.nodes[2][s],this.nodes[3][s]);t[0][s]=r[0][0],t[1][s]=r[0][1],t[2][s]=r[0][2],t[3][s]=r[0][3],e[0][s]=r[1][0],e[1][s]=r[1][1],e[2][s]=r[1][2],e[3][s]=r[1][3]}for(let t=0;t&lt;4;++t)s[0][0][t]=this.colors[0][0][t],s[0][1][t]=this.colors[0][1][t],s[1][0][t]=(this.colors[0][0][t]+this.colors[1][0][t])/2,s[1][1][t]=(this.colors[0][1][t]+this.colors[1][1][t])/2,r[0][0][t]=s[1][0][t],r[0][1][t]=s[1][1][t],r[1][0][t]=this.colors[1][0][t],r[1][1][t]=this.colors[1][1][t];return[new m(t,s),new m(e,r)]}paint(t,e){let s,n=!1;for(let t=0;t&lt;4;++t)if((s=o([this.nodes[0][t],this.nodes[1][t],this.nodes[2][t],this.nodes[3][t]]))&gt;r){n=!0;break}if(n){let s=this.split();s[0].paint(t,e),s[1].paint(t,e)}else{new w([...this.nodes[0]],[...this.colors[0]]).paintCurve(t,e)}}}class b{constructor(t){this.readMesh(t),this.type=t.getAttribute(&quot;type&quot;)||&quot;bilinear&quot;}readMesh(t){let e=[[]],s=[[]],r=Number(t.getAttribute(&quot;x&quot;)),n=Number(t.getAttribute(&quot;y&quot;));e[0][0]=new x(r,n);let o=t.children;for(let t=0,r=o.length;t&lt;r;++t){e[3*t+1]=[],e[3*t+2]=[],e[3*t+3]=[],s[t+1]=[];let r=o[t].children;for(let n=0,o=r.length;n&lt;o;++n){let o=r[n].children;for(let r=0,i=o.length;r&lt;i;++r){let i=r;0!==t&amp;&amp;++i;let h,d=o[r].getAttribute(&quot;path&quot;),c=&quot;l&quot;;null!=d&amp;&amp;(c=(h=d.match(/\s*([lLcC])\s*(.*)/))[1]);let u=l(h[2]);switch(c){case&quot;l&quot;:0===i?(e[3*t][3*n+3]=u[0].add(e[3*t][3*n]),e[3*t][3*n+1]=a(e[3*t][3*n],e[3*t][3*n+3]),e[3*t][3*n+2]=a(e[3*t][3*n+3],e[3*t][3*n])):1===i?(e[3*t+3][3*n+3]=u[0].add(e[3*t][3*n+3]),e[3*t+1][3*n+3]=a(e[3*t][3*n+3],e[3*t+3][3*n+3]),e[3*t+2][3*n+3]=a(e[3*t+3][3*n+3],e[3*t][3*n+3])):2===i?(0===n&amp;&amp;(e[3*t+3][3*n+0]=u[0].add(e[3*t+3][3*n+3])),e[3*t+3][3*n+1]=a(e[3*t+3][3*n],e[3*t+3][3*n+3]),e[3*t+3][3*n+2]=a(e[3*t+3][3*n+3],e[3*t+3][3*n])):(e[3*t+1][3*n]=a(e[3*t][3*n],e[3*t+3][3*n]),e[3*t+2][3*n]=a(e[3*t+3][3*n],e[3*t][3*n]));break;case&quot;L&quot;:0===i?(e[3*t][3*n+3]=u[0],e[3*t][3*n+1]=a(e[3*t][3*n],e[3*t][3*n+3]),e[3*t][3*n+2]=a(e[3*t][3*n+3],e[3*t][3*n])):1===i?(e[3*t+3][3*n+3]=u[0],e[3*t+1][3*n+3]=a(e[3*t][3*n+3],e[3*t+3][3*n+3]),e[3*t+2][3*n+3]=a(e[3*t+3][3*n+3],e[3*t][3*n+3])):2===i?(0===n&amp;&amp;(e[3*t+3][3*n+0]=u[0]),e[3*t+3][3*n+1]=a(e[3*t+3][3*n],e[3*t+3][3*n+3]),e[3*t+3][3*n+2]=a(e[3*t+3][3*n+3],e[3*t+3][3*n])):(e[3*t+1][3*n]=a(e[3*t][3*n],e[3*t+3][3*n]),e[3*t+2][3*n]=a(e[3*t+3][3*n],e[3*t][3*n]));break;case&quot;c&quot;:0===i?(e[3*t][3*n+1]=u[0].add(e[3*t][3*n]),e[3*t][3*n+2]=u[1].add(e[3*t][3*n]),e[3*t][3*n+3]=u[2].add(e[3*t][3*n])):1===i?(e[3*t+1][3*n+3]=u[0].add(e[3*t][3*n+3]),e[3*t+2][3*n+3]=u[1].add(e[3*t][3*n+3]),e[3*t+3][3*n+3]=u[2].add(e[3*t][3*n+3])):2===i?(e[3*t+3][3*n+2]=u[0].add(e[3*t+3][3*n+3]),e[3*t+3][3*n+1]=u[1].add(e[3*t+3][3*n+3]),0===n&amp;&amp;(e[3*t+3][3*n+0]=u[2].add(e[3*t+3][3*n+3]))):(e[3*t+2][3*n]=u[0].add(e[3*t+3][3*n]),e[3*t+1][3*n]=u[1].add(e[3*t+3][3*n]));break;case&quot;C&quot;:0===i?(e[3*t][3*n+1]=u[0],e[3*t][3*n+2]=u[1],e[3*t][3*n+3]=u[2]):1===i?(e[3*t+1][3*n+3]=u[0],e[3*t+2][3*n+3]=u[1],e[3*t+3][3*n+3]=u[2]):2===i?(e[3*t+3][3*n+2]=u[0],e[3*t+3][3*n+1]=u[1],0===n&amp;&amp;(e[3*t+3][3*n+0]=u[2])):(e[3*t+2][3*n]=u[0],e[3*t+1][3*n]=u[1]);break;default:console.error(&quot;mesh.js: &quot;+c+&quot; invalid path type.&quot;)}if(0===t&amp;&amp;0===n||r&gt;0){let e=window.getComputedStyle(o[r]).stopColor.match(/^rgb\s*\(\s*(\d+)\s*,\s*(\d+)\s*,\s*(\d+)\s*\)$/i),a=window.getComputedStyle(o[r]).stopOpacity,h=255;a&amp;&amp;(h=Math.floor(255*a)),e&amp;&amp;(0===i?(s[t][n]=[],s[t][n][0]=Math.floor(e[1]),s[t][n][1]=Math.floor(e[2]),s[t][n][2]=Math.floor(e[3]),s[t][n][3]=h):1===i?(s[t][n+1]=[],s[t][n+1][0]=Math.floor(e[1]),s[t][n+1][1]=Math.floor(e[2]),s[t][n+1][2]=Math.floor(e[3]),s[t][n+1][3]=h):2===i?(s[t+1][n+1]=[],s[t+1][n+1][0]=Math.floor(e[1]),s[t+1][n+1][1]=Math.floor(e[2]),s[t+1][n+1][2]=Math.floor(e[3]),s[t+1][n+1][3]=h):3===i&amp;&amp;(s[t+1][n]=[],s[t+1][n][0]=Math.floor(e[1]),s[t+1][n][1]=Math.floor(e[2]),s[t+1][n][2]=Math.floor(e[3]),s[t+1][n][3]=h))}}e[3*t+1][3*n+1]=new x,e[3*t+1][3*n+2]=new x,e[3*t+2][3*n+1]=new x,e[3*t+2][3*n+2]=new x,e[3*t+1][3*n+1].x=(-4*e[3*t][3*n].x+6*(e[3*t][3*n+1].x+e[3*t+1][3*n].x)+-2*(e[3*t][3*n+3].x+e[3*t+3][3*n].x)+3*(e[3*t+3][3*n+1].x+e[3*t+1][3*n+3].x)+-1*e[3*t+3][3*n+3].x)/9,e[3*t+1][3*n+2].x=(-4*e[3*t][3*n+3].x+6*(e[3*t][3*n+2].x+e[3*t+1][3*n+3].x)+-2*(e[3*t][3*n].x+e[3*t+3][3*n+3].x)+3*(e[3*t+3][3*n+2].x+e[3*t+1][3*n].x)+-1*e[3*t+3][3*n].x)/9,e[3*t+2][3*n+1].x=(-4*e[3*t+3][3*n].x+6*(e[3*t+3][3*n+1].x+e[3*t+2][3*n].x)+-2*(e[3*t+3][3*n+3].x+e[3*t][3*n].x)+3*(e[3*t][3*n+1].x+e[3*t+2][3*n+3].x)+-1*e[3*t][3*n+3].x)/9,e[3*t+2][3*n+2].x=(-4*e[3*t+3][3*n+3].x+6*(e[3*t+3][3*n+2].x+e[3*t+2][3*n+3].x)+-2*(e[3*t+3][3*n].x+e[3*t][3*n+3].x)+3*(e[3*t][3*n+2].x+e[3*t+2][3*n].x)+-1*e[3*t][3*n].x)/9,e[3*t+1][3*n+1].y=(-4*e[3*t][3*n].y+6*(e[3*t][3*n+1].y+e[3*t+1][3*n].y)+-2*(e[3*t][3*n+3].y+e[3*t+3][3*n].y)+3*(e[3*t+3][3*n+1].y+e[3*t+1][3*n+3].y)+-1*e[3*t+3][3*n+3].y)/9,e[3*t+1][3*n+2].y=(-4*e[3*t][3*n+3].y+6*(e[3*t][3*n+2].y+e[3*t+1][3*n+3].y)+-2*(e[3*t][3*n].y+e[3*t+3][3*n+3].y)+3*(e[3*t+3][3*n+2].y+e[3*t+1][3*n].y)+-1*e[3*t+3][3*n].y)/9,e[3*t+2][3*n+1].y=(-4*e[3*t+3][3*n].y+6*(e[3*t+3][3*n+1].y+e[3*t+2][3*n].y)+-2*(e[3*t+3][3*n+3].y+e[3*t][3*n].y)+3*(e[3*t][3*n+1].y+e[3*t+2][3*n+3].y)+-1*e[3*t][3*n+3].y)/9,e[3*t+2][3*n+2].y=(-4*e[3*t+3][3*n+3].y+6*(e[3*t+3][3*n+2].y+e[3*t+2][3*n+3].y)+-2*(e[3*t+3][3*n].y+e[3*t][3*n+3].y)+3*(e[3*t][3*n+2].y+e[3*t+2][3*n].y)+-1*e[3*t][3*n].y)/9}}this.nodes=e,this.colors=s}paintMesh(t,e){let s=(this.nodes.length-1)/3,r=(this.nodes[0].length-1)/3;if(&quot;bilinear&quot;===this.type||s&lt;2||r&lt;2){let n;for(let o=0;o&lt;s;++o)for(let s=0;s&lt;r;++s){let r=[];for(let t=3*o,e=3*o+4;t&lt;e;++t)r.push(this.nodes[t].slice(3*s,3*s+4));let i=[];i.push(this.colors[o].slice(s,s+2)),i.push(this.colors[o+1].slice(s,s+2)),(n=new m(r,i)).paint(t,e)}}else{let n,o,a,h,l,d,u;const x=s,g=r;s++,r++;let w=new Array(s);for(let t=0;t&lt;s;++t){w[t]=new Array(r);for(let e=0;e&lt;r;++e)w[t][e]=[],w[t][e][0]=this.nodes[3*t][3*e],w[t][e][1]=this.colors[t][e]}for(let t=0;t&lt;s;++t)for(let e=0;e&lt;r;++e)0!==t&amp;&amp;t!==x&amp;&amp;(n=i(w[t-1][e][0],w[t][e][0]),o=i(w[t+1][e][0],w[t][e][0]),w[t][e][2]=c(w[t-1][e][1],w[t][e][1],w[t+1][e][1],n,o)),0!==e&amp;&amp;e!==g&amp;&amp;(n=i(w[t][e-1][0],w[t][e][0]),o=i(w[t][e+1][0],w[t][e][0]),w[t][e][3]=c(w[t][e-1][1],w[t][e][1],w[t][e+1][1],n,o));for(let t=0;t&lt;r;++t){w[0][t][2]=[],w[x][t][2]=[];for(let e=0;e&lt;4;++e)n=i(w[1][t][0],w[0][t][0]),o=i(w[x][t][0],w[x-1][t][0]),w[0][t][2][e]=n&gt;0?2*(w[1][t][1][e]-w[0][t][1][e])/n-w[1][t][2][e]:0,w[x][t][2][e]=o&gt;0?2*(w[x][t][1][e]-w[x-1][t][1][e])/o-w[x-1][t][2][e]:0}for(let t=0;t&lt;s;++t){w[t][0][3]=[],w[t][g][3]=[];for(let e=0;e&lt;4;++e)n=i(w[t][1][0],w[t][0][0]),o=i(w[t][g][0],w[t][g-1][0]),w[t][0][3][e]=n&gt;0?2*(w[t][1][1][e]-w[t][0][1][e])/n-w[t][1][3][e]:0,w[t][g][3][e]=o&gt;0?2*(w[t][g][1][e]-w[t][g-1][1][e])/o-w[t][g-1][3][e]:0}for(let s=0;s&lt;x;++s)for(let r=0;r&lt;g;++r){let n=i(w[s][r][0],w[s+1][r][0]),o=i(w[s][r+1][0],w[s+1][r+1][0]),c=i(w[s][r][0],w[s][r+1][0]),x=i(w[s+1][r][0],w[s+1][r+1][0]),g=[[],[],[],[]];for(let t=0;t&lt;4;++t){(d=[])[0]=w[s][r][1][t],d[1]=w[s+1][r][1][t],d[2]=w[s][r+1][1][t],d[3]=w[s+1][r+1][1][t],d[4]=w[s][r][2][t]*n,d[5]=w[s+1][r][2][t]*n,d[6]=w[s][r+1][2][t]*o,d[7]=w[s+1][r+1][2][t]*o,d[8]=w[s][r][3][t]*c,d[9]=w[s+1][r][3][t]*x,d[10]=w[s][r+1][3][t]*c,d[11]=w[s+1][r+1][3][t]*x,d[12]=0,d[13]=0,d[14]=0,d[15]=0,u=f(d);for(let e=0;e&lt;9;++e){g[t][e]=[];for(let s=0;s&lt;9;++s)g[t][e][s]=p(u,e/8,s/8),g[t][e][s]&gt;255?g[t][e][s]=255:g[t][e][s]&lt;0&amp;&amp;(g[t][e][s]=0)}}h=[];for(let t=3*s,e=3*s+4;t&lt;e;++t)h.push(this.nodes[t].slice(3*r,3*r+4));l=y(h);for(let s=0;s&lt;8;++s)for(let r=0;r&lt;8;++r)(a=new m(l[s][r],[[[g[0][s][r],g[1][s][r],g[2][s][r],g[3][s][r]],[g[0][s][r+1],g[1][s][r+1],g[2][s][r+1],g[3][s][r+1]]],[[g[0][s+1][r],g[1][s+1][r],g[2][s+1][r],g[3][s+1][r]],[g[0][s+1][r+1],g[1][s+1][r+1],g[2][s+1][r+1],g[3][s+1][r+1]]]])).paint(t,e)}}}transform(t){if(t instanceof x)for(let e=0,s=this.nodes.length;e&lt;s;++e)for(let s=0,r=this.nodes[0].length;s&lt;r;++s)this.nodes[e][s]=this.nodes[e][s].add(t);else if(t instanceof g)for(let e=0,s=this.nodes.length;e&lt;s;++e)for(let s=0,r=this.nodes[0].length;s&lt;r;++s)this.nodes[e][s]=this.nodes[e][s].transform(t)}scale(t){for(let e=0,s=this.nodes.length;e&lt;s;++e)for(let s=0,r=this.nodes[0].length;s&lt;r;++s)this.nodes[e][s]=this.nodes[e][s].scale(t)}}document.querySelectorAll(&quot;rect,circle,ellipse,path,text&quot;).forEach((r,n)=&gt;{let o=r.getAttribute(&quot;id&quot;);o||(o=&quot;patchjs_shape&quot;+n,r.setAttribute(&quot;id&quot;,o));const i=r.style.fill.match(/^url\(\s*&quot;?\s*#([^\s&quot;]+)&quot;?\s*\)/),a=r.style.stroke.match(/^url\(\s*&quot;?\s*#([^\s&quot;]+)&quot;?\s*\)/);if(i&amp;&amp;i[1]){const a=document.getElementById(i[1]);if(a&amp;&amp;&quot;meshgradient&quot;===a.nodeName){const i=r.getBBox();let l=document.createElementNS(s,&quot;canvas&quot;);d(l,{width:i.width,height:i.height});const c=l.getContext(&quot;2d&quot;);let u=c.createImageData(i.width,i.height);const f=new b(a);&quot;objectBoundingBox&quot;===a.getAttribute(&quot;gradientUnits&quot;)&amp;&amp;f.scale(new x(i.width,i.height));const p=a.getAttribute(&quot;gradientTransform&quot;);null!=p&amp;&amp;f.transform(h(p)),&quot;userSpaceOnUse&quot;===a.getAttribute(&quot;gradientUnits&quot;)&amp;&amp;f.transform(new x(-i.x,-i.y)),f.paintMesh(u.data,l.width),c.putImageData(u,0,0);const y=document.createElementNS(t,&quot;image&quot;);d(y,{width:i.width,height:i.height,x:i.x,y:i.y});let g=l.toDataURL();y.setAttributeNS(e,&quot;xlink:href&quot;,g),r.parentNode.insertBefore(y,r),r.style.fill=&quot;none&quot;;const w=document.createElementNS(t,&quot;use&quot;);w.setAttributeNS(e,&quot;xlink:href&quot;,&quot;#&quot;+o);const m=&quot;patchjs_clip&quot;+n,M=document.createElementNS(t,&quot;clipPath&quot;);M.setAttribute(&quot;id&quot;,m),M.appendChild(w),r.parentElement.insertBefore(M,r),y.setAttribute(&quot;clip-path&quot;,&quot;url(#&quot;+m+&quot;)&quot;),u=null,l=null,g=null}}if(a&amp;&amp;a[1]){const o=document.getElementById(a[1]);if(o&amp;&amp;&quot;meshgradient&quot;===o.nodeName){const i=parseFloat(r.style.strokeWidth.slice(0,-2))*(parseFloat(r.style.strokeMiterlimit)||parseFloat(r.getAttribute(&quot;stroke-miterlimit&quot;))||1),a=r.getBBox(),l=Math.trunc(a.width+i),c=Math.trunc(a.height+i),u=Math.trunc(a.x-i/2),f=Math.trunc(a.y-i/2);let p=document.createElementNS(s,&quot;canvas&quot;);d(p,{width:l,height:c});const y=p.getContext(&quot;2d&quot;);let g=y.createImageData(l,c);const w=new b(o);&quot;objectBoundingBox&quot;===o.getAttribute(&quot;gradientUnits&quot;)&amp;&amp;w.scale(new x(l,c));const m=o.getAttribute(&quot;gradientTransform&quot;);null!=m&amp;&amp;w.transform(h(m)),&quot;userSpaceOnUse&quot;===o.getAttribute(&quot;gradientUnits&quot;)&amp;&amp;w.transform(new x(-u,-f)),w.paintMesh(g.data,p.width),y.putImageData(g,0,0);const M=document.createElementNS(t,&quot;image&quot;);d(M,{width:l,height:c,x:0,y:0});let S=p.toDataURL();M.setAttributeNS(e,&quot;xlink:href&quot;,S);const k=&quot;pattern_clip&quot;+n,A=document.createElementNS(t,&quot;pattern&quot;);d(A,{id:k,patternUnits:&quot;userSpaceOnUse&quot;,width:l,height:c,x:u,y:f}),A.appendChild(M),o.parentNode.appendChild(A),r.style.stroke=&quot;url(#&quot;+k+&quot;)&quot;,g=null,p=null,S=null}}})}();
</script>
</svg>
