<?xml version="1.0" encoding="UTF-8" standalone="no"?>
<!-- Created with Inkscape (http://www.inkscape.org/) -->

<svg
   width="270.23477mm"
   height="76.059631mm"
   viewBox="0 0 270.23478 76.059635"
   version="1.1"
   id="svg5"
   inkscape:version="1.1.1 (3bf5ae0d25, 2021-09-20)"
   sodipodi:docname="3d-mapping-torus-1.svg"
   xmlns:inkscape="http://www.inkscape.org/namespaces/inkscape"
   xmlns:sodipodi="http://sodipodi.sourceforge.net/DTD/sodipodi-0.dtd"
   xmlns:xlink="http://www.w3.org/1999/xlink"
   xmlns="http://www.w3.org/2000/svg"
   xmlns:svg="http://www.w3.org/2000/svg">
  <sodipodi:namedview
     id="namedview7"
     pagecolor="#ffffff"
     bordercolor="#666666"
     borderopacity="1.0"
     inkscape:pageshadow="2"
     inkscape:pageopacity="0.0"
     inkscape:pagecheckerboard="0"
     inkscape:document-units="mm"
     showgrid="false"
     showguides="true"
     inkscape:guide-bbox="true"
     inkscape:snap-intersection-paths="true"
     inkscape:snap-smooth-nodes="true"
     inkscape:zoom="2.412655"
     inkscape:cx="974.65241"
     inkscape:cy="153.15078"
     inkscape:window-width="1920"
     inkscape:window-height="1009"
     inkscape:window-x="-8"
     inkscape:window-y="-8"
     inkscape:window-maximized="1"
     inkscape:current-layer="layer1"
     inkscape:object-paths="true"
     inkscape:snap-tangential="false" />
  <defs
     id="defs2">
    <marker
       style="overflow:visible"
       id="Arrow1Mend"
       refX="0"
       refY="0"
       orient="auto"
       inkscape:stockid="Arrow1Mend"
       inkscape:isstock="true">
      <path
         transform="matrix(-0.4,0,0,-0.4,-4,0)"
         style="fill:context-stroke;fill-rule:evenodd;stroke:context-stroke;stroke-width:1pt"
         d="M 0,0 5,-5 -12.5,0 5,5 Z"
         id="path21896" />
    </marker>
    <marker
       style="overflow:visible"
       id="DotM"
       refX="0"
       refY="0"
       orient="auto"
       inkscape:stockid="DotM"
       inkscape:isstock="true">
      <path
         transform="matrix(0.4,0,0,0.4,2.96,0.4)"
         style="fill:context-stroke;fill-rule:evenodd;stroke:context-stroke;stroke-width:1pt"
         d="m -2.5,-1 c 0,2.76 -2.24,5 -5,5 -2.76,0 -5,-2.24 -5,-5 0,-2.76 2.24,-5 5,-5 2.76,0 5,2.24 5,5 z"
         id="path21951" />
    </marker>
    <marker
       style="overflow:visible"
       id="DotL"
       refX="0"
       refY="0"
       orient="auto"
       inkscape:stockid="DotL"
       inkscape:isstock="true">
      <path
         transform="matrix(0.8,0,0,0.8,5.92,0.8)"
         style="fill:context-stroke;fill-rule:evenodd;stroke:context-stroke;stroke-width:1pt"
         d="m -2.5,-1 c 0,2.76 -2.24,5 -5,5 -2.76,0 -5,-2.24 -5,-5 0,-2.76 2.24,-5 5,-5 2.76,0 5,2.24 5,5 z"
         id="path21948" />
    </marker>
    <linearGradient
       id="linearGradient4370"
       inkscape:swatch="solid">
      <stop
         style="stop-color:#800000;stop-opacity:1;"
         offset="0"
         id="stop4368" />
    </linearGradient>
    <g
       id="g7707">
      <symbol
         overflow="visible"
         id="symbol5766">
        <path
           style="stroke:none"
           d=""
           id="path7765" />
      </symbol>
      <symbol
         overflow="visible"
         id="symbol6011">
        <path
           style="stroke:none"
           d="M 3.890625,-3.734375 C 3.625,-3.71875 3.421875,-3.5 3.421875,-3.28125 c 0,0.140625 0.09375,0.296875 0.3125,0.296875 0.21875,0 0.453125,-0.171875 0.453125,-0.5625 C 4.1875,-4 3.765625,-4.40625 3,-4.40625 c -1.3125,0 -1.6875,1.015625 -1.6875,1.453125 0,0.78125 0.734375,0.921875 1.03125,0.984375 0.515625,0.109375 1.03125,0.21875 1.03125,0.765625 0,0.25 -0.21875,1.09375 -1.421875,1.09375 -0.140625,0 -0.90625,0 -1.140625,-0.53125 0.390625,0.046875 0.640625,-0.25 0.640625,-0.53125 0,-0.21875 -0.171875,-0.34375 -0.375,-0.34375 -0.265625,0 -0.5625,0.203125 -0.5625,0.65625 0,0.5625 0.578125,0.96875 1.421875,0.96875 1.625,0 2.015625,-1.203125 2.015625,-1.65625 0,-0.359375 -0.1875,-0.609375 -0.3125,-0.71875 -0.265625,-0.28125 -0.5625,-0.34375 -1,-0.421875 -0.359375,-0.078125 -0.75,-0.15625 -0.75,-0.609375 C 1.890625,-3.578125 2.125,-4.1875 3,-4.1875 c 0.25,0 0.75,0.078125 0.890625,0.453125 z m 0,0"
           id="path9620" />
      </symbol>
      <symbol
         overflow="visible"
         id="symbol5198">
        <path
           style="stroke:none"
           d="m 7.578125,-6.921875 c 0,-0.03125 -0.015625,-0.109375 -0.109375,-0.109375 -0.03125,0 -0.046875,0.015625 -0.15625,0.125 L 6.625,-6.140625 C 6.53125,-6.28125 6.078125,-7.03125 4.96875,-7.03125 2.734375,-7.03125 0.5,-4.828125 0.5,-2.515625 0.5,-0.875 1.671875,0.21875 3.203125,0.21875 c 0.859375,0 1.625,-0.390625 2.15625,-0.859375 0.921875,-0.8125 1.09375,-1.71875 1.09375,-1.75 C 6.453125,-2.5 6.34375,-2.5 6.328125,-2.5 c -0.0625,0 -0.109375,0.03125 -0.125,0.109375 -0.09375,0.28125 -0.328125,1 -1.015625,1.578125 -0.6875,0.546875 -1.3125,0.71875 -1.828125,0.71875 -0.890625,0 -1.953125,-0.515625 -1.953125,-2.0625 0,-0.578125 0.203125,-2.1875 1.203125,-3.359375 0.609375,-0.703125 1.546875,-1.203125 2.4375,-1.203125 1.015625,0 1.609375,0.765625 1.609375,1.921875 0,0.40625 -0.03125,0.40625 -0.03125,0.515625 0,0.09375 0.109375,0.09375 0.140625,0.09375 0.125,0 0.125,-0.015625 0.1875,-0.203125 z m 0,0"
           id="path5436" />
      </symbol>
      <symbol
         overflow="visible"
         id="symbol4173">
        <path
           style="stroke:none"
           d=""
           id="path3687" />
      </symbol>
      <symbol
         overflow="visible"
         id="symbol9396">
        <path
           style="stroke:none"
           d="m 6.84375,-3.265625 c 0.15625,0 0.34375,0 0.34375,-0.1875 C 7.1875,-3.65625 7,-3.65625 6.859375,-3.65625 h -5.96875 c -0.140625,0 -0.328125,0 -0.328125,0.203125 0,0.1875 0.1875,0.1875 0.328125,0.1875 z m 0.015625,1.9375 c 0.140625,0 0.328125,0 0.328125,-0.203125 0,-0.1875 -0.1875,-0.1875 -0.34375,-0.1875 H 0.890625 c -0.140625,0 -0.328125,0 -0.328125,0.1875 0,0.203125 0.1875,0.203125 0.328125,0.203125 z m 0,0"
           id="path6736" />
      </symbol>
    </g>
    <g
       id="g4158">
      <symbol
         overflow="visible"
         id="symbol5425">
        <path
           style="stroke:none"
           d=""
           id="path8573" />
      </symbol>
      <symbol
         overflow="visible"
         id="symbol9502">
        <path
           style="stroke:none"
           d="M 3.890625,-3.734375 C 3.625,-3.71875 3.421875,-3.5 3.421875,-3.28125 c 0,0.140625 0.09375,0.296875 0.3125,0.296875 0.21875,0 0.453125,-0.171875 0.453125,-0.5625 C 4.1875,-4 3.765625,-4.40625 3,-4.40625 c -1.3125,0 -1.6875,1.015625 -1.6875,1.453125 0,0.78125 0.734375,0.921875 1.03125,0.984375 0.515625,0.109375 1.03125,0.21875 1.03125,0.765625 0,0.25 -0.21875,1.09375 -1.421875,1.09375 -0.140625,0 -0.90625,0 -1.140625,-0.53125 0.390625,0.046875 0.640625,-0.25 0.640625,-0.53125 0,-0.21875 -0.171875,-0.34375 -0.375,-0.34375 -0.265625,0 -0.5625,0.203125 -0.5625,0.65625 0,0.5625 0.578125,0.96875 1.421875,0.96875 1.625,0 2.015625,-1.203125 2.015625,-1.65625 0,-0.359375 -0.1875,-0.609375 -0.3125,-0.71875 -0.265625,-0.28125 -0.5625,-0.34375 -1,-0.421875 -0.359375,-0.078125 -0.75,-0.15625 -0.75,-0.609375 C 1.890625,-3.578125 2.125,-4.1875 3,-4.1875 c 0.25,0 0.75,0.078125 0.890625,0.453125 z m 0,0"
           id="path3393" />
      </symbol>
    </g>
  </defs>
  <g
     inkscape:label="Layer 1"
     inkscape:groupmode="layer"
     id="layer1"
     transform="translate(462.25107,-146.15528)">
    <path
       style="fill:none;stroke:#000000;stroke-width:0.24566;stroke-linecap:butt;stroke-linejoin:miter;stroke-miterlimit:4;stroke-dasharray:none;stroke-opacity:0.2"
       d="m -306.89333,202.35205 -18.73983,19.74003 h 53.70019 l 26.07698,-27.46877 h -18.73985"
       id="path4674"
       sodipodi:nodetypes="ccccc" />
    <path
       style="fill:#e6194b;fill-opacity:0.301961;stroke:none;stroke-width:0.223328px;stroke-linecap:butt;stroke-linejoin:miter;stroke-opacity:1"
       d="m -395.05012,183.33335 h 3.25456 l -4.87765,5.13798 1.7657,-0.3052 16.08324,-7.63745 z"
       id="path6916" />
    <path
       style="fill:#e6194b;fill-opacity:0.301961;stroke:none;stroke-width:0.223328px;stroke-linecap:butt;stroke-linejoin:miter;stroke-opacity:1"
       d="m -430.207,194.26774 13.34206,-6.33576 -4.57632,4.82057 z"
       id="path6848" />
    <path
       style="fill:#4363d8;fill-opacity:0.301961;stroke:none;stroke-width:0.223328px;stroke-linecap:butt;stroke-linejoin:miter;stroke-opacity:1"
       d="m -421.44127,192.75255 -1.11184,1.17119 h 20.70376 l 5.17614,-5.45241 z"
       id="path6667" />
    <path
       style="fill:#4363d8;fill-opacity:0.301961;stroke:none;stroke-width:0.223328px;stroke-linecap:butt;stroke-linejoin:miter;stroke-opacity:1"
       d="m -412.4993,183.33335 -4.36564,4.59864 2.74118,-1.30169 19.07364,-3.29695 z"
       id="path4777" />
    <path
       style="fill:none;fill-opacity:0.501961;stroke:#000000;stroke-width:0.223328;stroke-miterlimit:4;stroke-dasharray:0.893307, 0.446655;stroke-dashoffset:0;stroke-opacity:0.5"
       d="m -421.44126,192.75255 8.94196,-9.41919 h 20.70374"
       id="path2997"
       sodipodi:nodetypes="ccc" />
    <path
       style="fill:none;fill-opacity:0.501961;stroke:#000000;stroke-width:0.223339;stroke-miterlimit:4;stroke-dasharray:0.893357, 0.446679;stroke-dashoffset:0;stroke-opacity:0.5"
       d="m -391.79556,183.33336 -4.87765,5.13797"
       id="rect1374"
       sodipodi:nodetypes="cc" />
    <path
       style="fill:none;stroke:#000000;stroke-width:0.223328px;stroke-linecap:butt;stroke-linejoin:miter;stroke-opacity:1"
       d="M -430.207,194.26774 V 165.65168"
       id="path1573"
       sodipodi:nodetypes="cc" />
    <path
       style="fill:none;stroke:#000000;stroke-width:0.223328px;stroke-linecap:butt;stroke-linejoin:miter;stroke-opacity:1"
       d="m -394.90751,188.16613 16.08324,-7.63745"
       id="path3540" />
    <path
       style="fill:none;stroke:#000000;stroke-width:0.223328;stroke-linecap:butt;stroke-linejoin:miter;stroke-miterlimit:4;stroke-dasharray:0.893307, 0.446654;stroke-dashoffset:0;stroke-opacity:0.5"
       d="m -430.207,194.26774 16.08324,-7.63744 35.29949,-6.10162"
       id="path2177"
       sodipodi:nodetypes="ccc" />
    <path
       style="fill:none;stroke:#000000;stroke-width:0.223328px;stroke-linecap:butt;stroke-linejoin:miter;stroke-opacity:1"
       d="m -430.207,194.26774 35.29949,-6.10161"
       id="path3617"
       sodipodi:nodetypes="cc" />
    <path
       style="fill:none;stroke:#000000;stroke-width:0.223328px;stroke-linecap:butt;stroke-linejoin:miter;stroke-opacity:1"
       d="M -401.84935,213.65289 V 193.92374"
       id="path4481"
       sodipodi:nodetypes="cc" />
    <path
       style="fill:none;stroke:#000000;stroke-width:0.223328px;stroke-linecap:butt;stroke-linejoin:miter;stroke-opacity:1"
       d="M -391.79556,203.06251 V 183.33336"
       id="path4483"
       sodipodi:nodetypes="cc" />
    <path
       style="fill:none;stroke:#000000;stroke-width:0.223328;stroke-linecap:butt;stroke-linejoin:miter;stroke-miterlimit:4;stroke-dasharray:0.893307, 0.446655;stroke-dashoffset:0;stroke-opacity:0.5"
       d="M -412.4993,203.0625 V 183.33335"
       id="path4485"
       sodipodi:nodetypes="cc" />
    <path
       style="fill:none;stroke:#000000;stroke-width:0.223328px;stroke-linecap:butt;stroke-linejoin:miter;stroke-opacity:1"
       d="M -394.90751,188.16613 V 159.55007"
       id="path14584"
       sodipodi:nodetypes="cc" />
    <path
       style="fill:none;stroke:#000000;stroke-width:0.223328px;stroke-linecap:butt;stroke-linejoin:miter;stroke-opacity:1"
       d="M -378.82427,180.52868 V 151.91262"
       id="path14586"
       sodipodi:nodetypes="cc" />
    <path
       style="fill:none;stroke:#000000;stroke-width:0.223679;stroke-linecap:butt;stroke-linejoin:miter;stroke-miterlimit:4;stroke-dasharray:0.894717, 0.447358;stroke-dashoffset:0;stroke-opacity:0.5"
       d="M -414.12376,186.6303 V 158.01424"
       id="path14588"
       sodipodi:nodetypes="cc" />
    <path
       style="fill:#000000;fill-opacity:0.1;stroke:none;stroke-width:0.223328px;stroke-linecap:butt;stroke-linejoin:miter;stroke-opacity:0.1"
       d="m -430.207,165.65168 35.29949,-6.10161 16.08324,-7.63745 -35.29949,6.10162 z"
       id="path21134"
       sodipodi:nodetypes="ccccc" />
    <path
       style="fill:#000000;fill-opacity:0.1;stroke:none;stroke-width:0.223328px;stroke-linecap:butt;stroke-linejoin:miter;stroke-opacity:0.1"
       d="m -422.55311,213.65289 h 20.70376 l 10.05379,-10.59038 -20.70374,-1e-5 z"
       id="path21169"
       sodipodi:nodetypes="ccccc" />
    <path
       style="fill:none;stroke:#000000;stroke-width:0.223328;stroke-linecap:butt;stroke-linejoin:miter;stroke-miterlimit:4;stroke-dasharray:none;stroke-opacity:0.2"
       d="m -441.75634,201.11435 h 48.81836 l 23.70634,-24.97161 h -48.81835 z"
       id="path22564" />
    <path
       style="fill:none;stroke:#000000;stroke-width:0.223328;stroke-linecap:butt;stroke-linejoin:miter;stroke-miterlimit:4;stroke-dasharray:none;stroke-opacity:0.2"
       d="m -423.02682,201.11435 -18.72952,19.72914 h 48.81836 l 23.70634,-24.97159 h -18.7295"
       id="path23379"
       sodipodi:nodetypes="ccccc" />
    <path
       style="fill:none;stroke:#000000;stroke-width:0.223328;stroke-linecap:butt;stroke-linejoin:miter;stroke-miterlimit:4;stroke-dasharray:none;stroke-opacity:0.2"
       d="m -441.75634,172.4983 h 48.81836 l 23.70634,-24.97161 h -48.81835 z"
       id="path23755" />
    <path
       style="fill:#e6194b;fill-opacity:0.301961;stroke:none;stroke-width:0.223328px;stroke-linecap:butt;stroke-linejoin:miter;stroke-opacity:1"
       d="m -275.30071,183.32247 h 3.25457 l -4.87766,5.13798 1.76571,-0.3052 16.08323,-7.63745 z"
       id="path18256" />
    <path
       style="fill:#e6194b;fill-opacity:0.301961;stroke:none;stroke-width:0.223328px;stroke-linecap:butt;stroke-linejoin:miter;stroke-opacity:1"
       d="m -310.45759,194.25686 13.34207,-6.33576 -4.57632,4.82057 z"
       id="path18220" />
    <path
       style="fill:#4363d8;fill-opacity:0.301961;stroke:none;stroke-width:0.223328px;stroke-linecap:butt;stroke-linejoin:miter;stroke-opacity:1"
       d="m -301.69185,192.74167 -1.11184,1.17119 h 20.70375 l 5.17614,-5.45241 z"
       id="path18222" />
    <path
       style="fill:#4363d8;fill-opacity:0.301961;stroke:none;stroke-width:0.223328px;stroke-linecap:butt;stroke-linejoin:miter;stroke-opacity:1"
       d="m -292.74989,183.32247 -4.36563,4.59864 2.74117,-1.3017 19.07364,-3.29694 z"
       id="path18224" />
    <path
       style="fill:none;fill-opacity:0.501961;stroke:#000000;stroke-width:0.223328;stroke-miterlimit:4;stroke-dasharray:0.893307, 0.446655;stroke-dashoffset:0;stroke-opacity:0.5"
       d="m -301.69185,192.74167 8.94197,-9.4192 h 20.70375 l -4.87767,5.13798"
       id="path18228"
       sodipodi:nodetypes="ccc" />
    <path
       style="fill:none;fill-opacity:0.501961;stroke:#000000;stroke-width:0.223328"
       d="m -276.9238,188.46045 -5.17614,5.45241 h -20.70375 l 1.11184,-1.17119"
       id="path18230"
       sodipodi:nodetypes="cccc" />
    <path
       style="fill:none;stroke:#e6194b;stroke-width:0.223328px;stroke-linecap:butt;stroke-linejoin:miter;stroke-opacity:1"
       d="m -310.45759,194.25686 -5.4142,-27.16258"
       id="path18232"
       sodipodi:nodetypes="cc" />
    <path
       style="fill:none;stroke:#000000;stroke-width:0.223328px;stroke-linecap:butt;stroke-linejoin:miter;stroke-opacity:1"
       d="m -275.15809,188.15525 16.08323,-7.63745"
       id="path18234" />
    <path
       style="fill:none;stroke:#000000;stroke-width:0.223328;stroke-linecap:butt;stroke-linejoin:miter;stroke-miterlimit:4;stroke-dasharray:0.893307, 0.446654;stroke-dashoffset:0;stroke-opacity:0.5;marker-start:url(#DotM)"
       d="m -297.11552,187.9211 -13.34207,6.33576"
       id="path18238"
       sodipodi:nodetypes="cc" />
    <path
       style="fill:none;stroke:#000000;stroke-width:0.223328;stroke-linecap:butt;stroke-linejoin:miter;stroke-miterlimit:4;stroke-dasharray:none;stroke-dashoffset:0;stroke-opacity:1;marker-mid:url(#DotM)"
       d="m -310.45759,194.25686 8.76575,-1.51519 24.76804,-4.28122 1.76571,-0.3052"
       id="path18244"
       sodipodi:nodetypes="cccc" />
    <path
       style="fill:none;stroke:#e6194b;stroke-width:0.223328px;stroke-linecap:butt;stroke-linejoin:miter;stroke-opacity:0.967872"
       d="m -283.07118,212.6468 0.97124,-18.73394"
       id="path18248"
       sodipodi:nodetypes="cc" />
    <path
       style="fill:none;stroke:#e6194b;stroke-width:0.223328px;stroke-linecap:butt;stroke-linejoin:miter;stroke-opacity:1"
       d="m -274.92761,204.0686 2.88147,-20.74612"
       id="path18250"
       sodipodi:nodetypes="cc" />
    <path
       style="fill:none;stroke:#e6194b;stroke-width:0.223328;stroke-linecap:butt;stroke-linejoin:miter;stroke-miterlimit:4;stroke-dasharray:0.893307, 0.446655;stroke-dashoffset:0;stroke-opacity:0.5"
       d="m -291.69764,204.06858 -1.05225,-20.74611"
       id="path18252"
       sodipodi:nodetypes="cc" />
    <path
       style="fill:none;stroke:#000000;stroke-width:0.223328;stroke-linecap:butt;stroke-linejoin:miter;stroke-miterlimit:4;stroke-dasharray:0.893307, 0.446654;stroke-dashoffset:0;stroke-opacity:0.5;marker-end:url(#DotM)"
       d="m -259.07486,180.5178 -16.22585,2.80467"
       id="path18258"
       sodipodi:nodetypes="cc" />
    <path
       style="fill:none;stroke:#e6194b;stroke-width:0.223328px;stroke-linecap:butt;stroke-linejoin:miter;stroke-opacity:1"
       d="m -275.15809,188.15525 1.99867,-28.44392"
       id="path18260"
       sodipodi:nodetypes="cc" />
    <path
       style="fill:none;stroke:#e6194b;stroke-width:0.223328px;stroke-linecap:butt;stroke-linejoin:miter;stroke-opacity:1"
       d="m -259.07486,180.5178 5.37616,-30.04778"
       id="path18262"
       sodipodi:nodetypes="cc" />
    <path
       style="fill:none;stroke:#e6194b;stroke-width:0.223679;stroke-linecap:butt;stroke-linejoin:miter;stroke-miterlimit:4;stroke-dasharray:0.894717, 0.447358;stroke-dashoffset:0;stroke-opacity:0.5"
       d="m -294.37435,186.61941 -2.03673,-28.76643"
       id="path18264"
       sodipodi:nodetypes="cc" />
    <path
       style="fill:none;stroke:#e6194b;stroke-width:0.223328px;stroke-linecap:butt;stroke-linejoin:miter;stroke-opacity:1"
       d="m -299.84122,212.6468 -2.96247,-18.73394"
       id="path18266"
       sodipodi:nodetypes="cc" />
    <path
       style="fill:#4363d8;fill-opacity:0.3;stroke:none;stroke-width:0.0630742px;stroke-linecap:butt;stroke-linejoin:miter;stroke-opacity:1"
       d="m -210.24466,186.56505 10.98185,-0.12297 -15.81774,7.51974 c 2.14167,-0.99202 2.33647,-7.39683 4.83589,-7.39677 z"
       id="path29402"
       sodipodi:nodetypes="cccc" />
    <path
       style="fill:#e6194b;fill-opacity:0.3;stroke:none;stroke-width:0.223679;stroke-linecap:butt;stroke-linejoin:miter;stroke-miterlimit:4;stroke-dasharray:none;stroke-opacity:1"
       d="m -207.51757,209.78006 h 15.50126 v -38.90092 h -26.37678 c 0,12.24408 0,23.21507 2.71888,23.21507 0.21123,0 0.40603,-0.0454 0.59365,-0.13239 2.14833,-0.99514 2.34313,-7.39995 4.84335,-7.39836 2.71964,0.002 2.71964,10.97252 2.71964,23.2166 z"
       id="path27183"
       sodipodi:nodetypes="ccccsccc" />
    <path
       style="fill:none;stroke:#000000;stroke-width:0.223328;stroke-linecap:butt;stroke-linejoin:miter;stroke-miterlimit:4;stroke-dasharray:none;stroke-opacity:0.995984;marker-end:url(#DotM)"
       d="m -210.25287,186.56509 10.99006,-0.12301"
       id="path27780"
       sodipodi:nodetypes="cc" />
    <path
       id="path32398"
       style="opacity:1;fill:none;fill-opacity:0.3;stroke:#000000;stroke-width:0.148885;stroke-opacity:0.995984"
       d="m -271.89695,188.46046 a 5.0268173,2.5134087 0 0 1 -5.02682,2.51341 5.0268173,2.5134087 0 0 1 -5.02681,-2.51341 5.0268173,2.5134087 0 0 1 5.02681,-2.5134 5.0268173,2.5134087 0 0 1 5.02682,2.5134 z" />
    <path
       style="fill:none;stroke:#000000;stroke-width:0.297433;stroke-linecap:butt;stroke-linejoin:miter;stroke-miterlimit:4;stroke-dasharray:none;stroke-opacity:1;marker-end:url(#Arrow1Mend)"
       d="m -362.29147,192.22493 h 25.39592"
       id="path33458" />
    <path
       d="m -352.80347,184.23308 v 1.28679 h 0.91487 v 0.29926 h -0.91487 v 2.53938 q 0,0.38048 0.10688,0.513 0.11115,0.13253 0.28215,0.13253 0.14108,0 0.27361,-0.0855 0.13252,-0.0898 0.2052,-0.26078 h 0.16673 q -0.14963,0.41896 -0.42323,0.63271 -0.27361,0.20948 -0.56431,0.20948 -0.19665,0 -0.38475,-0.10688 -0.18811,-0.11115 -0.27788,-0.31208 -0.0898,-0.2052 -0.0898,-0.62843 v -2.63343 h -0.61988 v -0.14108 q 0.23513,-0.0941 0.4788,-0.31635 0.24796,-0.22658 0.44033,-0.53439 0.0983,-0.16245 0.27361,-0.59423 z"
       id="path909"
       style="font-size:8.75531px;line-height:1.25;font-family:serif;-inkscape-font-specification:serif;stroke-width:0.218881" />
    <path
       d="m -350.51204,183.3567 q 0.17956,0 0.30353,0.12825 0.12825,0.12397 0.12825,0.30353 0,0.17955 -0.12825,0.3078 -0.12397,0.12825 -0.30353,0.12825 -0.17955,0 -0.3078,-0.12825 -0.12825,-0.12825 -0.12825,-0.3078 0,-0.17956 0.12397,-0.30353 0.12826,-0.12825 0.31208,-0.12825 z m 0.35483,2.04775 v 3.14644 q 0,0.36765 0.0513,0.49163 0.0556,0.1197 0.15818,0.17955 0.10688,0.0599 0.38476,0.0599 v 0.1539 h -1.9024 v -0.1539 q 0.28642,0 0.38475,-0.0556 0.0983,-0.0556 0.1539,-0.18382 0.0598,-0.12826 0.0598,-0.49163 v -1.5091 q 0,-0.63698 -0.0385,-0.82508 -0.0299,-0.13681 -0.094,-0.18811 -0.0641,-0.0556 -0.17528,-0.0556 -0.1197,0 -0.2907,0.0641 l -0.0598,-0.1539 1.17991,-0.4788 z"
       id="path911"
       style="font-size:8.75531px;line-height:1.25;font-family:serif;-inkscape-font-specification:serif;stroke-width:0.218881" />
    <path
       d="m -347.72898,183.3567 v 5.19419 q 0,0.36765 0.0513,0.48735 0.0556,0.1197 0.16673,0.18383 0.11115,0.0599 0.41468,0.0599 v 0.1539 h -1.9195 v -0.1539 q 0.26933,0 0.36766,-0.0556 0.0983,-0.0556 0.1539,-0.18382 0.0556,-0.12826 0.0556,-0.49163 v -3.55685 q 0,-0.66263 -0.0299,-0.81226 -0.0299,-0.1539 -0.0983,-0.20948 -0.0641,-0.0556 -0.16672,-0.0556 -0.11116,0 -0.28216,0.0684 l -0.0727,-0.14963 1.16709,-0.4788 z"
       id="path913"
       style="font-size:8.75531px;line-height:1.25;font-family:serif;-inkscape-font-specification:serif;stroke-width:0.218881" />
    <path
       d="m -345.50595,184.23308 v 1.28679 h 0.91486 v 0.29926 h -0.91486 v 2.53938 q 0,0.38048 0.10688,0.513 0.11115,0.13253 0.28215,0.13253 0.14108,0 0.2736,-0.0855 0.13253,-0.0898 0.20521,-0.26078 h 0.16672 q -0.14962,0.41896 -0.42323,0.63271 -0.2736,0.20948 -0.5643,0.20948 -0.19666,0 -0.38476,-0.10688 -0.1881,-0.11115 -0.27788,-0.31208 -0.0898,-0.2052 -0.0898,-0.62843 v -2.63343 h -0.61989 v -0.14108 q 0.23513,-0.0941 0.47881,-0.31635 0.24795,-0.22658 0.44033,-0.53439 0.0983,-0.16245 0.2736,-0.59423 z"
       id="path915"
       style="font-size:8.75531px;line-height:1.25;font-family:serif;-inkscape-font-specification:serif;stroke-width:0.218881" />
    <path
       d="m -248.29162,182.0677 v 0.88066 q 0.49163,-0.88066 1.00891,-0.88066 0.23513,0 0.38903,0.14535 0.1539,0.14108 0.1539,0.32918 0,0.16673 -0.11115,0.28215 -0.11115,0.11543 -0.26505,0.11543 -0.14963,0 -0.33773,-0.14535 -0.18383,-0.14963 -0.2736,-0.14963 -0.077,0 -0.16673,0.0855 -0.19238,0.17528 -0.39758,0.57714 v 1.87674 q 0,0.32491 0.0812,0.49163 0.0556,0.11543 0.19665,0.19238 0.14108,0.0769 0.40613,0.0769 v 0.15391 h -2.005 v -0.15391 q 0.29925,0 0.4446,-0.094 0.10688,-0.0684 0.14963,-0.21803 0.0214,-0.0727 0.0214,-0.41468 v -1.51764 q 0,-0.68401 -0.0299,-0.81226 -0.0257,-0.13253 -0.1026,-0.19238 -0.0727,-0.0599 -0.18383,-0.0599 -0.13252,0 -0.29925,0.0641 l -0.0428,-0.1539 1.18419,-0.47881 z"
       id="path918"
       style="font-size:8.75531px;line-height:1.25;font-family:serif;-inkscape-font-specification:serif;stroke-width:0.218881" />
    <path
       d="m -244.60652,182.0677 q 0.88921,0 1.42786,0.67546 0.45744,0.57713 0.45744,1.32526 0,0.52584 -0.25223,1.06449 -0.25223,0.53866 -0.69684,0.81226 -0.44033,0.27361 -0.98326,0.27361 -0.88493,0 -1.40649,-0.70539 -0.44033,-0.59423 -0.44033,-1.33381 0,-0.53866 0.26505,-1.06877 0.26933,-0.53438 0.70539,-0.78661 0.43605,-0.2565 0.92341,-0.2565 z m -0.13253,0.27788 q -0.22658,0 -0.45743,0.1368 -0.22658,0.13253 -0.36766,0.47026 -0.14107,0.33773 -0.14107,0.86783 0,0.85501 0.33773,1.4749 0.342,0.61988 0.89776,0.61988 0.41468,0 0.68401,-0.34201 0.26933,-0.342 0.26933,-1.17564 0,-1.04311 -0.44889,-1.64162 -0.30352,-0.4104 -0.77378,-0.4104 z"
       id="path920"
       style="font-size:8.75531px;line-height:1.25;font-family:serif;-inkscape-font-specification:serif;stroke-width:0.218881" />
    <path
       d="m -238.71122,182.18313 v 2.37265 q 0,0.67973 0.0299,0.83364 0.0342,0.14962 0.1026,0.20947 0.0727,0.0598 0.16673,0.0598 0.13253,0 0.29925,-0.0727 l 0.0598,0.14963 -1.17136,0.48308 h -0.19238 v -0.82936 q -0.50445,0.5472 -0.76951,0.68828 -0.26505,0.14108 -0.56003,0.14108 -0.32918,0 -0.57286,-0.18811 -0.2394,-0.19237 -0.33345,-0.49163 -0.0941,-0.29925 -0.0941,-0.84646 v -1.74849 q 0,-0.27788 -0.0599,-0.38476 -0.0598,-0.10688 -0.17956,-0.16245 -0.11542,-0.0599 -0.42323,-0.0556 v -0.15817 h 1.3723 v 2.6206 q 0,0.54721 0.1881,0.71821 0.19238,0.17101 0.4617,0.17101 0.18383,0 0.41468,-0.11543 0.23513,-0.11543 0.55576,-0.44033 v -2.21875 q 0,-0.33346 -0.12397,-0.44889 -0.11971,-0.1197 -0.50446,-0.12825 v -0.15817 z"
       id="path922"
       style="font-size:8.75531px;line-height:1.25;font-family:serif;-inkscape-font-specification:serif;stroke-width:0.218881" />
    <path
       d="m -236.625,182.89706 q 0.68829,-0.82936 1.31244,-0.82936 0.32063,0 0.55149,0.16245 0.23085,0.15818 0.36765,0.52583 0.094,0.25651 0.094,0.78661 v 1.67155 q 0,0.37193 0.0599,0.50446 0.047,0.10687 0.14963,0.16672 0.10688,0.0598 0.38903,0.0598 v 0.15391 h -1.9366 v -0.15391 h 0.0812 q 0.2736,0 0.38048,-0.0812 0.11115,-0.0855 0.1539,-0.24796 0.0171,-0.0641 0.0171,-0.40185 v -1.60315 q 0,-0.53438 -0.14108,-0.77378 -0.1368,-0.24368 -0.46598,-0.24368 -0.50873,0 -1.01319,0.55576 v 2.06485 q 0,0.39758 0.047,0.49163 0.0598,0.12398 0.16245,0.18383 0.10688,0.0556 0.4275,0.0556 v 0.15391 h -1.93659 v -0.15391 h 0.0855 q 0.29925,0 0.40185,-0.14962 0.10688,-0.15391 0.10688,-0.58141 v -1.45352 q 0,-0.70538 -0.0342,-0.85928 -0.0299,-0.15391 -0.0983,-0.20948 -0.0641,-0.0556 -0.17528,-0.0556 -0.1197,0 -0.28642,0.0641 l -0.0641,-0.1539 1.17991,-0.47881 h 0.18383 z"
       id="path924"
       style="font-size:8.75531px;line-height:1.25;font-family:serif;-inkscape-font-specification:serif;stroke-width:0.218881" />
    <path
       d="m -230.62282,185.65874 q -0.28643,0.29926 -0.56003,0.43179 -0.27361,0.12825 -0.58996,0.12825 -0.64126,0 -1.12007,-0.53438 -0.4788,-0.53866 -0.4788,-1.38085 0,-0.84218 0.5301,-1.53902 0.53011,-0.70111 1.36375,-0.70111 0.51728,0 0.85501,0.32918 v -0.72248 q 0,-0.67118 -0.0342,-0.82509 -0.0299,-0.1539 -0.0983,-0.20947 -0.0684,-0.0556 -0.171,-0.0556 -0.11115,0 -0.29498,0.0684 l -0.0556,-0.14963 1.16709,-0.4788 h 0.19238 v 4.52728 q 0,0.68828 0.0299,0.84219 0.0342,0.14962 0.1026,0.20947 0.0727,0.0598 0.16672,0.0598 0.11543,0 0.30781,-0.0727 l 0.047,0.14963 -1.16281,0.48308 h -0.19665 z m 0,-0.29925 v -2.01782 q -0.0257,-0.29071 -0.1539,-0.53011 -0.12826,-0.2394 -0.34201,-0.35911 -0.20948,-0.12397 -0.4104,-0.12397 -0.37621,0 -0.67119,0.33773 -0.38903,0.4446 -0.38903,1.29961 0,0.86356 0.37621,1.32527 0.3762,0.45743 0.83791,0.45743 0.38903,0 0.75241,-0.38903 z"
       id="path926"
       style="font-size:8.75531px;line-height:1.25;font-family:serif;-inkscape-font-specification:serif;stroke-width:0.218881" />
    <path
       style="fill:none;stroke:#000000;stroke-width:0.24566;stroke-linecap:butt;stroke-linejoin:miter;stroke-miterlimit:4;stroke-dasharray:none;stroke-opacity:0.2"
       d="m -325.63316,173.74688 h 53.70019 l 26.07698,-27.46877 h -53.7002 z"
       id="path1597" />
    <path
       style="fill:none;stroke:#000000;stroke-width:0.24566;stroke-linecap:butt;stroke-linejoin:miter;stroke-miterlimit:4;stroke-dasharray:none;stroke-opacity:0.2"
       d="m -325.63316,202.35205 h 53.70019 l 26.07698,-27.46878 h -53.7002 z"
       id="path1511" />
    <path
       style="fill:none;fill-opacity:0.501961;stroke:#000000;stroke-width:0.223328"
       d="m -396.67321,188.47133 -5.17614,5.45241 h -20.70376 v 19.72915"
       id="path2026"
       sodipodi:nodetypes="cccc" />
    <path
       style="fill:none;stroke:#000000;stroke-width:0.223339;stroke-linecap:butt;stroke-linejoin:miter;stroke-miterlimit:4;stroke-dasharray:none;stroke-opacity:1"
       d="m -422.55311,193.92374 1.11185,-1.17119"
       id="path2327" />
    <path
       style="fill:#000000;fill-opacity:0.1;stroke:none;stroke-width:0.270227px;stroke-linecap:butt;stroke-linejoin:miter;stroke-opacity:0.1"
       d="m -315.87179,167.09428 42.71237,-7.38295 19.46072,-9.24131 -42.71238,7.38296 z"
       id="path4132"
       sodipodi:nodetypes="ccccc" />
    <path
       style="fill:#000000;fill-opacity:0.1;stroke:none;stroke-width:0.180895px;stroke-linecap:butt;stroke-linejoin:miter;stroke-opacity:0.1"
       d="m -299.84122,212.6468 h 16.77004 l 8.14357,-8.5782 -16.77003,-2e-5 z"
       id="path4214"
       sodipodi:nodetypes="ccccc" />
    <path
       style="fill:none;stroke:#000000;stroke-width:0.297433;stroke-linecap:butt;stroke-linejoin:miter;stroke-miterlimit:4;stroke-dasharray:none;stroke-opacity:1;marker-end:url(#Arrow1Mend)"
       d="m -270.67871,188.83664 h 47.48646"
       id="path2151"
       sodipodi:nodetypes="cc" />
    <path
       id="ellipse3535"
       style="opacity:1;fill:none;fill-opacity:0.3;stroke:#000000;stroke-width:0.102529;stroke-opacity:0.995984"
       d="m -271.87377,188.46046 a 5.0500002,1.1864963 0 0 1 -2.525,1.02754 5.0500002,1.1864963 0 0 1 -5.05,0 5.0500002,1.1864963 0 0 1 -2.525,-1.02754" />
    <path
       style="fill:none;stroke:#000000;stroke-width:0.264583px;stroke-linecap:butt;stroke-linejoin:miter;stroke-opacity:1"
       d="m -215.07391,193.9587 6.89239,-3.27665"
       id="path1034" />
    <path
       style="fill:none;stroke:#000000;stroke-width:0.264583;stroke-linecap:butt;stroke-linejoin:miter;stroke-miterlimit:4;stroke-dasharray:1.05833, 0.529166;stroke-dashoffset:0;stroke-opacity:0.5"
       d="m -208.18152,190.68203 8.91871,-4.23995"
       id="path1396" />
    <g
       inkscape:label=""
       transform="matrix(0.729,0,0,0.729,-529.64029,138.13602)"
       id="g1081">
      <g
         id="g4290">
        <g
           style="fill:#000000;fill-opacity:1"
           id="g8322">
          <use
             xlink:href="#symbol6011"
             x="91.925003"
             y="81.962997"
             id="use4072"
             width="100%"
             height="100%" />
        </g>
        <g
           style="fill:#000000;fill-opacity:1"
           id="g3568">
          <use
             xlink:href="#symbol9396"
             x="99.362999"
             y="81.962997"
             id="use1952"
             width="100%"
             height="100%" />
        </g>
        <g
           style="fill:#000000;fill-opacity:1"
           id="g738">
          <use
             xlink:href="#symbol5198"
             x="109.879"
             y="81.962997"
             id="use4552"
             width="100%"
             height="100%" />
        </g>
      </g>
    </g>
    <g
       inkscape:label=""
       transform="translate(-546.77725,73.80811)"
       id="g1385">
      <g
         id="g4448">
        <g
           style="fill:#000000;fill-opacity:1"
           id="g3471">
          <use
             xlink:href="#symbol9502"
             x="91.925003"
             y="81.962997"
             id="use9851"
             width="100%"
             height="100%" />
        </g>
      </g>
    </g>
    <path
       style="fill:none;stroke:#000000;stroke-width:0.297433;stroke-linecap:butt;stroke-linejoin:miter;stroke-miterlimit:4;stroke-dasharray:none;stroke-opacity:1;marker-end:url(#Arrow1Mend)"
       d="M -447.2196,163.70329 V 150.4782"
       id="path1532"
       sodipodi:nodetypes="cc" />
  </g>
  <script
     id="mesh_polyfill"
     type="text/javascript">
!function(){const t=&quot;http://www.w3.org/2000/svg&quot;,e=&quot;http://www.w3.org/1999/xlink&quot;,s=&quot;http://www.w3.org/1999/xhtml&quot;,r=2;if(document.createElementNS(t,&quot;meshgradient&quot;).x)return;const n=(t,e,s,r)=&gt;{let n=new x(.5*(e.x+s.x),.5*(e.y+s.y)),o=new x(.5*(t.x+e.x),.5*(t.y+e.y)),i=new x(.5*(s.x+r.x),.5*(s.y+r.y)),a=new x(.5*(n.x+o.x),.5*(n.y+o.y)),h=new x(.5*(n.x+i.x),.5*(n.y+i.y)),l=new x(.5*(a.x+h.x),.5*(a.y+h.y));return[[t,o,a,l],[l,h,i,r]]},o=t=&gt;{let e=t[0].distSquared(t[1]),s=t[2].distSquared(t[3]),r=.25*t[0].distSquared(t[2]),n=.25*t[1].distSquared(t[3]),o=e&gt;s?e:s,i=r&gt;n?r:n;return 18*(o&gt;i?o:i)},i=(t,e)=&gt;Math.sqrt(t.distSquared(e)),a=(t,e)=&gt;t.scale(2/3).add(e.scale(1/3)),h=t=&gt;{let e,s,r,n,o,i,a,h=new g;return t.match(/(\w+\(\s*[^)]+\))+/g).forEach(t=&gt;{let l=t.match(/[\w.-]+/g),d=l.shift();switch(d){case&quot;translate&quot;:2===l.length?e=new g(1,0,0,1,l[0],l[1]):(console.error(&quot;mesh.js: translate does not have 2 arguments!&quot;),e=new g(1,0,0,1,0,0)),h=h.append(e);break;case&quot;scale&quot;:1===l.length?s=new g(l[0],0,0,l[0],0,0):2===l.length?s=new g(l[0],0,0,l[1],0,0):(console.error(&quot;mesh.js: scale does not have 1 or 2 arguments!&quot;),s=new g(1,0,0,1,0,0)),h=h.append(s);break;case&quot;rotate&quot;:if(3===l.length&amp;&amp;(e=new g(1,0,0,1,l[1],l[2]),h=h.append(e)),l[0]){r=l[0]*Math.PI/180;let t=Math.cos(r),e=Math.sin(r);Math.abs(t)&lt;1e-16&amp;&amp;(t=0),Math.abs(e)&lt;1e-16&amp;&amp;(e=0),a=new g(t,e,-e,t,0,0),h=h.append(a)}else console.error(&quot;math.js: No argument to rotate transform!&quot;);3===l.length&amp;&amp;(e=new g(1,0,0,1,-l[1],-l[2]),h=h.append(e));break;case&quot;skewX&quot;:l[0]?(r=l[0]*Math.PI/180,n=Math.tan(r),o=new g(1,0,n,1,0,0),h=h.append(o)):console.error(&quot;math.js: No argument to skewX transform!&quot;);break;case&quot;skewY&quot;:l[0]?(r=l[0]*Math.PI/180,n=Math.tan(r),i=new g(1,n,0,1,0,0),h=h.append(i)):console.error(&quot;math.js: No argument to skewY transform!&quot;);break;case&quot;matrix&quot;:6===l.length?h=h.append(new g(...l)):console.error(&quot;math.js: Incorrect number of arguments for matrix!&quot;);break;default:console.error(&quot;mesh.js: Unhandled transform type: &quot;+d)}}),h},l=t=&gt;{let e=[],s=t.split(/[ ,]+/);for(let t=0,r=s.length-1;t&lt;r;t+=2)e.push(new x(parseFloat(s[t]),parseFloat(s[t+1])));return e},d=(t,e)=&gt;{for(let s in e)t.setAttribute(s,e[s])},c=(t,e,s,r,n)=&gt;{let o,i,a=[0,0,0,0];for(let h=0;h&lt;3;++h)e[h]&lt;t[h]&amp;&amp;e[h]&lt;s[h]||t[h]&lt;e[h]&amp;&amp;s[h]&lt;e[h]?a[h]=0:(a[h]=.5*((e[h]-t[h])/r+(s[h]-e[h])/n),o=Math.abs(3*(e[h]-t[h])/r),i=Math.abs(3*(s[h]-e[h])/n),a[h]&gt;o?a[h]=o:a[h]&gt;i&amp;&amp;(a[h]=i));return a},u=[[1,0,0,0,0,0,0,0,0,0,0,0,0,0,0,0],[0,0,0,0,1,0,0,0,0,0,0,0,0,0,0,0],[-3,3,0,0,-2,-1,0,0,0,0,0,0,0,0,0,0],[2,-2,0,0,1,1,0,0,0,0,0,0,0,0,0,0],[0,0,0,0,0,0,0,0,1,0,0,0,0,0,0,0],[0,0,0,0,0,0,0,0,0,0,0,0,1,0,0,0],[0,0,0,0,0,0,0,0,-3,3,0,0,-2,-1,0,0],[0,0,0,0,0,0,0,0,2,-2,0,0,1,1,0,0],[-3,0,3,0,0,0,0,0,-2,0,-1,0,0,0,0,0],[0,0,0,0,-3,0,3,0,0,0,0,0,-2,0,-1,0],[9,-9,-9,9,6,3,-6,-3,6,-6,3,-3,4,2,2,1],[-6,6,6,-6,-3,-3,3,3,-4,4,-2,2,-2,-2,-1,-1],[2,0,-2,0,0,0,0,0,1,0,1,0,0,0,0,0],[0,0,0,0,2,0,-2,0,0,0,0,0,1,0,1,0],[-6,6,6,-6,-4,-2,4,2,-3,3,-3,3,-2,-1,-2,-1],[4,-4,-4,4,2,2,-2,-2,2,-2,2,-2,1,1,1,1]],f=t=&gt;{let e=[];for(let s=0;s&lt;16;++s){e[s]=0;for(let r=0;r&lt;16;++r)e[s]+=u[s][r]*t[r]}return e},p=(t,e,s)=&gt;{const r=e*e,n=s*s,o=e*e*e,i=s*s*s;return t[0]+t[1]*e+t[2]*r+t[3]*o+t[4]*s+t[5]*s*e+t[6]*s*r+t[7]*s*o+t[8]*n+t[9]*n*e+t[10]*n*r+t[11]*n*o+t[12]*i+t[13]*i*e+t[14]*i*r+t[15]*i*o},y=t=&gt;{let e=[],s=[],r=[];for(let s=0;s&lt;4;++s)e[s]=[],e[s][0]=n(t[0][s],t[1][s],t[2][s],t[3][s]),e[s][1]=[],e[s][1].push(...n(...e[s][0][0])),e[s][1].push(...n(...e[s][0][1])),e[s][2]=[],e[s][2].push(...n(...e[s][1][0])),e[s][2].push(...n(...e[s][1][1])),e[s][2].push(...n(...e[s][1][2])),e[s][2].push(...n(...e[s][1][3]));for(let t=0;t&lt;8;++t){s[t]=[];for(let r=0;r&lt;4;++r)s[t][r]=[],s[t][r][0]=n(e[0][2][t][r],e[1][2][t][r],e[2][2][t][r],e[3][2][t][r]),s[t][r][1]=[],s[t][r][1].push(...n(...s[t][r][0][0])),s[t][r][1].push(...n(...s[t][r][0][1])),s[t][r][2]=[],s[t][r][2].push(...n(...s[t][r][1][0])),s[t][r][2].push(...n(...s[t][r][1][1])),s[t][r][2].push(...n(...s[t][r][1][2])),s[t][r][2].push(...n(...s[t][r][1][3]))}for(let t=0;t&lt;8;++t){r[t]=[];for(let e=0;e&lt;8;++e)r[t][e]=[],r[t][e][0]=s[t][0][2][e],r[t][e][1]=s[t][1][2][e],r[t][e][2]=s[t][2][2][e],r[t][e][3]=s[t][3][2][e]}return r};class x{constructor(t,e){this.x=t||0,this.y=e||0}toString(){return`(x=${this.x}, y=${this.y})`}clone(){return new x(this.x,this.y)}add(t){return new x(this.x+t.x,this.y+t.y)}scale(t){return void 0===t.x?new x(this.x*t,this.y*t):new x(this.x*t.x,this.y*t.y)}distSquared(t){let e=this.x-t.x,s=this.y-t.y;return e*e+s*s}transform(t){let e=this.x*t.a+this.y*t.c+t.e,s=this.x*t.b+this.y*t.d+t.f;return new x(e,s)}}class g{constructor(t,e,s,r,n,o){void 0===t?(this.a=1,this.b=0,this.c=0,this.d=1,this.e=0,this.f=0):(this.a=t,this.b=e,this.c=s,this.d=r,this.e=n,this.f=o)}toString(){return`affine: ${this.a} ${this.c} ${this.e} \n       ${this.b} ${this.d} ${this.f}`}append(t){t instanceof g||console.error(&quot;mesh.js: argument to Affine.append is not affine!&quot;);let e=this.a*t.a+this.c*t.b,s=this.b*t.a+this.d*t.b,r=this.a*t.c+this.c*t.d,n=this.b*t.c+this.d*t.d,o=this.a*t.e+this.c*t.f+this.e,i=this.b*t.e+this.d*t.f+this.f;return new g(e,s,r,n,o,i)}}class w{constructor(t,e){this.nodes=t,this.colors=e}paintCurve(t,e){if(o(this.nodes)&gt;r){const s=n(...this.nodes);let r=[[],[]],o=[[],[]];for(let t=0;t&lt;4;++t)r[0][t]=this.colors[0][t],r[1][t]=(this.colors[0][t]+this.colors[1][t])/2,o[0][t]=r[1][t],o[1][t]=this.colors[1][t];let i=new w(s[0],r),a=new w(s[1],o);i.paintCurve(t,e),a.paintCurve(t,e)}else{let s=Math.round(this.nodes[0].x);if(s&gt;=0&amp;&amp;s&lt;e){let r=4*(~~this.nodes[0].y*e+s);t[r]=Math.round(this.colors[0][0]),t[r+1]=Math.round(this.colors[0][1]),t[r+2]=Math.round(this.colors[0][2]),t[r+3]=Math.round(this.colors[0][3])}}}}class m{constructor(t,e){this.nodes=t,this.colors=e}split(){let t=[[],[],[],[]],e=[[],[],[],[]],s=[[[],[]],[[],[]]],r=[[[],[]],[[],[]]];for(let s=0;s&lt;4;++s){const r=n(this.nodes[0][s],this.nodes[1][s],this.nodes[2][s],this.nodes[3][s]);t[0][s]=r[0][0],t[1][s]=r[0][1],t[2][s]=r[0][2],t[3][s]=r[0][3],e[0][s]=r[1][0],e[1][s]=r[1][1],e[2][s]=r[1][2],e[3][s]=r[1][3]}for(let t=0;t&lt;4;++t)s[0][0][t]=this.colors[0][0][t],s[0][1][t]=this.colors[0][1][t],s[1][0][t]=(this.colors[0][0][t]+this.colors[1][0][t])/2,s[1][1][t]=(this.colors[0][1][t]+this.colors[1][1][t])/2,r[0][0][t]=s[1][0][t],r[0][1][t]=s[1][1][t],r[1][0][t]=this.colors[1][0][t],r[1][1][t]=this.colors[1][1][t];return[new m(t,s),new m(e,r)]}paint(t,e){let s,n=!1;for(let t=0;t&lt;4;++t)if((s=o([this.nodes[0][t],this.nodes[1][t],this.nodes[2][t],this.nodes[3][t]]))&gt;r){n=!0;break}if(n){let s=this.split();s[0].paint(t,e),s[1].paint(t,e)}else{new w([...this.nodes[0]],[...this.colors[0]]).paintCurve(t,e)}}}class b{constructor(t){this.readMesh(t),this.type=t.getAttribute(&quot;type&quot;)||&quot;bilinear&quot;}readMesh(t){let e=[[]],s=[[]],r=Number(t.getAttribute(&quot;x&quot;)),n=Number(t.getAttribute(&quot;y&quot;));e[0][0]=new x(r,n);let o=t.children;for(let t=0,r=o.length;t&lt;r;++t){e[3*t+1]=[],e[3*t+2]=[],e[3*t+3]=[],s[t+1]=[];let r=o[t].children;for(let n=0,o=r.length;n&lt;o;++n){let o=r[n].children;for(let r=0,i=o.length;r&lt;i;++r){let i=r;0!==t&amp;&amp;++i;let h,d=o[r].getAttribute(&quot;path&quot;),c=&quot;l&quot;;null!=d&amp;&amp;(c=(h=d.match(/\s*([lLcC])\s*(.*)/))[1]);let u=l(h[2]);switch(c){case&quot;l&quot;:0===i?(e[3*t][3*n+3]=u[0].add(e[3*t][3*n]),e[3*t][3*n+1]=a(e[3*t][3*n],e[3*t][3*n+3]),e[3*t][3*n+2]=a(e[3*t][3*n+3],e[3*t][3*n])):1===i?(e[3*t+3][3*n+3]=u[0].add(e[3*t][3*n+3]),e[3*t+1][3*n+3]=a(e[3*t][3*n+3],e[3*t+3][3*n+3]),e[3*t+2][3*n+3]=a(e[3*t+3][3*n+3],e[3*t][3*n+3])):2===i?(0===n&amp;&amp;(e[3*t+3][3*n+0]=u[0].add(e[3*t+3][3*n+3])),e[3*t+3][3*n+1]=a(e[3*t+3][3*n],e[3*t+3][3*n+3]),e[3*t+3][3*n+2]=a(e[3*t+3][3*n+3],e[3*t+3][3*n])):(e[3*t+1][3*n]=a(e[3*t][3*n],e[3*t+3][3*n]),e[3*t+2][3*n]=a(e[3*t+3][3*n],e[3*t][3*n]));break;case&quot;L&quot;:0===i?(e[3*t][3*n+3]=u[0],e[3*t][3*n+1]=a(e[3*t][3*n],e[3*t][3*n+3]),e[3*t][3*n+2]=a(e[3*t][3*n+3],e[3*t][3*n])):1===i?(e[3*t+3][3*n+3]=u[0],e[3*t+1][3*n+3]=a(e[3*t][3*n+3],e[3*t+3][3*n+3]),e[3*t+2][3*n+3]=a(e[3*t+3][3*n+3],e[3*t][3*n+3])):2===i?(0===n&amp;&amp;(e[3*t+3][3*n+0]=u[0]),e[3*t+3][3*n+1]=a(e[3*t+3][3*n],e[3*t+3][3*n+3]),e[3*t+3][3*n+2]=a(e[3*t+3][3*n+3],e[3*t+3][3*n])):(e[3*t+1][3*n]=a(e[3*t][3*n],e[3*t+3][3*n]),e[3*t+2][3*n]=a(e[3*t+3][3*n],e[3*t][3*n]));break;case&quot;c&quot;:0===i?(e[3*t][3*n+1]=u[0].add(e[3*t][3*n]),e[3*t][3*n+2]=u[1].add(e[3*t][3*n]),e[3*t][3*n+3]=u[2].add(e[3*t][3*n])):1===i?(e[3*t+1][3*n+3]=u[0].add(e[3*t][3*n+3]),e[3*t+2][3*n+3]=u[1].add(e[3*t][3*n+3]),e[3*t+3][3*n+3]=u[2].add(e[3*t][3*n+3])):2===i?(e[3*t+3][3*n+2]=u[0].add(e[3*t+3][3*n+3]),e[3*t+3][3*n+1]=u[1].add(e[3*t+3][3*n+3]),0===n&amp;&amp;(e[3*t+3][3*n+0]=u[2].add(e[3*t+3][3*n+3]))):(e[3*t+2][3*n]=u[0].add(e[3*t+3][3*n]),e[3*t+1][3*n]=u[1].add(e[3*t+3][3*n]));break;case&quot;C&quot;:0===i?(e[3*t][3*n+1]=u[0],e[3*t][3*n+2]=u[1],e[3*t][3*n+3]=u[2]):1===i?(e[3*t+1][3*n+3]=u[0],e[3*t+2][3*n+3]=u[1],e[3*t+3][3*n+3]=u[2]):2===i?(e[3*t+3][3*n+2]=u[0],e[3*t+3][3*n+1]=u[1],0===n&amp;&amp;(e[3*t+3][3*n+0]=u[2])):(e[3*t+2][3*n]=u[0],e[3*t+1][3*n]=u[1]);break;default:console.error(&quot;mesh.js: &quot;+c+&quot; invalid path type.&quot;)}if(0===t&amp;&amp;0===n||r&gt;0){let e=window.getComputedStyle(o[r]).stopColor.match(/^rgb\s*\(\s*(\d+)\s*,\s*(\d+)\s*,\s*(\d+)\s*\)$/i),a=window.getComputedStyle(o[r]).stopOpacity,h=255;a&amp;&amp;(h=Math.floor(255*a)),e&amp;&amp;(0===i?(s[t][n]=[],s[t][n][0]=Math.floor(e[1]),s[t][n][1]=Math.floor(e[2]),s[t][n][2]=Math.floor(e[3]),s[t][n][3]=h):1===i?(s[t][n+1]=[],s[t][n+1][0]=Math.floor(e[1]),s[t][n+1][1]=Math.floor(e[2]),s[t][n+1][2]=Math.floor(e[3]),s[t][n+1][3]=h):2===i?(s[t+1][n+1]=[],s[t+1][n+1][0]=Math.floor(e[1]),s[t+1][n+1][1]=Math.floor(e[2]),s[t+1][n+1][2]=Math.floor(e[3]),s[t+1][n+1][3]=h):3===i&amp;&amp;(s[t+1][n]=[],s[t+1][n][0]=Math.floor(e[1]),s[t+1][n][1]=Math.floor(e[2]),s[t+1][n][2]=Math.floor(e[3]),s[t+1][n][3]=h))}}e[3*t+1][3*n+1]=new x,e[3*t+1][3*n+2]=new x,e[3*t+2][3*n+1]=new x,e[3*t+2][3*n+2]=new x,e[3*t+1][3*n+1].x=(-4*e[3*t][3*n].x+6*(e[3*t][3*n+1].x+e[3*t+1][3*n].x)+-2*(e[3*t][3*n+3].x+e[3*t+3][3*n].x)+3*(e[3*t+3][3*n+1].x+e[3*t+1][3*n+3].x)+-1*e[3*t+3][3*n+3].x)/9,e[3*t+1][3*n+2].x=(-4*e[3*t][3*n+3].x+6*(e[3*t][3*n+2].x+e[3*t+1][3*n+3].x)+-2*(e[3*t][3*n].x+e[3*t+3][3*n+3].x)+3*(e[3*t+3][3*n+2].x+e[3*t+1][3*n].x)+-1*e[3*t+3][3*n].x)/9,e[3*t+2][3*n+1].x=(-4*e[3*t+3][3*n].x+6*(e[3*t+3][3*n+1].x+e[3*t+2][3*n].x)+-2*(e[3*t+3][3*n+3].x+e[3*t][3*n].x)+3*(e[3*t][3*n+1].x+e[3*t+2][3*n+3].x)+-1*e[3*t][3*n+3].x)/9,e[3*t+2][3*n+2].x=(-4*e[3*t+3][3*n+3].x+6*(e[3*t+3][3*n+2].x+e[3*t+2][3*n+3].x)+-2*(e[3*t+3][3*n].x+e[3*t][3*n+3].x)+3*(e[3*t][3*n+2].x+e[3*t+2][3*n].x)+-1*e[3*t][3*n].x)/9,e[3*t+1][3*n+1].y=(-4*e[3*t][3*n].y+6*(e[3*t][3*n+1].y+e[3*t+1][3*n].y)+-2*(e[3*t][3*n+3].y+e[3*t+3][3*n].y)+3*(e[3*t+3][3*n+1].y+e[3*t+1][3*n+3].y)+-1*e[3*t+3][3*n+3].y)/9,e[3*t+1][3*n+2].y=(-4*e[3*t][3*n+3].y+6*(e[3*t][3*n+2].y+e[3*t+1][3*n+3].y)+-2*(e[3*t][3*n].y+e[3*t+3][3*n+3].y)+3*(e[3*t+3][3*n+2].y+e[3*t+1][3*n].y)+-1*e[3*t+3][3*n].y)/9,e[3*t+2][3*n+1].y=(-4*e[3*t+3][3*n].y+6*(e[3*t+3][3*n+1].y+e[3*t+2][3*n].y)+-2*(e[3*t+3][3*n+3].y+e[3*t][3*n].y)+3*(e[3*t][3*n+1].y+e[3*t+2][3*n+3].y)+-1*e[3*t][3*n+3].y)/9,e[3*t+2][3*n+2].y=(-4*e[3*t+3][3*n+3].y+6*(e[3*t+3][3*n+2].y+e[3*t+2][3*n+3].y)+-2*(e[3*t+3][3*n].y+e[3*t][3*n+3].y)+3*(e[3*t][3*n+2].y+e[3*t+2][3*n].y)+-1*e[3*t][3*n].y)/9}}this.nodes=e,this.colors=s}paintMesh(t,e){let s=(this.nodes.length-1)/3,r=(this.nodes[0].length-1)/3;if(&quot;bilinear&quot;===this.type||s&lt;2||r&lt;2){let n;for(let o=0;o&lt;s;++o)for(let s=0;s&lt;r;++s){let r=[];for(let t=3*o,e=3*o+4;t&lt;e;++t)r.push(this.nodes[t].slice(3*s,3*s+4));let i=[];i.push(this.colors[o].slice(s,s+2)),i.push(this.colors[o+1].slice(s,s+2)),(n=new m(r,i)).paint(t,e)}}else{let n,o,a,h,l,d,u;const x=s,g=r;s++,r++;let w=new Array(s);for(let t=0;t&lt;s;++t){w[t]=new Array(r);for(let e=0;e&lt;r;++e)w[t][e]=[],w[t][e][0]=this.nodes[3*t][3*e],w[t][e][1]=this.colors[t][e]}for(let t=0;t&lt;s;++t)for(let e=0;e&lt;r;++e)0!==t&amp;&amp;t!==x&amp;&amp;(n=i(w[t-1][e][0],w[t][e][0]),o=i(w[t+1][e][0],w[t][e][0]),w[t][e][2]=c(w[t-1][e][1],w[t][e][1],w[t+1][e][1],n,o)),0!==e&amp;&amp;e!==g&amp;&amp;(n=i(w[t][e-1][0],w[t][e][0]),o=i(w[t][e+1][0],w[t][e][0]),w[t][e][3]=c(w[t][e-1][1],w[t][e][1],w[t][e+1][1],n,o));for(let t=0;t&lt;r;++t){w[0][t][2]=[],w[x][t][2]=[];for(let e=0;e&lt;4;++e)n=i(w[1][t][0],w[0][t][0]),o=i(w[x][t][0],w[x-1][t][0]),w[0][t][2][e]=n&gt;0?2*(w[1][t][1][e]-w[0][t][1][e])/n-w[1][t][2][e]:0,w[x][t][2][e]=o&gt;0?2*(w[x][t][1][e]-w[x-1][t][1][e])/o-w[x-1][t][2][e]:0}for(let t=0;t&lt;s;++t){w[t][0][3]=[],w[t][g][3]=[];for(let e=0;e&lt;4;++e)n=i(w[t][1][0],w[t][0][0]),o=i(w[t][g][0],w[t][g-1][0]),w[t][0][3][e]=n&gt;0?2*(w[t][1][1][e]-w[t][0][1][e])/n-w[t][1][3][e]:0,w[t][g][3][e]=o&gt;0?2*(w[t][g][1][e]-w[t][g-1][1][e])/o-w[t][g-1][3][e]:0}for(let s=0;s&lt;x;++s)for(let r=0;r&lt;g;++r){let n=i(w[s][r][0],w[s+1][r][0]),o=i(w[s][r+1][0],w[s+1][r+1][0]),c=i(w[s][r][0],w[s][r+1][0]),x=i(w[s+1][r][0],w[s+1][r+1][0]),g=[[],[],[],[]];for(let t=0;t&lt;4;++t){(d=[])[0]=w[s][r][1][t],d[1]=w[s+1][r][1][t],d[2]=w[s][r+1][1][t],d[3]=w[s+1][r+1][1][t],d[4]=w[s][r][2][t]*n,d[5]=w[s+1][r][2][t]*n,d[6]=w[s][r+1][2][t]*o,d[7]=w[s+1][r+1][2][t]*o,d[8]=w[s][r][3][t]*c,d[9]=w[s+1][r][3][t]*x,d[10]=w[s][r+1][3][t]*c,d[11]=w[s+1][r+1][3][t]*x,d[12]=0,d[13]=0,d[14]=0,d[15]=0,u=f(d);for(let e=0;e&lt;9;++e){g[t][e]=[];for(let s=0;s&lt;9;++s)g[t][e][s]=p(u,e/8,s/8),g[t][e][s]&gt;255?g[t][e][s]=255:g[t][e][s]&lt;0&amp;&amp;(g[t][e][s]=0)}}h=[];for(let t=3*s,e=3*s+4;t&lt;e;++t)h.push(this.nodes[t].slice(3*r,3*r+4));l=y(h);for(let s=0;s&lt;8;++s)for(let r=0;r&lt;8;++r)(a=new m(l[s][r],[[[g[0][s][r],g[1][s][r],g[2][s][r],g[3][s][r]],[g[0][s][r+1],g[1][s][r+1],g[2][s][r+1],g[3][s][r+1]]],[[g[0][s+1][r],g[1][s+1][r],g[2][s+1][r],g[3][s+1][r]],[g[0][s+1][r+1],g[1][s+1][r+1],g[2][s+1][r+1],g[3][s+1][r+1]]]])).paint(t,e)}}}transform(t){if(t instanceof x)for(let e=0,s=this.nodes.length;e&lt;s;++e)for(let s=0,r=this.nodes[0].length;s&lt;r;++s)this.nodes[e][s]=this.nodes[e][s].add(t);else if(t instanceof g)for(let e=0,s=this.nodes.length;e&lt;s;++e)for(let s=0,r=this.nodes[0].length;s&lt;r;++s)this.nodes[e][s]=this.nodes[e][s].transform(t)}scale(t){for(let e=0,s=this.nodes.length;e&lt;s;++e)for(let s=0,r=this.nodes[0].length;s&lt;r;++s)this.nodes[e][s]=this.nodes[e][s].scale(t)}}document.querySelectorAll(&quot;rect,circle,ellipse,path,text&quot;).forEach((r,n)=&gt;{let o=r.getAttribute(&quot;id&quot;);o||(o=&quot;patchjs_shape&quot;+n,r.setAttribute(&quot;id&quot;,o));const i=r.style.fill.match(/^url\(\s*&quot;?\s*#([^\s&quot;]+)&quot;?\s*\)/),a=r.style.stroke.match(/^url\(\s*&quot;?\s*#([^\s&quot;]+)&quot;?\s*\)/);if(i&amp;&amp;i[1]){const a=document.getElementById(i[1]);if(a&amp;&amp;&quot;meshgradient&quot;===a.nodeName){const i=r.getBBox();let l=document.createElementNS(s,&quot;canvas&quot;);d(l,{width:i.width,height:i.height});const c=l.getContext(&quot;2d&quot;);let u=c.createImageData(i.width,i.height);const f=new b(a);&quot;objectBoundingBox&quot;===a.getAttribute(&quot;gradientUnits&quot;)&amp;&amp;f.scale(new x(i.width,i.height));const p=a.getAttribute(&quot;gradientTransform&quot;);null!=p&amp;&amp;f.transform(h(p)),&quot;userSpaceOnUse&quot;===a.getAttribute(&quot;gradientUnits&quot;)&amp;&amp;f.transform(new x(-i.x,-i.y)),f.paintMesh(u.data,l.width),c.putImageData(u,0,0);const y=document.createElementNS(t,&quot;image&quot;);d(y,{width:i.width,height:i.height,x:i.x,y:i.y});let g=l.toDataURL();y.setAttributeNS(e,&quot;xlink:href&quot;,g),r.parentNode.insertBefore(y,r),r.style.fill=&quot;none&quot;;const w=document.createElementNS(t,&quot;use&quot;);w.setAttributeNS(e,&quot;xlink:href&quot;,&quot;#&quot;+o);const m=&quot;patchjs_clip&quot;+n,M=document.createElementNS(t,&quot;clipPath&quot;);M.setAttribute(&quot;id&quot;,m),M.appendChild(w),r.parentElement.insertBefore(M,r),y.setAttribute(&quot;clip-path&quot;,&quot;url(#&quot;+m+&quot;)&quot;),u=null,l=null,g=null}}if(a&amp;&amp;a[1]){const o=document.getElementById(a[1]);if(o&amp;&amp;&quot;meshgradient&quot;===o.nodeName){const i=parseFloat(r.style.strokeWidth.slice(0,-2))*(parseFloat(r.style.strokeMiterlimit)||parseFloat(r.getAttribute(&quot;stroke-miterlimit&quot;))||1),a=r.getBBox(),l=Math.trunc(a.width+i),c=Math.trunc(a.height+i),u=Math.trunc(a.x-i/2),f=Math.trunc(a.y-i/2);let p=document.createElementNS(s,&quot;canvas&quot;);d(p,{width:l,height:c});const y=p.getContext(&quot;2d&quot;);let g=y.createImageData(l,c);const w=new b(o);&quot;objectBoundingBox&quot;===o.getAttribute(&quot;gradientUnits&quot;)&amp;&amp;w.scale(new x(l,c));const m=o.getAttribute(&quot;gradientTransform&quot;);null!=m&amp;&amp;w.transform(h(m)),&quot;userSpaceOnUse&quot;===o.getAttribute(&quot;gradientUnits&quot;)&amp;&amp;w.transform(new x(-u,-f)),w.paintMesh(g.data,p.width),y.putImageData(g,0,0);const M=document.createElementNS(t,&quot;image&quot;);d(M,{width:l,height:c,x:0,y:0});let S=p.toDataURL();M.setAttributeNS(e,&quot;xlink:href&quot;,S);const k=&quot;pattern_clip&quot;+n,A=document.createElementNS(t,&quot;pattern&quot;);d(A,{id:k,patternUnits:&quot;userSpaceOnUse&quot;,width:l,height:c,x:u,y:f}),A.appendChild(M),o.parentNode.appendChild(A),r.style.stroke=&quot;url(#&quot;+k+&quot;)&quot;,g=null,p=null,S=null}}})}();
</script>
</svg>
